<mxfile host="app.diagrams.net" agent="Mozilla/5.0 (Windows NT 10.0; Win64; x64) AppleWebKit/537.36 (KHTML, like Gecko) Chrome/136.0.0.0 Safari/537.36" version="27.0.9">
  <diagram name="ページ1" id="YjMrmlFoGhoDhfRrn5yz">
    <mxGraphModel dx="972" dy="637" grid="1" gridSize="10" guides="1" tooltips="1" connect="1" arrows="1" fold="1" page="1" pageScale="1" pageWidth="827" pageHeight="1169" math="0" shadow="0">
      <root>
        <mxCell id="0" />
        <mxCell id="1" parent="0" />
        <mxCell id="l4Yf9cB-Qhk6rSBHNSld-5" value="" style="rounded=0;whiteSpace=wrap;html=1;fillColor=none;" vertex="1" parent="1">
          <mxGeometry x="30" y="80" width="140" height="280" as="geometry" />
        </mxCell>
        <mxCell id="l4Yf9cB-Qhk6rSBHNSld-1" value="" style="shape=document;whiteSpace=wrap;html=1;boundedLbl=1;" vertex="1" parent="1">
          <mxGeometry x="40" y="90" width="120" height="80" as="geometry" />
        </mxCell>
        <mxCell id="l4Yf9cB-Qhk6rSBHNSld-7" value="仕様番号000001" style="text;html=1;align=center;verticalAlign=middle;whiteSpace=wrap;rounded=0;" vertex="1" parent="1">
          <mxGeometry x="70" y="115" width="60" height="30" as="geometry" />
        </mxCell>
        <mxCell id="l4Yf9cB-Qhk6rSBHNSld-8" value="伝票A" style="text;html=1;align=center;verticalAlign=middle;whiteSpace=wrap;rounded=0;" vertex="1" parent="1">
          <mxGeometry x="40" y="90" width="60" height="30" as="geometry" />
        </mxCell>
        <mxCell id="l4Yf9cB-Qhk6rSBHNSld-9" value="" style="shape=document;whiteSpace=wrap;html=1;boundedLbl=1;" vertex="1" parent="1">
          <mxGeometry x="40" y="180" width="120" height="80" as="geometry" />
        </mxCell>
        <mxCell id="l4Yf9cB-Qhk6rSBHNSld-10" value="仕様番号000002" style="text;html=1;align=center;verticalAlign=middle;whiteSpace=wrap;rounded=0;" vertex="1" parent="1">
          <mxGeometry x="70" y="205" width="60" height="30" as="geometry" />
        </mxCell>
        <mxCell id="l4Yf9cB-Qhk6rSBHNSld-11" value="伝票B" style="text;html=1;align=center;verticalAlign=middle;whiteSpace=wrap;rounded=0;" vertex="1" parent="1">
          <mxGeometry x="40" y="180" width="60" height="30" as="geometry" />
        </mxCell>
        <mxCell id="l4Yf9cB-Qhk6rSBHNSld-12" value="" style="shape=document;whiteSpace=wrap;html=1;boundedLbl=1;" vertex="1" parent="1">
          <mxGeometry x="40" y="270" width="120" height="80" as="geometry" />
        </mxCell>
        <mxCell id="l4Yf9cB-Qhk6rSBHNSld-13" value="仕様番号000003" style="text;html=1;align=center;verticalAlign=middle;whiteSpace=wrap;rounded=0;" vertex="1" parent="1">
          <mxGeometry x="70" y="295" width="60" height="30" as="geometry" />
        </mxCell>
        <mxCell id="l4Yf9cB-Qhk6rSBHNSld-14" value="伝票C" style="text;html=1;align=center;verticalAlign=middle;whiteSpace=wrap;rounded=0;" vertex="1" parent="1">
          <mxGeometry x="40" y="270" width="60" height="30" as="geometry" />
        </mxCell>
        <mxCell id="l4Yf9cB-Qhk6rSBHNSld-15" value="刷了日・サンプル出力部数&lt;div&gt;などが共通するJob群&lt;/div&gt;" style="text;html=1;align=center;verticalAlign=middle;whiteSpace=wrap;rounded=0;" vertex="1" parent="1">
          <mxGeometry x="25" y="40" width="150" height="40" as="geometry" />
        </mxCell>
        <mxCell id="l4Yf9cB-Qhk6rSBHNSld-17" value="" style="shape=image;verticalLabelPosition=bottom;labelBackgroundColor=default;verticalAlign=top;aspect=fixed;imageAspect=0;image=data:image/png,iVBORw0KGgoAAAANSUhEUgAABCcAAAJWCAYAAABrm+36AAAAAXNSR0IArs4c6QAAAARnQU1BAACxjwv8YQUAAAAJcEhZcwAADsMAAA7DAcdvqGQAAP+lSURBVHhe7N0LXBTX3T/+T+XHpupaDYbGVR/RRpJUkj5qYzA2EKpgE7SKVkVFNF5QEQ3eIN7ihXgLeCNR0eD9jqaiVjD1kiIkBmIqpgk8SdZUsdE1JW40rtqsf+z/nNlZ2F0WFhQE5PP2NbJz2cvMnJk55zvnnPnZfwUId00r5B8iIiIiIiIiogemgXYqGqiviYiIiIiIiIhqBIMTRERERERERFSjGJwgIiIiIiIiohrF4AQRERERERER1SgGJ4iIiIiIiIioRjE4QUREREREREQ1isEJIiIiIiIiIqpRDE4QPQg/XkfWn/Ow7J0vceAft2BWJ9e8OzB+f1d9XY2+O4+Zo48jTA4bvlcnEhERERERWfzsv4J8cde0QplQ1+RuOI5lH6sjaIKBi30R8rg6SnWC+cefYCpSR9AA2kfdoVHHHgrffoNxUXnQF68j4NHdF1umPg6tOl5j/vE5+sw6D1PjpvD749OIHvY4PNRZxT45g+5x31pe/8oHO99+AjrLWMUZxDaIENtAvhbr/oFY9xLfY93os8hSxypGh+kbfdBJHSMiIiIiorqrgXZq3a850UIUZA3f3VIHd+iqKjDxnzsw/vDTPQ+GH+6oH1R/5a8/gu69D6nDaZz4jzrDQc76v2JAuDpM/wYF6vQKsyn01z4/4cDbolD+c1GYTu6NDw6+gtV/agrjB2ew6R/qIqVcR/o7Z7HMOuz5DkZ1jqT/q828d75Gzg/qjEq7i6z08zDJlzevI/dHt9KBiQeiCFeLj+GKDj/VotonRERERER0v9isoyw/XMRMa4H5HoawzbbFyfrp0ccaqa8kN2h/rr50oHFTX0iN3StXm6DoBvZOP4QB879B/k11WpW5C9OP99vk4Rry8sUf3zYI1onDzc0dHV5uDW/cQZ7+lmWRUhrA+OVFpP9VHf511y5ooPnxh5J5fzWJDa3OqKx/fo11H6qv0QghLz+mvq4CuXmWJhzWYebXlloT0gc5NkErMay4pM4gIiIiIqL6isEJqruKbiD9zVNYJ0q9xk/zMHF8Dg4UVGX/CYVIHHrYviBd6SEHJ+RH5VxEukH8tqI7yH//W1FQd4ePt23wxpabfcDGzf4w1TSoisP2Dk7s/hoGdQwvPI1Bv1JfV4U7P9nXdPi+vJpErTD7cB98YDO8H2PTcOTxJ7HeYf4HhzvDV51NRERERER1X50ITph/vFOxKtxeWrRQXzoy36zgZ1CdYTz+Od7+9Cd1TPjhO7z92jEsOmkzrba4acCyiMPo3vcIJv75Ojy6d8ao36jzaoD50zwkFffV0gi6C2fQx2lwRQzW/iakf+YhzNkycnjtm5Jgx30y/FtpbKLQPv84vNXXRERERET0cKoDHWLewt7XjmPdP9XR+/HYYxg05lmMeqGJ/Z1pum/mmz/B7P4ItDY9WRr+fBJhm6+rY62xpIy73TkrDmHmB+qIkw4Xzf+5C83PncfRTJ9+jklvnkeBQ78TXn/0xTtjHoe2gvvZ+Xd8h0XWmg9VQXY6+eLj6PRSGwT/plE5nX46pHmHDiQrul3LVPQD3n41CwesfVW82AWzNaexyLoP7lV5nWWW2yGmVJlt3RTjk1/CoEr3yklERERERLWR7BCzfgUnFDrMfq8LepTR/wHdG7sAQ1VzWpi18f23mDflDLIcOob0eK4jlr/RBl6uAhT/EQXjmT9g0LKn4W237E/Qf2jEFXWssm7kfollf72hjgmu1qNYdQYn7iLnnWOY+deS2iXeIwMxquD4/e8/u+CEw7b7wYB167+11Kzo8AQW9LHpReNxD/h5X2NwgoiIiIionqqnwYnyC3Oy+YfslPH+HmUpO1IEtL+oE61mqkSNBiekmz9g05ws7CjuddHCa9hL2Dy4qTrmXP76v2LiX35Cp0l/wPI/PKJOvX/yaSUT/1LS14JfTG8seKkiaaL6ghOmT87g1bhv7Z7+IYMT6//kpP8LpbPRvyl9etjyGvF7bB7YRB0rSyVqQijrh5LlH2+N10bq0FyZafUfZG7+HCe+k68ZnCAiIiIiepjUkeAEYP7xJ5icPi7yGna8llNcPd1roB+W9yldyLpy6BQm7rPewS6/MFeVhWyP530QN/kJdPiFOuEhVuPBCUntIHOZ2g+Fh3jfFvG+cp/+of8SYVPUjiEbi7SxVaSNKqlVcx2bIk5iR3EnDI9h+vZuCK7QkzXsgxO6gS9h54iSAMu9BifMBV9j0mtfQu9wLDkPTtwR+/QDsU+d9N/xQme8P7u1iwDefQQnnDYPsd0mDE4QERERET1MZHCiTtza1/ziEXg86mRoeAdXbaryt3/yUafLPaq1Wc1fNUUb9WV1M36Sh4nznHQSWHQXpv+or6tKdXxmJXQa9we8t91+WG13d12H2Q7zrcPsF9VFJK8nsdpxmXGe6kwX3Jog+I3uWNBd7PeKBCZuigJ0nM0TK25+iwOnynuqRCX804ATtju+gw5dK/zIzxvQ29QU0mrd1Vf34cdvMc9JYMK5uyjYd8ouMOER3A5+6mv804QC9aVU8OcshL3zHUq6sLTXY658uoYvetiNB2J8WU8HcdrpZlXWniIiIiIiotqmbrc7+OcPyFVfAk3g9T/qy1rEL6Rd6Q4C/30e0wY4Fr7uc+h7GNPSbqlf8OBpGtsHhEoFheAGrcN862DbiSbc3PGo4zKNK5FMxfv9ooOwK9pFYEI2WZiTgxO2/VR4++C17lUQCBD0p9T+FVQdAlrCppeFB+8XrTHoDyXr5vFoGetZdAc5609i5FZrzQxBbJfl456Aj/WRGd99h1x15QoOZGHc5h9g+GsOXl1hKKOGExERERERUfnqdHDC8H/Gkru1bo/Cu7X62sEP31e80O495Pf2d+0rNbyEUXbPPNTB37dux3/qJLcGLp7GIgrgiafs+1Jwa4rx08p40kRl/ceAHfts09yjCHy+En1Z/PCTXZ8QLR6rmt5bOw16Gh3EX1mrJC7ESR8Tst+OmX/FzL/YdOLp/TQ2v/UEvNwa4ZmnrQGN68j7+ifkbz2JkRt+KH5Er/Hr76F3UnvHkGdA1offFwdrLOPfQX9TneDIWe2Z7X4Y5qXOJyIiIiKih04dLjnfQtZJm7u7zz+GTupLRzdkJ5dWbbXlFkA9dE3s79pXZvjBgCO2Bd4XW8OPTwVx4Sdc/V59Kf1Po6oJEJSl6A6ySvWl8Ah6zO6GQWUEtypLn5KHLJsaBNruTyL4MXWkIm7+xy44oWl4D4eprBmS4NCM4zEvhI/piOXRj8O+hUkRTPlfYmJ4Fnbk31WnWXiLNOyl1mzp0Kmk34+sxGOYuK/k+PN4qTPeW/MsOjVWJ9jI//NpzFv6DfLtxq2dWxIREREREdXl4MQ/L+KgTRv0Dp08y+ygz/xAqpqLQu+fz9tU5X8EIX10Zf4m7WOiEP54VQ7uqJoGCQ/af3DFtpD682pMkuYbOPDmB5jn0Mmj98humP18FW09/ZeYb1drohFCQh6v3NNf/mXbp0NTeFe6uZJaM+Tk15i59rvimg3ycPcNKf1oVf3Ok+gT+zXySxZ0ztsmAGi2BjEege+E32NXTGt4uHpka0UVfI2J4X/FALshCztsO7ogIiIiIqKHSp14Wkdpd5Gz4q+Y+YG1RsSjeG2LH0Kc3p22f/JBxR6DWHmlHtH4m454b3Gbmu1noIZV6KkSP1zEtPCzxX2HeI8JxHpnTQ7u1/ffYtH0MzhhW0tD8PiDL7ZMctE/RUXJDjbH2/djIT9/l/j8ygQnctcewbR0a9pujQUHO8PPpuBf/na9g/yt8uk01vmPoMfc7qWCL7af4f0nH7T5IE/93Q3g8ZgbjN9bvt/+SR4/IX3WX7HsH+roY4/jtQVdEOLlIqD07dcYN/5L2FYq0nTwwfqFTxTXyqjU0z34tA4iIiIioodKnXlaRynfnsOm4sCE8GL7cqrN/2R3Z17jXlW3d218+w2mLbIJTIjC06gJ9TswIZm0TRH8hzbq8CiaOLkzb/y4wKZTU3f4PFnFgYkiUVj/cw4GjC4dmPAe6FelgYllUQ4dbD7aGjGjKllr4j8GHPirTdr+zWPwqWiSlU1W3vnArrkF3H4O75YuaoX8QofoSa3h8ejjGB//Byz/Y1n74BF0fcnmQHNvCh9XgQkZHFxuH5iQzPl5GPn6l8h31u+EfJToYflED9uhnKd7EBERERFRnVf3ghOyLb1dYccdIcFlN5/Af27iqk0BqE3Lqi38mgu+wcTX8uza9nuP7IxhVdR/QV3m/YeOmD7JOrRDB8edVPQDduy2Kc03bo1A2WNjlbgL4z++wczRRzBx83cw2jXtsTRFeGfEo1USmDAbLmLe+Byk2wY/ZAebSzrD10kfDOUxpH1t119Fhxcfr1CQy2wwYFnUEcz7q02TFbcmCHmzYn1paJ/vjPe2+GJQB/dygykeL7UrqcVh+Bo7PrTvo8JRwZ9P23c8Klnfr/8aE+c4CVDcvI6cD2WnmbZDOR1oEhERERFRnVfHghNOnrLwGx8M+4362hnHx422VF/eN8sd+aGv5dm11ZdPQlj+p6pvNvLwkfvyExywiU3o/thGeZrEfTHfQcGHeZgWkY4Bs/KQ41BbAppHMWxZdywJblK5Gg3OqLUyho4/iyzbGhOyKcW9dLB581us22Zb6+FxBL/g6ikfN5C+4m/oE3Ea6d+qkyS3phj21ot47TeV6EujIjU0fq5DiM0jSbPWi/RfRp8usqnTNGvzk8buJYGglzpiSXd1vfRfY+p6234xhO++xdtLZaeZtgM70CQiIiIiepjVoeDEXRTsO2X/lAV5d3pS+c0n9Ge+K3ncqCge6Srz1ASnLHfk50X8tdQdeY/nLE9CqJJmAg8zUajPWf+h/b5s3Brj+zVVRyrpP3dQ8I/z2LToJPoMPIKRS79BrqH0HX2P532wersfRhU/EvMeFYm0+OmXZdbK8IsJqHwHm7JG0JwzdrUmPIKfRLD9YzWcuI6sD27YF+4ffRzT17x0/+tZhk59nkDxE3N/OI+5G+wiMxZ2TZ0aYdgE28e0PgLf6K4YJieIY3jUkEo2fSEiIiIioodO3egQUxZmN4jC7F9uqBMsvEf+HuuLayncwYl3TiMbHvDp1BTNxRTzdwbs2PYtCqwFPtmW/W3bQlIl/Ocn6D88h3Up550XfP/QBVsm6KCthi4tHibmbw1Yt+TvOFBguw2dd9pYHrP+PNbt/RY5eddh+LH8pgWy48bxsZ2VJgv37i5M391A5l/ysO/Y9yhw1sRA1spY3PUeggIifTs+3rRxayzY1Bl+TpqF2HeIac/jOR/ExTyBDi6ak9h1iGnX6aXDvGEvYf5v/4P8f3yP7LP/Ftv7Bky/98VytzM2nXY2QIcxL2F1iPVYvI5Nr57EDrXWiscf/fBeHyPGReRZmmN198UHUx8H9N9g0/dtMOqFku1l+vJLJPzZHaGTxDr8Qp0omPK/QWKGO0aNaQMdIxlERERERA8V2SFmrQ9OmL78BouWlq6eL5tPbBEFHNtaCjkrDokCnjrihG7gS9g5onJ3540fn8Xc9Qbkq08vKMWtCYJndMN0l9Xv6zFZ0yD3PHbs/Bon9I7b0bFgW0FFN7Bjyt+wyeZxsqU89hgGjXlWFH6bQHNfQaO7yHnnGGba9ufgQNbKiJtsX6CuEPl406Wn8PYntp9dfrAmf/0RTPyLw3Z0ewS+47phQQWbqzgNTvznDozfXUfm3rN4+6Tt41AdvNQFH0xo4PBkEtmPR8n3F3++tw82L3sCXv/+pnRwwpZsIrM7G1P3/GCpBaJpgpBZL+K15+7ixNIMLPpQ3T4VfUIIERERERHVGXXiaR3allrofq6OqJTHPzoEJqQW/1NOAdftMYT1qnyzAY/nn0BwW2ebqQG8uj+L1dt/z8CEK24N0OSmEbmOgQnZYeP8P1Q+MCGJ9w6LfbqkeYGVmzu8Oj2B6Sv/gPe3dMP4F+83MCE1UAre059zsp9FYXnY/EDsmnsPgQlJFMKDI35jV9j2Htmt3FokbV5oDS+bdbI0V/nD/fWj8ckZdB9wBAOiTpUfmBC0P/4HhsaPW57woU6TT8XJWfs3jNzwvRJc0PV6En6PtcYS+bjQcrf/XRisTWSsgQlB016HwF/LbfAIekx4HsOsO/r77/D2a8ew7OMygoVERERERFQn1ZFmHT/hxIoMLDp5Bx1GvoQVf3JeCDN+cBqTdl7HjR9uwVTcCL8BtE+3xPhJHRF8r3dbZX8A0/9m6YhT444OLz6N0SO90OlR3r2tDNPHZ/Hq0oswFjWA7oVfY7ZD1f17od/6N0z7m7xBr4PfH1oh8Okm0FZXtX+bdKD1bo1hYU8j5LlGVdNfgqw5cOAMtpuexOwKPEXEXHAe81b9G76TuiDkV5VPh6VqTvS6jnmhp+36vFC4ucPD+zEEvqBDp994wMerkd32NX18Bq9a+5Z4tDWWrLM+oeQuTDfFsWdtXmJwUnPC/AM2TfkIO2yb+MgaIMOfx+w/OWwDeQ5IsKlBAXf4Tu1e0rEmERERERHVWXWiWUeJuzD+UASPRyvbnr+K3LyB3Msa+PzqkSq4E19/mb78DvrHPetuYOfmTzCIgrGucd0OTJVu1vFznFh0GAl5TeDT6Zfw/e3j8O3UFDpxvLkKvhhPnsHYxBsY9PZLZT+hxFlwQrr5HZZFycewyppIPogZ066cgNUd5K7/ENP+CoRM9cX4F6soMERERERERDWqjgUniKiqmL/9HjkXLE0jtG0fR6fW9xdsMZvvQqMp5zP+cwO5n5osT8553AN+3jY1Hm7+BKPbI/BwaL7l3F3xXQ3Ed6mjRERERERU5zE4QUREREREREQ1qk50iElEREREREREDzcGJ4iIiIiIiIioRjE4QUREREREREQ1isEJIiIiIiIiIqpRDE4QERERERERUY0qeVrH3W+VCURERERERERED0qDBq1Zc4KIiIiIiIiIahaDE0RERERERERUoxicICIiIiIiIqIaxeAEEREREREREdUoBieIiIiIiIiIqEYxOEFERERERERENYrBCSIiIiIiIiKqUQxOEBEREREREVGN+tl/Bfni7t1vlQlERERUN2VmnlNfEREREZXm799efVW7NGjQmjUniIiIiIiIiKhmMThBRERERERERDWKzTqIiIgeErbNOmprtU0iIiJ6sOpC/oDNOoiIiIiIiIioxjE4QUREREREREQ1isEJIiIiIiIiIqpRDE4QERERERERUY1icIKIiIiIiIiIahSDE0RERERERERUoxicICIiIiIiIqIaxeAE1QoNGphq9UBERERERETVh8EJIiIiIiIiIqpRDE4QERERERERUY1icIKIiIiIiIiIalSdDU7oD+3DgbOFMKvjuH0ZuSdPQ1+ojhMREVH1Md+C0XgL5iJ1vKKK7sBkvA5T8QW8GhVeQNbJCzCqo0Rlqpfp+Tpytm/Ajk+uq+NERDWrbgYnCjOw7p2DyL3SGBp1EoxnsW5BIvZ+pY478/ddCBu6C7nqKApPY9nEtcgq7u/wOtLnxmJmyoWSoAdRLWb86jSy/n6Z6ZWIHry/b8GAAfOx95I6XlFXjmHagCgkfqKOl+sWcg+l48TZy04Lf+ZLp/H2xFgsO2Zzs8LWuXTMW5COPJsCp+HQMpEXmGI/zDgGgzqf6ql6mZ7NKMjKwIlzN9VxG0qe2eFzxbDu70Du2tLTw4Yuw4Er6nuJiO5RnQxO5O/Zh9ymQQjp3kidUkHmazBcuQaT9aTu+STau53CovVnLeNfHcXODzXweb5VSdDjUjrGdR+G7nNPwf6ZDYXYO1ZMX6K+l+q2/3yL/VNHQuf+a/zsZ2Jw90OPqcdw5f9T51e7e0tP+v2JmCfS71V1/F4YUuage/c5JRkya5ovHkaiz+jFWHeyjMwSEdUD6jlq4Wl13LmcJWKZ0QdRoI7fN3HS8WjjjoL9azG01zD0iUzEpvcvwHD+LPYuiUWfV5OR134gBr7oWXLdti1UxcvfewoJ1nFRaLt4W+QFGgZg8a6V2CmGZX0bw1B4y+78Zjkv2p4HnQ+LPlTfQHVMfUnPZ7FIpNOX+8nlo9AnaBhG7krHOuv7h87HjvNAwbb56vgUzDykVkFW8szueGWp5XN37hqBDlcKcfW2mHW9EIYOQ9XpYpjkLZb994OpPUJED7W6F5y4eBCJqdfhN2YgOhWfue+BcrKfj32Fnmj+97V4WZ68Z5wCWtzEkdmxCItxiDp/uBObPldf00Pme6wJCsKfVmbjyv97DC1aNwH+v+/xwcrX0G5UJv6jLlXfeI9biQ8+2IH3Dy3C7Ofv4MCCKRi6/KxDkI6IqBppGsGrYxBGxc3DrqTpCG54Fjvi5yBs9DKsOwb4xc7CO5O6wKuhurz0W1FoUgpL3hj/3mblPHYoRS1ELQ0Cvr0AXErDLLUwNmmnGG/TEjr17SW6YcGxHcr7Sw3bh8JbXYqowmooPftNk8vPx7B2cqwjxluDCuo0r+Hz1fGVWNLHU3mPxWXsiLYGMtYiS52qOJmMAep3WoImRET3r24FJ4rESXLhPujREt4dKlFr4uO1lrscs0+JkVOYFyReH7kFX8vcYuaikpBvG7+ONid2T+haXceBePHdlW2LSHXAY4j6y25s2LsfP/yQBcO/PsEPm/yVOf/Z/hd8oLyqvzTalvAdNw/rx7SFMS2ZQToiqgT1DrVa00AZwneJ6zhwYq7DdHUYueuy5a3mQmRtXotpo+Ud35EYELMVx7+6A6/QeXg/bQ3Wx3aEcdsCvPxyFKatPQ1jha7P13H1kiiMhTkUxtzEuU5dgqhs9S09t8SwRGsgYwL81KmKlyLwnvqdO2O7qBOJiO5P3QlOFN1CVvwibDqnjn+oBhysQxkXB+Wi8MIEJdK8up8MaHTBgvd34IM5Y/Ca9aSqnnB7xK5Rxx0jx4Xo0L0vdJcOYt375XcaZPxwKyb2G2n5/pfHYuKqil5gqEY164jRA3+NZj+3jP5w7UfLi7atoXtgTTsc3UJ+SiJG9lHTc59YzEvRl665YLqAI6sWoM/LluX6RG5FVjV0DOvVL1gcJ9dxPEMeaUREFeGJQe861DrYMhBeaISQFQ7TP5iOHuIdLTyaWd6q8USb1m3hN2k2tqRuxvvzOsJ8uxF8OrWFpmFTeL88FMu3b8ahpIHw/VUraEWBzKXbecg5C1w9nKDeDZ6Cae+xJ22qqLqfnm2bcDhr1mHfdwRrThDRg/Wz/wryxd273yoTaivzJxswYHYu/Ef+DnkbzqLHlngMa6POlGQ7+fBdaBO3A7NfVKfZuYBNQ+dghzjhartHI8ZjF9YVtxW9iatXbsGsbQqd1hpr7oLpu4aik/VzF21GYEYUZn7cEQtkMEMro+dTsK7ddHwws6PyDmPaYgxYng/vMQvxTmhbmPP3YdrUg9A/OwbvrQiAh7IUOdOgQW1oLPB/2Dh2J/bnHkX6pzeA/9cRy3K3YNozj4jjQ6suU11Kp6f8d6IwMRXoMW8xYl5qhKvvr8UkmQHoNw/vTbJUKJbtYWcec0eH8BjEhXWA1pSPTTMWY68xAEu2j4GvbdXQMsi21WHrgfHbF2JQKzFBTfMYtxLrQx2qd46OxaamTM9EtVVmpjWCD/j7t1dfVQX1HFXy8WVrNxCbN/YVBbYyyJsLcy+XnHOsbp/CvF5roVGu44U4IM5l+y5a512D4fodaJp6onk55zXfySvx2vPiRWEGZoZvQJ5YvklxIc8THZ4qxInPO2L5rhFq01DLeh0JiMfmoS2VpSTLebElFhwT13tnhUSXeQ6q3epLepZ9TixDlvI9ZtwovI7mI+3TuoVlOdimZ1nrePYFjHLMbztTmWWJqEZUX/6g6jRo0Lru1JzQPD8Q7yQlYPpLze6tqtrZk2okuCk0Z5OR+ZtFeGfmBLyzvaTmhN+0VUqtifWLIjA/aSg6ycWLucN30qvwExebxM3O7hzrsWN9PvDsCCwZ2hYacfHQPjsQS2Qh8uwu7GBV+DqgEB8k/9kSmBCaPdcJ7Zo9orx+4IwZ2Jh6Hdo+UZj9kkizIv3pXo7G7D6NYEzdh3Tb54i1H4jZIzvAQxwYGo8OGD+ym/L+41XeV6u7kq5huoWfLBOIqN5wcsd4kTjXoKUokDhML68gJ+TnipOT1hveLdQJVsZrKOns3xMh1o74tsegb4s7wFMDsV62tbe2v1eu3/aDUpBT3h6AJe/btM0Xw+aZbZH/cTOMTxDXd3G+1KcsQNjQxThY1AUDX3QsrElqM1C1JqbdoNbWpLqqfqVn+z4n7sGVY5hZXLPCZlgr8r1ERFWoDvU50RRe7Sv5dI5it3Bi/zG0eVbebfbBqAkdYTZ+jfR3FuDVJaeLq8nnfJoH88V0zIhcjGVpTh7PqO2G8bLdferW0o+auqJHnvggL18fuzvKHh07iovaLeR9xWqjtZ8/dv73//DfG1k4MfPXuJa9GX/yfhMf1ESzjnPnlEfe+j7XwTKu6vScrFWRj/zy7va0aat01HbxYlWnuZswyYNF2wg1FLIhopqi9N0Uix3WO79lUZ/2U+ZTLIrycfzYLWhf+l/4ONZIKLojrrst4WV75/X6Wbw9OhbrvgI0VzIw61VRIHJ8YoEyODzG0ElhaqS43sPjGg7KTq/F+PyD1yzL3hbf6/SuBzvEfGjVy/RsUbBnkd3nWAZLk42s5fL1VuQ4NkcW62K0e3LHSrz2bCEMRiePICUiug9172kd9+LzfUj6uAv6vWKpot7kpQlY0Kcjhs0ZCt3JfThwXpkMc9paDJi4C1eCorE8tKXTGhq6ASMQ4nEB69ZnwGR7IWK/Eg8P7WPoHheJofL1f3Zh4xFl6oNl0zlrpSkZIsExo3S/CvU4IzJLug5t2aSDiO6J6eQxHDB5IqR3x9LX2EuXUCCmKjW0cAeGk1sxMnQZMk1NxXg3zH5PLRgpne91Q4xaSNqZEASt42MMWwRhiXW+dVDuUNsXsCzDdIQ43vUmqoC6mJ69Bs/G5oSh6PHiQCwurq1hrUEsX4+Ab1XnH4iIKqheBCeMFy8BvYLgJ68HttoEYX5cF+TtOa48NtTDwx0mj2AsmdSl7I6I3LwxanI3aD88hRO23SS08oaPFijIyYNtjXvj2bPi4tQIPk/Ztt2n2ub/Vr6GsM3fFj829D+f5uJj5dUjeLSaupswnbtg01nqNVwRBX+ttrFl9KkOSrOinE/tq0zmfirbanRAh3KailVXmtMfTEc+PNEjoK06hYioEkynkbjqNPBiXwxycg4zXJJPNWgJnSxYFd3Buaw8tBg5D1sm+yjziWqVOpSeT8RHwdr5paRp6g7DB2sxae4puzxr+S5jb0xJbYtFJ9XJRERVqF4EJzxejsGWcR3sotrmS6fxdqQ4WS84DV23DmgupnWaNBnDitIxbUY6Csq5ca19MQzjOxaKC486QeGNYeI78PkBJBy6ALModJrPHcTMd/RAx6EY9qy6GNU+3+7C6KnHsGtUEBq6Pw/d/zyPhi9shnINfy4aUXbPzqoiFw9i0tg5GLvwGPRXCpG7YSsOmBoh0E+tKOwRgNH9msKUtgVvf3wdZtyB8eRaLDp0Cx79BiLYturC+QzsPHlZSXOmz/dZ0txTIRhYRWnObLqMrFWxmLSrEB59RmBY7exDh4hqM5Mem2IScULTDQumBTi9AfCD4d9Au1ZQasG7NYLfnHgsCfWu2FMLnDAcWlZckFIGpfq8fQFLDtNS2eySKqmOpWfL0+jW4NCxHZbOMLUdMXvFQOg+XouE92+pS7nSEoMSrDUtVmL2S+pkIqIqVGee1lFM6SE7A35bhqLg1WU4oU4uS49SPQ8DC3Z540D4Lhh7TcD8cV3g1dCml+KOZ7Fs9DKkX++C2SnR6GFSe+ReJOa9oH6O9NU+hEUehCGo5OkKknyU6NzlGci/fgfQNEKHlyMQN6kLPO7xYlRf1PTTOv5z7hjmjI3Hmr+ptSd+/hg6hc/FzhVB+LVWHh9VX33C9Mk+zHsnHbmXZFrxhN/ICYiRGRd1vuVRoslI2HkaBUpfDy3hFxZht4zytI4r3TBIo8eBvxfCLDJA3t2HYpbILHmV0+bUVllP6yjp7M0d2nbeCB4egVEveZauukpEtUa19catXD9PqSOu2V17C09h0cS1OFHUEa8lRCOknbtlumyCVuQOjTypmMW1d4C49r5gf01VWK/d1idnWMfTuiE3citybt/E1duisKU8ScvyFqeU91XsiQKW8+IFdaxsdutJdUe9Sc93YDLeAho2hbbUU0HuoOBcIXTtWkLj5uJpHW6WfIHB0/ZpIcILI7Bzkli/Cv0WIqpJdeVpHXUvOGE8ix2b9fAePhC+la21bnNB8L19Bxqte0kGRNsB41fPwiB5Ui26Bf25m/B6igWxB6V2PEq0bNX/KFEiovtXbZmPv+9C2PILGJgwCyG2j0t0JDvum5oOXfEjEE9j3sRE5GiDsSBBXLc91IKcouQR3wp5HU6MwSBrYc/KfAtGcYnQNm1kab9vcy13+phP9Te46uvQnihobi9pa+/yUaKO60l1Sz1Lz2Uqysfb/RbjgHIDpCOmvzsdwdb+KmwDDlrnee/89VMwMUWtqeERZPNIUyKqbRicIKoEBieqQz7WDU1WeuB2rhUGrmBHcEQPk1qZ+bh9C2aNWhAjquvqS3ouvICs/Gto89uO8CorC6QEWu6IF+7QeohtYplKRLUQgxNElcDgBBHR/asLmQ8iIiJ6sBicqGLyx35z/lvsOXAUuZ9/DbNZRmqJqodG445Ozz6JwSE98US71lV+fBjMrfEXcY44+x2UjiyJqHaTd0k7Pg78UVzPdZrae72sjswHr7/0IFX39ZfpmYhqq+o8/zE4UcXOFwCvv7maFxF6oORJ4q03JqKdlzqhiryb3xr/XxHQ81dAY4fmqERU+9wUl56j/wT+nxswtkP9Ck7w+ks1obquv0zPRFTbVcf5j8GJKrYk8Shy/p6HHv5dMHLIH/GLJo3VOURV78cbN7F5919wIvM0fH/rg5nRPdU5VWPC31pj6vMMTBDVJTJAseITYO3v61dwgtdfepCq+/rL9ExEtVV1nv/qSnCigfq61pNV7yReSOhBkGlMpjXJmvaqkmzKwcAEUd0ij9n62AyL1196kKr7+sv0TES1VXWf/+qCOhOcsFa/44WEHhRrWmPVTyKqz3j9pQetOq+/TM9EVJvV9/JHnQlOEBEREREREdHDicEJIiIiIiIiIqpRDE4QERERERERUY1icIKIiIiIiIiIahSDE0RERELYywHqKyIiIiJ60BicICIiIiIiIqIaxeAEEREREREREdUoBieIiIiIiIiIqEYxOEFEREREVMcV7ItC77AknDGrE+jBul2AMxlnUHBbHXfGbILxuvMdZDYZoD9nVMdsmMTnfmWAye5tZpxZMwT9X09DQZE6ieghwOAEERERUS2T93ZvBCzOVseqTnV9LtWwiylYuM6ArlHh6KxRp9VnF7cjIiAAAb2nYnu+SZmUvViMy2mlhoXIrIoCvjEbSfMTkVkoXpvzkLosAQnL5iJq8BAMGTwCI4aLv8Nfx6rkjci8YnmLLc2ldMwdMxyJueoEhQnZb0/B1JkbccYu6KFB5xHR6KxPwMJ9Beo0orrvZ/8V5Iu7d79VJtRWIcNXKn8P7Viu/LUyX8pE0qJ4pIkTj1kcqNoOvRA7OxL+rSxnZlPORsx9OwVnLpkBrRc6949E3Iiu0LrJNxuQmZyAjUfOoECctzRNfdBv1luI9NUq75WMWYl4/a1U6OX8Vp0R+locRld0/qmFCJh13PLaUe+lyJjeVR2xV+Y6IRURYUnQq8vZeSoSu9eHQidelrvOklzvNQsRfyRPicLK9e41ZQ4iA3Q4I07cM46qyzno9VYGYnzFC3MB0pYtRNIJPUxF8vf5IzImFr3alX01NH2egviE7ci8KDaUmxZe3cIROz0UPk0t813tx/J+s7KEq/lFJuTti0f8jkxlX8vt4j8sFrEDfSzbpYz5Zw9vku/GgW1TlL9VZczx1njTXx1RmKB/Lx5rtmWiUPz+Rk/2w9i50ejymDpbuHV6I1YlpSDvsmW/+vSJxOSwrmik7FfH9wcibGosAtqW7JNbF7Lx0dG9SDt8BoX/E4lVa0Lhqc6T668/sgo7xfv1P1o+v8urcYjq7QV3dZESZpxNHIyEI0Z0m5+BKCUZm1GYtRHJ29KQ9y/LPm71v70wcGqk3TpUnIvtUWSEPuMYjh7cjlNfm2x+RwV9n4ktcfE4Jt4LjQ5dhs/B2AE+aCTnZS9E2PwyjttXlmJntPgih/f7DIi22RfAncuZ2Lt6IzI+K8AtcYw0erofouIi0fEXlvkKkWZPv7sQ7x7Nwy2xju6/8EHApDkI8wOORQ3Bzm/U5ex4I2xrMoIfz8OWAVE4JtOqrR7i98VUZkOoytsewq28VGwWmanTX5pwR+5b39GIntEP1sOzXJdTMHtUEi6oo+IL0KjtMwgIi8EgP11J+iq1nKD1gLdvOMIi+8FbOa1mY83LM3DKZj3PJgQg4QTQRZy4JgfY/6AL24Zg9i4D2o7ZjUUD5NmxZPlSnogEvknCzvczcC3vOE6lpyA1Q49bAfbb9I1MYENg7b1eZmaeU18B/v7t1Vf3p6zr70OnAnkCFGYicU48Ur+yHCv+o+YgdrC4jqizTZ+nivO0KHjIa5lyrRuNuDf6wUtNmjIwELXf8cANxNKMObA/cvOQ2DsKV6cfRZxM1+Kcl/n264g/bLnu6vxGY87r4hqqfvG9fq6r3+u4vp0HR9vnJ6pRn2HTlL9Vff11mp5NeUh5ayE2ZhmU7eDdIxJzpvcq2Q5lMJuMYnkPaBuqE5xxse/k9S5vTzwWbsqEQV5+n+qH2IXR8C++QFeEEWlT+iPJIw573vAvTo/yjnv2iXTs3Zsq8oReiNyZjNBW6jzFvXy3GSajyKk11UJTZjoww5CxEQmb0nDGmu/r1AujXxf5Outnu9wu98GUjYXDZ0AvrhWxT2chfnEaNIPXIORKFBIQhwyxjZy6lFJ2PtupQMSdmAN/63ZQ3p8O/21bEd5GbCex6lqtBvrkIYj4Rwh2rxL5dCfbzHBwBqbulgGGn3Cj0Cj2ihYenk3wiJxZdAOGQnn8aaHzaCImeGHQqqXo10LOFKuatRCD5xsRuWcFelUqzVBtVh3nv+rIH1S1Bg1a1/GaE+IkEDV8Lk7+MhLJRzKQcSQZka2vwiBOcopzGxHx+nbcCFiJwyeOYr8oDd7YOQNT9hnEzAKkTBqCuTk6jF5/FBlH92OOrwEps+YiTUY8BXNOAsa8cRK6qN04Kt6/5o8/IeX14Uj8vGLz0W0OMjLE77IZtkZ4i5N0Z8SIi7tT5a1Tq1AkO3ze4TcD5SkM/SZaAhPlr7Mk1lGud1ZzRG4Q6y2WSR6vw1VRApRbress+8/POLEVo2X67RSD0TIwIS44mYtHIOFTHSK3iffL3/fLM0iYFI/sMqqxye00fFISDH5x2H80A0f3xcEfV3DD5mRe7n508Ztdzzcje+VwRCUb4P/mfhzNsGwXGG6IfeFi/gNyKyMe8zd8Ae8Zh7Hz0Fb0gsgwxm7EBWsk/5uNmPXGdtz0W4nkNJHWxIX1ZsoMLEq17NfC/VMwf7MBv1si378fY584g+SoGcj4Xpmt+Pf/ZeHCbS0aWzdrMUuwYf5OE56ftx87xecvGqjB6dVTsDNPXcRWXpLYT/bVDu98k4JVCcfQdOAabEnLQHJ8KJp9LabJdVCXqQyX2+PHr5H3xUVxrZYX6koq0mNf7FwcQyjiD4nfOsMH+g1ReDdDzdh3naMUUG2H+JGW4zYiTBy3t7ORPGkuTj8eiVXi/VtWhsD83gzEvKturH+lYH7EXHz2+GgsThXzd89Bx+9SkLAoDdcsSwgGpE8fglUfNUfYmqOWbT5Gh2sizbqLIzl4jf3373wvDt1Ehq1Z38kIfly+/wZuip/rGZpsv9y9BCZcbI87pxMQPW07br34FtaKfbvl7VC45yRi8UZniaNsMkAgf+OW95IR9dxPOLZoCCYnZuOWOt/KutzO92U6D0XjM4mY/6bttnPu9JFjDsvocTrDet5zFIgY2+0mhzWh6jwjLnyWi0uaJmjMqrL1iOs8gTxWNk6eK85GodgqrmWH3/DBF+uiEH/CcqzIa93gSdth8n8L+0+Ia936UGhOJWLKupJj5YYsrbQId7iWOwYQhK+ykW3yh7+v5YSt3xSFuYeBUHmNOzgHPuI8HPXWcVGIsbiXz3X5e8W5LmGcuDbrIrFbXrvXhuCnPTMwfE3Fj/3XX38dv//9750Ocl7tIPbztCgk/TsQKw/KPEosnsxNwIjX08TZoBwivzWid3/07j0XmeVU43e170wn4hG17gv4vHFYpLutInWlYu7kjdBX5vxzLhU7cnXoN8QmMCFd+QJZelHUFQVkZ+7lu/WbRqB3/97o+WamyD04Zz6XgrmLj8FjyBqRPxbHiiiUN/9STJOfrS7jarvcK/OlNCwcORdnusVhkHEGok75InlDJHSmq+oSrnhh9Dbb42ipuGKIqRFbbaZlYPd4kS+wKpIBGyOMRnmDTWzXq0bkJUeItNFTqZkRsVNciz5PwpAetrU1RmD7RcvbdX2XYvee3WLYL/Lu4vNPHMaaEC0MV3wQuUfsG/mdRw+ry5QEJiStX6gYP4Mdf6l4SIUejLpx/qt96nRw4sze7dCLi/Fbb/SCl4xaN/RCr1lxCG1jmW/4NFtccgIRPkreHdfAo9NohAeIE+LfMsV0L4S+cxiHN8RY7s5rPOA/ZQL8i87gRI7lcpR9VFyY2oci8hUdNOL93oPfROSzRqRuslywXM0vpTANiZv06DxlTpnRTVfrZKcoDxtXHoem/5uIftYyqfx1FnL3YvtXOoQviUOvNmK9xTJer8xB3EAv5f2OjEcSsfF8Z8TM6gUPZcoZZGaIk/SfRqOX3G7y943qBy/TcWT9Q1nAgRFpO8T28JuDlRGd4aFs6s4Y/WY0uqpXUJfr7Oo3u5ovtvv2w0b4z1qJ0Z08oBH/5HaJm9LVchEvZ/6DYcQnRzKBbhMwVpZANV4ImRgOz8upyPjSskRhbjYKxX4NGe6DRmL9mv3vaIT4ARcyM8X0Anx0VFyUAkZjoLzlINJyl4lzENTwDHbuK8lEtn0lBhHRkfidUri1pUHH6P1I3rQUwfL94vPbhsYi5HEjPsp0yITKguzyVJif8C6pdSG4PxGO+Sl7ENXTC+5uQCOfcIyQ2/9yNvIvqwtVmOvtgUe7IiRarE8fH3VCJXyZjqOXdcpnyiTcqFsswrrJwu1J5wXg79OwdZsePmKbBsiaG7nHkfGDN3qN7AVP8X73J0IxeawPrh3cKKaL+f8TKrbFYSyK9rfMf9QfY8f5A5+dwFk5X/psL1K/Fr9hQRwC/seSZlv1nIPJ/Z0fh/rtq3DKvZ/yPbYaN1FS8P1xsT3cu8Rg7Xt7ECNrUoh9K/d1xAAdrp04Xom7SyXctV7oOGYNFo30xrUj8dhbZjlHpvNQRISJdbbdds5otWjkuMw3mfhIpj0nd6nK54GOQ+WxMgg2WU966LnOEyA/HamXxLVmarhyR13rF4sJ4jycefikcs3X+MZg/+E9WCprUoh0p2kfjtjBOhiPHoddMhfp1dWRq//oOAydfNFZuSOfh/SDBugGxyJc1lBs6o/YKHFOyUrHSdvMRiU/1+Xv/fQ40ozeCI3oBZ3cJCK/82aUD4z7N4rpyse5NHnyZJw8edKuUCcHOU3OqxUuHkf6V0DgiNFKbU6Nh7/I8/SDNjcJ2603m5xp2sJSs8JDh+byr1Ou9p0RJw+L653fBMT6Wa53Mn3pLqUiPV/5gAopyBF5vPYhCHa8Gdq+F2KmxyDy95aaY/bu7bub67zE2Vmstmdz5a8zMi2tObgHc14Ry4q0pX02HNFDxPXtUjbOXJJLVDBN3wPzP8+JXJEW5pwkJGWJCRnxGDzzAMy/8kbzSl8PKuhKKqb074/+k7aL7y5AypT+iLoyWqT1o1jRV+SePfphxVGR9teL7SuuLJbgh6xdob5f5NBTX5dNP0qGqB3yCnsc8TbT5DBDbDd73gj+ozcMp85Y8vlUa9SJ818tVIeDE3nIOmGCV3AgvMs42TRvIU/GedAX12IxwyxDmjpxIZGjGnEhtz2zNtQqJ9obpp/E/wYYZA2rX3lZaiQoPNDVX2RXc3Pxtcv5pZ3ZkYQzTfth9CuWYn5prtfJlvHwWqReFwX9ISUFFlfrnJd1DKZ2wQh8SplZPpEp277uDDz6jrYJpjSHrpW4EH6pL4lu3xbfIbaCh7JRHRg/Rpa4uAf2lDU8nHG9zq5+s6v5xpws8S2BCAxw/gtcza9+XyPvM6BtB5+SKu5P+ojLjQn6/7Ncapo9btmvF4qr+ptxR+5XMb2ZSIuXLoj3t7Mp2Lp1RkeRab71xRew3vQrlygcN1IywVZaNBab45bJvvbIpfficeC7zggbG4jG6jQr94b22ZRrhfIuhfh9j1rGi32WiIiXA7Aqw/6ei6xuHzYgEXlFrrfH/Sj8vy9wC+LznlQniKPeu4M4bj/LdVrLI29PEvJ+0Q8De1qO28LL8sD3QsuWyqiiWRd/tMUZ5IkMruQuCgm2zWHcf66cWXBLvbumP3UMt9oGo1vxbyjH96nYedAIn+HhJceI+A2y3N24sVLpsxxGHJsmtusIhxossgmF2AfzDxsrtD3cHe66KUERkTZuquP3olWfUHQRv69UAMxBs8dk2i/Zdk6JZX7pdgYZH5Xkai9kHkfhE95oy9oPVFHl5glEriDvC3EW8oFP8bVGAx8f+2u+xuFY0arHiuVMakDBP8UfMa38I9eAM6cM6NzjBctNgUtf4AtxwVW+S6V5Wp4TzyBXCdje4+cK5f1ewyXLuc7LphmAh6+/zfe6phN5D2eZcDlNzqsVvpXFSW9428aGO/niJTcTvsgr55rj2QtLZYFzXyR8ysqzudx3X8vkA28fHyWtKZ4SaUyktHK/20HBP8W+eto2P1oR9/bdHq8sxVFRwNofVf7NAY1DnuDqvy15guYy8bncLvdO6xeNuD81h0kbjDVy/5xIRqhW5NmtvUlmxKO/Q4F/yKQUkQbug1qz+ajSXEStefFGVxTsjMJUcf2G6RgSZH8T81JxFXpsHBmBjfm2dUR06PeWrBVRMqwZJrdNIGJtpslhad/Se1nXTlzAz+krV9uGql2dOP/VQnU3OHHFcmLzEgd54rjelipSPXsjak02TOrBqfEbjcinDNg+aQQSMwpgzIrH2lPeiBzlX3IitvVVnij+afGMj0wwzdFc/hEFLNsgbhOtLIGLC9klV/Mt48VuZ+LAYRO8Bw0q+yJWgXUqoUeqvOXYY5BdLYzy19kgLjjiC1qLd6+MQG+lellP9J6QhOzr6gfYMGcdQKrJG6F/sr0AifGoQHhkLcTwWSk4U6hHyort+KlnNEKdNV/S54tLjReaGFMwN8xSvS2g9wjMPVigVH1zvc6ufrPrdfr6yzNAmya4um8uhvSU8wPQe/hcpJ63XKhcza92akGzZWvbE5UX2j0hCljnLZdL926jEfakAQemj8CWrAJcOxWPnTneCBvuLwrBzfHLx4F/F9rfbmjcWHzeN3o4JsUKuZ2Hr78RGYdnbErPokC7dpsebUfHIKC8do23jbhweC7WivTedsxodLMLegj/G4jfifzv6cxM3FEnoSgbH2UAjQL84POd6+1xPy6d1wOi0Grb7NaztcyViu91rOUhjttjR8R6/GlQcWDAUlg24prtXfrGWjQTfy5/6zxDd+H/xLGqfQbeSkDDAP3/iTQrXhesjkBErwCEvdwTEZOTcPZHZXE7F9L3Qu8WiGA1OGLr643DxXvF+3v1xuyENMhuZux5oEtgZ+C74zhtEzEtPHUcF0QW9HddPSq3PRRmcViL9/xvJ7RVp9yTht5oKz7g1oUL5TbZKBQFB5lxKxXksuXmj98pNcSstV8sTTra/j5QbmYnzLj1g9yH1sFUkhaJrOzyBOKI+KdI9+29xdmohK6N5Vgpdc1XmJGXJ97TqRPs4pB5SRiuVu/uPW4h0hyvNZcycfycD/x81WO+QBQ6HAvPrbyU31Fw0eacU9nPLcX+9zb3tJzrrtpeWrRa5UaH3fe6UFbmvNYQmTmdOC9fsV3PoibQiuucXhb674erfXdJBkbEFa6N/fXOW+SnKv7dlptl3sp5uxKq5LsrQOQJ9AfnYuFBkQcePxqBMk9Q0TR9P85vVzuijML28+o0qcgE03PRxYX96N+I7dfIkq7v1xf/EPlJsVXz8ozIfqs/Rhxojq4yb+wXq37fHMjwhfdzzZE2SXZ8KY7RK6mY4RgsEUNZNSeU4fVUsddttG4jtmYBDE462aSaVevPf7VQ3Q1OqIX1zE3bgRHbLP0EzOoKw74ZmGttD+/WHM/4dxZZi6s49uYI9H/jOJqPmIN+zppIiIty9p/Fwa4Ngl8HOa5BZ1+Rqc/diLUZRjHXDOOpREQts/Zw7Wq+PbMoDGQWeSPQz/Yi4KAi62T1lchkiMxQYIBD0wNX6yy/I2sjtruNxrYjGTi6fw66XknBjPmOTVHMyDyRKTJigfC36zxJ5E28/dFZTDP/YyOmDoxAUmEgJo9Xm0g4KpJ3nAqQujUXnRYctvQHMUSDzJVTkCSrS1ZknV39ZlfzZf7sYiq253ZC3MEMpU+L0IaZSJyWhDz53nLm1xpiv3r/rjMaif360dIRiIo7jmZhcxD0P3KmNzqKQuatw6tw4BuxMkVmXDg8A6veu/cLfGFaCk6LwmuXLtZMrBEZiUm40HY0JjiJ2lsptR/69cfs1dloNmApYvo5yyz5IKCX+IxTmThtvRt++jhOFWnxu9+LY6oWuZMjCvXiuP1dt5J1dn/GFz5uZ7BvQyauic1954dsbJmSgLPq/FJuZyMtzaAEXorvEcl0d2ojDog0m1BmvxSSKGSfEPsxIBAdbYOajwchZGg4olbuV/tmCMKdjATEJtgEfFTNAoLRRWRjPvpIZnQkA07/Tbz+XzH9XjorvZyKtFMi1fm9oARk7p3G0pmaqYzAgEjH1z7biFWb9Wj2ivitjkEuOxr8b89+aJQn9pfsZyUvHUe/E+ksoKzMeibWDOmPqOJhlSiEEtlyzBPcg0upSMkSZ7wAa00FHYJGhCN81hpL/0v7lyLo9nEkjFlo12eB8dNM6Nv7o2t5QWA7VfS5Dr9X8xtfdBbnuo3rMmEU5zqzMRuJExJQ2ed8tGnTBlFRUeoYlNdyWq3Rviu6epiQuno79HJ73dYjddYbSGFB774pT8d4pT8iVmaj+eCleKuMJsTVol041igBgTUIb6dOk7RaaE5kIVteh4vOIEdcz3y6vWCThy3AxuGWIJ9lmAHZRXZB8gibaQEYss56TVUVZSP9sEl5mf3W6ygYtAeHty3FoE466PKS1MBCIvJa6PBM/6XYc3AbIjtpgBb9sFQNlOx+vStuiHQXuGA39h8W+dGMDBzep86zHd7qJ456qgtq/fmvFqq7wQk1o951+hpEd1P7CQiYgNGdgDM5Z5TypmHfFETt9kDs/sM4fGQ/Vgz3QcEmUbAr7hyyhOlUPOKPmtB5fLi4GFumefSOw4qBOnFy7Y+eAT0xfCsweryMeTZRemZ2Nd/WmVxR0Nc+g2ccCvp2KrBOVoZ/yL4lOqPT0+oElct1lt/hG4M1r3VV+3/wx4RRMsiS4/CIojPIFSds7W+esT8Bqh1kFQRvxeHDR3F0WwwC3Y5j7hiRYbF7v8pNVjLVIXThUvRrL77QTQPvsMnopzUiO1uc2Cuyzq5+s6v5YhpahOLNxf3gLfdLQ2+ET+wHrchoZcvmL+XMry2UDi/3eWDsrsNITt2PWUN9cGnbCMzfb9mv3mNXIsLXjLTXeip30Ved6YSBsv8CbZNSzS9c+leKpUDYdwKC1MLrrYxVSP5Mh5DocLRS95kzHWMysPPQYax6OxItM2YgarxNJ5Y22voHwlMUED/JsaTqs1ni0v94PwSUX0v0gcv7zHLcWmo8qB7rhcmLQ+F5eiGi+gTg1YiNwPBIdBGzSjezMOHs6nicut0ZYYNtAi9yG3aJwfzIrmgm0p/slyJsuJj/WQ7ybY+j787g7Hci42Rbg0Vy80CX4aPRRfZXIRJws67RGPGKyFqJ7Vgc8LFq6I/f+Yk0lJFpaaZxORMffSO+/pWgygcXigqQvjQJFx7th7Aym6dVlEnp1FNmFG2bwFzYMEStDdITkxdlonHfOCya2NVuGWc0z/jhd9o8fJRtxIVPsnHLJ7Cc4Itjh5hz0FGdQyQ5yxNUijhWUuKSoPfohwm9S44VD7/RGB1gaYev8eiK6CniWlOUieOnrFd4Iz7OyIOuW+dKFT7u+3Od/V7PXohbFgpdzkL07xmAnsPFuW6UfHKYrCXqqkmZPds7hbXurqGbD6JXxcD/dgoiXhEFz75zkdtpNEJFgVZ7L50uP3Ci8Csu93qlllntonSyLjtyXB8JrxMz0H9kJTv6vB+lak5cxdVCwKtvOF5ys/Q1ptQQvu2Pfj1sr2f30CGmYM5Kx/GGst8XLwT2AJImDUfEyCFIyFIXsJG9cghGjNmOL9RxhTgGt69JFVdGA1Ln2NSSKB56i7JGAEbsdLKfv70IvfhenU1HmVR71OrzXy1Ud4MTLbzwpLgIG4y2ve96oLm8I2AQJyBxmKb/WQ9d31D4y3CoxgOdR63B0r5a6P+cLubauJiCKW8cVzptjLPJRIjLEjpHrcFh2WZNnIgOr4+G7pp4p9YLbZXFXM23MqBAtqHzbl9+ZsPlOpUo0Dv7HlfrrIOXPJf+22j3WR4e8kMM9lU3LxXga3EBefJX9r/YfCodaUZ/hKod92na9MKctdHwMaYhvTgTZMNLVjUTn237hWKdWogTqEH2SeBynV39Ztfr5CUXuGK//eDRQnyyQX5FufMfiJZeStVz+yYBBTgvCpCWfiT0yDioF/nEUHRR96vP8DWI6a3FhYPplgKnmxcC5m5FcposaB3Fqrn9oLkiLmBPtLfruNIlUzbWxIrC5+PhiCnufNGAjH2ikC7+HnhNNkEQg/rIx1PzxesEhyCORgvPJ/shao4owP9rOw5kOUkXT4gCs1hppWmH2qTDs4fst0FwuT3uT6t2Yn87NHexNB2w70dCru9l2RTCyTZs9L+RmL/3qKVg+14yXn3cJLaHFi3b2B2QuPTeFCScMKJLTJylM02FDi2fEH8KjbBtGdLsUUuatWsucl7v9HOd+aXS34zD+xUadPQXxQm1aYfSpEM2g1CfAlDx7WHC2RVTsFPpyDO6Qv3ilOv7L5D3ndjvTz9pFyQpeVpHBrbs3YpZY/3RrCLf5dYZv+shznV/W4u0DAN8Al+6z5odVG+VkSfw+pU4Vs7pxdmohOGi5Vix7ZdBHivZb01BktJRs7g+lpd+fymvNeJzlD56hNtnkJOrQ+DvxHdZiWuUt7gO6G2/2GmVfBsV+dxiZf9ebadIrDl41FIgO5yMaJ1J/BJR/PJyfU6y1b59e4wdO1YZ5OtaR+Rl4rZZn4qwG3F9H4FBFGgd80CV5mrfOW3KUKD0G+b9q4pf77zksl8WiCtAJVTRd7skH4H5VD/MWRAK3cXt2C77m7qXNF1ZSs2JZMRFhGL0ssPYGtYcxmsiTf8yCKMjfJCX/DqikjPh0TvEkme+H0V6bBef5RPwktI8xGuYKBtM6Wx52sZOJzUfXvMR867aNdku2LMQG5X+4jTQPd0ZnZ9zHJ4ss+mJ4by4uLcX2/R+r8tULWr9+a+WqcMdYnaGr584mLPPWKruK9ROobxk+8GrMDrpCbD5L8WhLQoFxQVR+SzkyfJuQS8sfb2sThtV4uSTKTK92h5+cHqDt8z5lpM9PJsrVSXL5mqdrNRpooRv/3mu17nzc6KQcj4bZ2yWs2au7CKuSntAayG/xFWjk0ufR3NLJsguwKBq0RldRaYt+1PZDk9VJLaHuOh7iXWqyDq7+s2u5us6dRWfk41c26eJKOsnLsyty5//YDwJn/8FLuTnlVRv/zpPfL8W3r+WW+Aqrtk8EtSqmUhP+N7ovL2+SdZKqGTVe3lXfNYMnLrpg7AFo9G2+CLn5NGWmyKVQEK3+eK1fHxlkdpBp60GlsJvobN0AW8E9RdHSU4mTufk4GyRDr8rzjS72h73x/PXz6ARxOcV98FQVh8KloAIHmvuchte+Og4CrVB6GJTk+lW9kIs3iCbJCzFWIfOVn06izR7IRv5NvvVGhDwtHmairW/hV869rdwW2xv9aWFGRe+Euvg5oWWpZ7GArh3C0GQ1oCPsrNx9mOxXLdAdFRrd1V0e1gCLSZ4j12KgQ4VOe7Fhb/sFftU7HfZiXAV8e7RD555x3HqO38EBFSu8ESkKCdPoPN5RoznFXd8K48VZ31KFOyZghlHTfCJWorRth01i/Ok0kG1DbNentvEka8WyMynMpGp7Yqutu9r9QyeET9E+S6V+Uv5PrX25L1+rqrM3+uEPvP4PTd1kXcM68pdQ5PcXiInV3b/HEJhGmbIfqoGqk1EnXG170TKEckH+rw8S01RyaGvk4rw8vWH7twBpCuF24q6t+82Hpmh3MHvX94jZZ2kSVlzVlLyii63S1XRQnPlOBLfWIXsS18g97wOz3h7wKP3aPQT36Y3+mNyRGelAu19yU1HyvVAhAa3sXyWWNfiGtSXUhAh+0KTtR/69kTASPlED3sF+6IQkXwVgRGhMucK/4gY5Skr9sMg52UPsR7pfxFX00rWtqIHqy6d/2paHQ5OaOA/JBy6zxPx+k49zOJEaDiShJRzHujVU/bD0BXBfT1g2BOPjbmyTwhx4ruYho1/LoDHK37i9CcUHsfc4bItWSCWbo4pfrRlsYvyOc1pKJDVpG8XIO3N17H9SmdEDlOrZ7uabyV+m2QpjNuQ1Sini5PVhO1qNTdX62QlTvpyebuAheR6nTV+4QhvlYfEOZa2lfJ50El79eJEHYiuthFX5fdYCu+2dAEh6OyWibVvqettNuLMpu047uaNQNkuv9Q6eSN0lD9MBxdioeybo8iEvE0bxTb3RrDSHtz1Orv6zS7XqX0oRvuZkPrmQmTKhrPX87Bx63HgqWAEymZf5cx/MDzwu96isHpqLd49ZRIrUIADq7ejsKW1mUNXBPT2QOF78dj3mVEplN75Vxr2HShAs56WQNit7ESs2nZG7QPhDPbNWojTv6hE1XtTHvZNGYGd33gjbM0aBCt9WVSUyKC/OxivRiUg42v198nfINfBrTOC/J1fLpt1DYR3USZ2vnMMt54IQYCsTaBwtT1ck9sjdsQIrBFprhSfYPRsaVA+U3YgeUt2LnoK6NLboZmDety2cryLI4M4cQuR8S8xXyxz6ehcJKQY4DM6vPiO47WMuYiZL9JQj6VIiO4qCv/23LuFI6RlHrbEbccFkWbvXE7Dzj/LQIZ93xLyeJDHoW3AQmZE9kX0xOT5Kcj7wfobFmJLFuA5INS+bworsR+6BGhReCQeB0R+slsP2ZGqyuX2MEG/OQKxG/RoOyYZ8x0fd6oEtYaIi65Yl7Iy6DbumApwevUIzBfbrFnvaIQU7/cq8KSlRg78Al30UeHYIaalU0yq51zlCZ4NRr9WBmxfIQoX4lgxyQ6nxXHn3zdIvVEgrm/JERixTg/v8clY49C+Xr9pMHqGzUCKzfV54duZ4iQTjlBfuYQZ2VmZ0PYMdCiE+CC4v065tm+XnVxez0T8GvE+cT0OEl98759b/u9VrudvLETaRfGp4jxTcGSuuE4b7rmpy69//WtlqH1MyF45V803mWHM3YgpizPh0X8C+pVX9fD6FSUdwGjAVfnXqfL3nbzeBfUV17ustYjPslzvZPoytOqHYPUR8RXSvh+GdTIgdXemWJuKurfvvmqwdGhuLLyq/C3NjDNrRJock4C0r9Q0aTyDjfKzxbUoJEBeU11tlypwPRvb34hC1Fa92MXHkThtB85oO6NTe5GW9yQh9bYGGnMmtu9XO2i/H8+NRvKqCfBvqo6X4o9YWYPidbG9HZhOzEXEmjx4RaxEbIBs3lyA1LipmDrFcUhy2t+LKSsFqaLsMeyPVRfop6pXe89/tc/P/ivIF3fvfqtMqK1Chq9U/h7asVz5a2X6PAXxSzciU+aqtd7o9/pbiPZTz2yyILwvHvG7s1FwXc73QudXRmPOeH94uOUhqX8UUpyUXWR75KUZc9D5UiaSFsUjLd8kTlwaaDv0QuyCaPirFyuzi/nFZNQ0LAkYvxvJg20KOrL/BpGhkM8LD1ycgTndLJPLXSdFNhbKDnp6LkXGLIcOMctdZ3UZUfhOWbYQG7MMMLtp4d07Fm+9ZjNfMOyJwJB1QOTOZIQ69JNhWe9VOCYuOqYiud7+GD1xMvp1EDk5p+tkhiEjCXOXpUIvrn+aVmL52bEIlcurXK6zq9/sar7ZgMw1cxF/WK/8Zp2f2Cavh8LH+hPKmD9z/DRl9oFtU5S/VWXM8dZ40+4aJQqA78UjeU8mLolt1OjJfhg7N7qkzbzYr/pUMX9vNi79aNmvPj1HY8JoS5X3W3kpeHfVdpz+l3izWP9WvuGImBoKb+v6yUdHqk0x7Mm29xNw7Y3+SD6tTrLjjbBNyQi2q94vqJ/Xcn4GomQSFNvv9JYE7Dv+heX3id/QzDsIr8ZGokvLsu5JGJHxuvjez8S3TNyP+XZNqsrfHrLjzYQTlte2ZJOARQN0KNwfgcnvigzJE5FYtSa0dNOW7zOxZWE8Mr404Y5Ghy7D52DsAB/7IIK6jlA/s5hc13cX4t2jebglVtX9Fz4ImPwmXu2m/v4vkxA1OcV5jZYeSy01TaQf85C+aiH2njLgjthebV+JRUykfRMGy3rKfeTQJ4J477H1a3EgJw/XxPaR6aHL4NjS62ArLxER01JxS9sPs1IcqpqXsz2uHZ2BqBXO+19RtnevAiSPmoGMHyw1aZT0YKtU2tOgUdtnEBAWg0F+upIgSVnb20421rw8A6dstqOyjS6UsZ/V5S/bfGZZaUceC7Jn9J3zAxEmA0sOZI0h6Q2Rf94QWHuvl5mZJbdO/f2rpvpoWdffh4vrPIGS4gozkThPve6LY8V/1BzEDvZRaljIO8r933J+rHjL6//AJsg7vAprd2Qjr9ByrvbqFo5Y67WoSFzbey5Ek2WHEd3J8r5iRUZkvv0G4o/kwWR2uIbJ6/49fK7L39tfpKc1C9XvFEduUx/0mv6mQ36k+vQZVj3X31Lp2Zpv2pGJAvV86j8stni/lsdsEoVvN49S/YzZKW/fKcT3i0K69fu1T/VD7EIneUlXLoq85sgUeL25TeS95IcbkDJmCJKc1KYoyZ/dy3ebYTKKXG9TraVTY2dknio5ARuPfmHJi4o06fFUECbPjoR/KzVP4HK73BtzTgL6v54Gc6vOCPrjIAx6pTPMhyMQkVwAXf85GHR9LRLF6bzX/G2I1G5E1PRU3HguEm/OEt9tsuTXS+pzuBKIuBNz4G/dDkp+Px3+27Yi/NuFCJgFxG3zxvbhG2Fo0RxKDyatB2FF/zwMkfOU95pQ8NVV6Np7QXPF5v2l+ky05P31EVuxNUwNJMqaXsNnoGDQVlG+cAguUp1WHee/6sgfVLUGDVrX/eBEnXf7OOa+shFe63e7rE5ZZzxE61RdmaPSwQmqahc2D8Hsf43GlrmBLjtTpPskjvlV/Tai1du7q6TJR02R/alYgxBlYXCCqk1uInpPv4E5R+fY12S8X9X1udXsgQUnHiKyeUDUgWcQtzkSne+7rUIdVWSWD4GCtqnNBriejaQ3c9DpjWDol6XDa7xNkEQGHN/WI/CN0fAxpmLG5Cz4Ll+BfuV1YC8YDs7A1N06RO+MLjmunAUnDodD+6kJbf184FF0BkmTEpAp+znzDMea9eH2/USoNzMNnjo0KXWs3sDVKyboioMTsobKCCy8OAwrF/eCVx06tsk1BicEBidqgNmAtMVRSLg+GvtX9lKrhdZxD9k6MThRN93K24hFsWnwjt+PVyvYFITukTjmMxKikPzjaKx5q1ed7oSSwQnnGJx4MPLe7o0oYyyOzvdHVZYrq+tzqxuDE1Tv3C7AmRwDmj/XFV6lapDIGiuyxpYWHtr6GnmqP+pzcKIO9znxEDh/HDlNJ2O3yNA/FIEJ6WFcJ6pjTMj7WwF+F7+NgYkH4cJxnBXH/Ko363ZggqimeY/YhsOvV30Aobo+l4iqWEMvdA5wFpiQNNB6eDAwQQ89Bidq0lPhiJviD93DdJ55GNeJ6hgtukyMQ/D9NlylinkyHJMn+sOTxzzRfdE0ddF3wT2qrs8lIiKqagxOEBEREREREVGNYnCCiIhIcNXfBBERERFVHwYniIiIiIiIiKhGMThBRERERERERDWKwQkiIiIiIiIiqlEMThARERERERFRjaozwQmNxl35++ONm8pfoupmTWvWtEdEVB/x+ksPWnVef5meiag2q+/ljzoTnOj07JPK3827/8ILClU7mcZkWpOsaa8qadyAm3fUESKqE+QxK4/d+obXX3qQqvv6y/RMRLVVdZ//6oKf/VeQL+7e/VaZUFudLwBef3M1zGaW6OjBkVHLt96YiHZe6oQq8m5+a/x/RUDPXwGNWTGDqNaTgYmj/wT+nxswtkPtvV5mZp5TXwH+/u3VV/eH11+qCdV1/WV6JqLarjrOf9WRP6hqDRq0rjvBCfljvzn/LfYcOIrcz7/mRYWqlTwpyIjl4JCeeKJd6yo/Pgzm1viLOEec/Q4wF6kTiajWkjUmOj4O/FFcz3Wa+hWc4PWXHqTqvv4yPRNRbVWd5z8GJ4iIiOiBqguZDyIiInqw6kpwgk/rICIiIiIiIqIaxeAEEREREREREdUoBieIiIiIiIiIqEYxOEFERERERERENYrBCSIiIiIiIiKqUQxOEBEREREREVGNYnCCiIiIiIiIiGoUgxNEREREREREVKN+9l9Bvrh791tlAhEREdVNmZnn1FdEREREpfn7t1df1S4NGrRmzQkiIiIiIiIiqlkMThARERERERFRjWKzDiIiIiIiIiKqMWzWQUREREREREQ1jsEJIiIiIiIiIqpRDE4QERERERERUY1icIKIiIiIiIiIahSDE0RERERERERUoxicICIiIiIiIqIaxeAEEREREREREdUoBieIiIiIiIiIqEYxOEFERERERERENYrBCSIiIiIiIiKqUQxOEBEREREREVGNYnCCiIiIiIiIiGoUgxNEREREREREVKMYnCAiIiIiIiKiGsXgBBERERERERHVKAYniIiIiIiIiKhG/ey/gnxx9+63yoSqkJl5Tn1FREREVPf4+7dXXxEREVF1a9CgNWtOEBEREREREVHNYnCCiIiIiIiIiGpUtTfrYLVIIiIiqguYfyEiIqoZbNZBRERERERERDWOwQkiIiIiIiIiqlEMThARERERERFRjWJwgoiIiIiIiIhqFIMTRERERERERFSjGJwgIiIiIiIiohrF4AQRERERERER1SgGJ4iIiIiIiIioRjE4QUREREREREQ1isEJIiIiIiIiIqpRDE4QERERERERUY1icKKW0B/ahwNnC2FWx3H7MnJPnoa+UB2nuuW2HnvXpiPXZv+ZL+Yj6+QFGNVxp5T9no+C2+o4kQ2z6VbJOYKIiIiI6CHC4EQVyl07BWEzjsGgjldYYQbWvXMQuVcaQ6NOgvEs1i1IxN6v1HFn/r4LYUN3IVcdReFpLJu4FlkmdRzXkT43FjNTLrBAU5aiy9gbE4tpMQswctVZFG+6+6Tfsxbr3r8Mc1N1gnD1412YtyAdeUXqBGeU/b4FWWpQQ0lTQ8sY1uZbFirTHeQsF8vdS5q8B+X+VjlU1e8ovICsk/kw1LtEfQE7Isfi5fBdyK/Mul85hplDF2DT53fUCQ/I7Ts1d94Rx/WJQ/kVOp4Nn2TgRFkBwdviczanI99FsNB86TQ2Ld+HHAaTqR7Qp23AsrQL6hgREVHV+dl/Bfni7t1vlQlVITPznPoK8Pdvr76qCndQ8H4yEtafRv51kdF2awSvjgEYNXkg/Fq5q8vUnJwlwzDz/FDsfDcYOnVaReS/E4WJJ5/H8l0j0MkanbiUjnGiENImbgdmv6hOc/TxWnSfDSw4NgF+bnLCdRyIjsK6NtPx/rSOwFf7EBb5GV7ZOA/D2tX89lFY12uRWK8X1GkoxN6xU7Cu3XR8MFP8bkcygDBxPo48OwHvjOsIrbKuVURuwxNd8MGcVtgxei00cQsxqJU6T7Dfpy5+p9Xts1gUugwXB8dj/dCW6kRRCEqZg7D1LW32VwlZsF/2oXhRdBOGwlvQNPVE84Zi/MUI7JzQQbyo4Hc7qHCa/HAD+qzNQxN1VPrJVAijLN25dcBru2YhxNMyXVI+95g6YtU9WmzHLpbXStrUY9DqlRgvf74jZf4pdaQ83UptL8N7Yjuu9cTstGj0kNuo6A5MZndo5Wsb5uu3gKaNSgJ+ZZHvv14I/d/P4sTRDBh8J2P5gJL9VluYPlyLoXNPodOcd7GgeyN1qiCDAA3d7dbTbLoDjVY95sX7us+9jPHbFyKk6XWxrYAbF7+G0aMjOrVxfl5wtn97lHcusqOmVVTsXGg2id9UeAl5F2+KsTsw5OXjogwG3P438vLV2mTqcQG0VdbD9hgtRZwv0mcvwrJPAL85i8W2sokQOpGzXKzr+wFYcmwMfNVpSmAvPgoJDSMQfT0ZiU1j8N4kb3WeE7dPY16fRJwbuhA7R7ZVJzoS6cx4C2ZNI3hY9w3VOtWXf6nllHPyaWhbNLO7DtwwFsL0YjQODW+M3MJm8P1tS+TK80NRyfne6fWgLB4BIq8zpiSvA3G97L4MJ9SxMrUbiM0b+8JLHSUioodPgwat61Zwwpi2GAOW58N7wHTMGtwOmsKvcWTbFuw4Jwr2220K9jWkwgVBWxcPYtyr+9AiVhQ4XrYpcFQ2OHF2F8KWn1Zn3MTVK7JgphZwpVbBWJYQVKmgSbW4l+CELLC8n4xJy0/B1CYYSxKHopNWnVUOSzCgAnd33JqiU8dfwtjwJSyOC7DbRvb7tGIBAiXYdOyX6OCpR/55dWKZWmLUlngMa6OOKtsnA3620xRnsSxoGS5MWoPVfRwKW/LO+NR0XJSvb1+DQQbuXOhht/0F8y0YRYFW4SYLT6JwtnY+ZqY1xrAVMRjVwSZtFlO3RxuboIRK2fYbWmJBmkibzo5L27RbRrCprGCOUpjMt8moqmlKr8y11Q1LPphgU+AE9NvnYP4RWQiWzLhRKArGRVCCQe2f9cEzPh1EWvBBp6eaug5qPEgmkYF/VWTgy2gTpHlqKNYnBasZd3W/lJyGixUHvTza4pXhr2LY8+UX3C0shQfzvM1Y8JLrQrX5uh47pi7Ajnal04UzyjF2shF0Hq3Q/ret0MTDC76/aiZW4xQS155Fkz4jxPn+eXi1qECgyaTHphjx3edaIiRhPl7r6Czd2rqO9KlRWGbuiyXDW6Hg09O42HoopvfxFN+fgWlDD8JnXl8YDl5Hv0V90UH+ACWYJc6v2qbQ2vygnOUjxXp0xKhJ3jBlnUb6J3cwbMtCDGqhLqBux5x+83DIWaDjej42LdyCvFoaHKsv6ndwovQ5WTk+i6Kx2fsgRh7topx3r6jTKnJ8K4qu48TCWVj0YWOELBLH5fO2x6XluDg3Jh6bbYL5tpTfcI7BCSKih10dC06IDHekyHCbHS9Qd2C+7Q6Nw13TmlDp4ETRZeyIjMUmkZG2K6BK5QUnnN117h6AkPw85CgjluCEWWSedWruuc3gWVgiM9w17Z6CExbm8+mYGrkL+dqOmL5iOoLtCu/C7dPYlOqJUUPLunNZWtbCYZj3SRBWHxoBZzf4KxucMH+yAUNnZMDocJeneDrcEbJisyg0qTMclQpOWDJuWbaBJuUucrOSNCP7qfjk39A+1Q7Nld3tLspNoiAnMphO06QoXJmLxDFTVknPLJu6zMa66wFYkjgCvmWWXx2DE05+q8KSHv1s0/I9ByfUwqSHk4yxWmg0y/X3KKMge/sWjLdlEEZdxml6rE63UHAyA3keQQh+1lrQd3EOU2oOxWJdYTcs2TIBvraBucJjmBi6FT+El3HHXp3fvIKBBaduX8CmiXOQ1aPswkNxWpCnfrmvZNMleYd0+1BoTx7Auj0ZyL0oC/RtMShuFsa7ChpcFPtl9AG0mJaABS9XJIAiFJ7CvMi1yHLrhtmrJ6BHWac7Z8Esea5s8yQ6tWuJTgND0EOtUWI8d0GcPNvCwzYxyWCgOA/lOAYBtSI9mcQ6tu+CkB5d0KmjN3zaedoEMCzHx8VxK7E+1PmPUwKbh1ph+q5ZCK4Fp+v6qH4HJ05B6+mJJjbnZGvNiXsOTsiA4ezF2PFVW4xfPQuD2juehxicICIiCxmcqEN9TjRDc5lZu3gBedctUyzsM/WmcxlYFxOLPi8PQ/fuw/ByeCL25svqwBaywNN97EHknNyKcX2sy2xFjshU5qckIkx530iEzc1AQXHfAPLiKS6O649h0cSxeFm87h40FuOWnLJZxhnxmYfWFn9P9z6xmJeit7SDLrqFrPhF2GTNB8mq13IZ66Bmnk/MtZkmhpG7LgMvTMAHH+zA6n4yg98FC97fITIJY/DarpXYqQyiMCfm9Ihdo46vrNnAhCwMOK7XbNv1Ugs1x5aVTFtyVnmrLU27YKzeLguq12AUBVFH+p27sGNzOrIq3NBdLwr14s8L/+s0MFGsjMJzKaJANWl2BoyOy4tC06L4DCCoL4Jb3EHeV2rDdJFpO3DorHLnXskYijQ1YOoB8atkcCAKfYLk/i5QFvWbZt23YlgRArv7rg1FgeqljvBu0RQeHnKwBCbK5FZOYEL+1vBY7G04FJvfLS8wUTa736oMlvRYmihMinUsSQf2g/NaLz/gyhXA61dO6vWL9dJa11+dVErDRiXbSJ1U3cz5BzFtdCLSld1+B7n7d2HZ5o9KOka9fRqLeg3DuBRxbDuSgaKps8XxITL2KxwCE4L+cDry4Ykefs4DcvqDYr5HEEJfdB6YMJ3Tu+x8NX+DKFicBwr0l8rpQ8ITIQnv4v1j4lx0bDp6iCmderVH1sQoTNp3ByFxa8T0eIxqcQF712e46HukEHsXivPEC68ipoKBCdMnWzFy6FrktR+BzeIcUWZgQmoVjPXi/CnPoR9sGagUdnrMFOfK1dGYPm1gcWBC8mjvEJiQWgRhSepmy/tth0NrsCCoEcy3W6LHgG7wfco2MFExHUaGiWMlHzsPsz0/1YRuiFHO2SPQ4UohOkxYiUNK/qJL5c+X5lswfLwLIwcswF4EY/kuZ4EJIiIie3UoOOGOHmOGikLZaSwbEIVpazOgN5YuoBo+OQXDc69iS6q4oL4fj2Ha01i3JM3+Ltm5fZi59iZeSRAX4RV94SXvhPUbi6mnPPFa0hpsju2Inz7cgLfft4uCICf1GJqHJeDQB5vxXkKAKEyvFb+jdGVyK8N7izHxncvwFRnz9+V74rrgyoYFmJd2Hea/70LCB0DwGLUq9ouWgEPxsF2uq6Wdt+30kjsLF5D9sQy6nEZC/Glk2XVGuBZZYs6J+CibaTYdZz5otoUB63otsl2vlRgvb1AFTS+ZVlYNCs9uWJCysFQfGiZRuJ+5qxDeI0OcNyNw5uwpHDeJwnQ3H3VCaWYZOGjTskI1YZSCXvuBWDDcpqCo3s3N7TAG74iCj9+zosCYmwfTdZGORy/A2/s/Q5611742vbBcCTy0xKCE+WId1elCluzY0rovlQBGOQpP4+3IsUoBv8LtgAVZM2Vi+FqcKHQXBWpR2JOBupfHYuKqDBRUpGdBld1vVQZLeixN9idhmw7sh53jnBW4r8FwBdBoKpvJlXf2SwdAnAfLLMO4FPveDeXdO8dlHIdFH6sL29C0awntxdM4+IH8vKYI7ttFpL2TyLR+/Fd6cWw2gk8H+7uGpvx0zAyPxbpLPpi+cSEGlaopdBZ7U8WHvDhQZPrVabYuHsQycUzA9BFm9BK/L2is2unrHXGeTMei0SPRZ+xibFLOI2VRzzMy2PW5HiX3lEvTqLV15PrIrlpzt++DoecsvLdxBPxkgd+tJbxlmi43oCucy8DBc54YFtYNFWi9hYK0ZXh1xjFoQudhy9IgeFWiFGX8PA8F6IBOT8mxQhyILr1PX17lquNZK3f4DgyC7tJB7Piw9LVJekRsH/23l9QxJ7TdENxdXDtSTyLX1XYiqs3+vgVhszPgMWYhDq0YiE4eDEwQEZFrdetpHW1EIfe9eXit+6PQp27AuAEicx25tfjJBpL30FlYENoBHrI2haalksHFpc+QKwo0JbpgwfYJCHnKE7qOIRgkq3O3GYj1K4bCt11TeL0s73CLzPWX9h0GeI+MwfgXZFt0d3h0HIpRQSJze+ik2pTCQdFZbFp/AR0mxWBUR+t7LN+VeyIXpucH4p2kBEx/qdm93cEVhZsDyjqJzz6bjMzfLMI7Myfgne0ld6r9pq1S7lyvXxSB+UlD0Uku/jC6mI5pc0/B+NRQzAotq9q5o1s4sf8YTNoghJRxV1kWVgxKRw4Vo31pAt5b0RftlR1qxpWTG5S7uVlGoPnTT0InpnfyFQXTT7ZiQGgi8p6Pxs4K1k4ot+aEnQvYNDURx1tF4NCxzVgtq4+fF4VKF3fHTfn7MGnsLuQ37YhhSxdh13syQLAZ7yUOhO5jsR6vbkCOi8+wqnjNiXtgvKbUOGjTqrI1gTwx6N3SAZAPkvpCJ+YNSyo9z7Hqve9M2/mW2gHe41baTCujaUjDLkqBU384QwmEaF7oAj/NNVy5aCnA5mZ8JNLh7+DnUH1H274j/F4egdVbnDRhEvQ7t+KEqYxCvOyjYuo+6DXeYn8m4L20HTi09HcwH1qGAS/LmmHHYJZVtdM223eu6Ug9z/QIDYbOeAzpsqZReYpE+lt4EAY0Qo95CVgS6m3z267jqjxXtxHnXcsEp4xf6cX7veFdoRr1+Tj4zlkYxfl71hjb76qIO8jNyQfEdu7kIcc9EbzIoUaEOIbeE59bYe1DMP4lIGuDswBiK7SRwRkXNbt8A8Q1y/QRsioaEyGqMrI2m8hXqQFlGWgeIGt+jj5YbmCybM3Q6fm25dfkUxVsiC0VGLQOlQmyExFR3Vb3HiXa1BshMxfiUNoarI8NQvPzxzBv6GK1yrR0R2RuM0QGeTFGho5Fn4VqJ5F2d6Fsq7WrvfzLqu7FF9DG0MpcrotMZJtftVUy4wXOboRduYyL4jvzV0XZXGRHYpF8IoPpFn5CU3i1d9VZW1ksBes2z8pMsw9GTegIs/FrpL+zAK8uOV38+LycT/NgFgX3GZGLsSztsqvVqUGXcPG8KOg5q6rvgixUjxu9C/pWQVieEAyvCmSCJNPHW5Ak9oV3WDA6lfkeUYCUTQi8fqmOOyH7A4iMwiLl7rKalqTCDCQsyUWLMWMwyKYGhFIwFWm0/fB4rJ/WRQlYWGY0g+52BqZFyjv5slnHYhwUBU+PhpbAiV0tmPJqTlzKR45Ij749ukArfk+H34g0UnQaOZ+r852Q23Ba9EFc/a2sEj8do55vqVZHd4fHU0GYvXoMOl0Xx9QhmyignTswnT+Lve99qgQO7GvslFdz4h7cvmVJ38azOPFJeXf8K8Z4ThaEPdGimls9+fbuC6+m15X0hIbdsOD9lRj/W7FvRTrZkXYLun4vlU6HmpYIHhmEDk5K3MU1hcbEYJRy19+GTJMxy3DieluMf3eeEhzFldPYtNbSnKJ9mDx/rsSCkR3hVVY/F4o7yDooA3gBCBzeDT1a3UH64VPlnEfuIGdVAnYo58NfwrvU+c3SJEfnYmP/JPttECpSoAE6oO8Yb2guijS88BSMlaltcPssMj8Wv+eFDsXBkuInnFjJY9rJkzUMhzZg3qpTsDS6slCaDL4chcS/i5FLB7G3VO2JZmguO8cstATYLK6j4LxDOn6qAzqJc3zu506a+RBVuy6Ikc0nxSsZaH4nzHmTsarmNSbePjBoMywJUhciIqKHXt0LTlhpmsL7ZVGYWhoEbVG+KKjIJhi3kLN8MgbM/hTo+Sre2f4uDs2rQIdN98hcpGbTnWWiGzZS7uL5zXHSNrkyT/Nw5vN9SPq4C/q9YsnkN3lpAhb06Yhhc4ZCd3IfDqgVPsxpazFg4i5cCYrG8tCWD6yNfbkatoRfrwB0si2fXLoMvShUtPBspk6ogKJbyN+8QKzfQRR06IvVq0dU6AkeCtuaFgPKKSipzT7atyujNobSA/kirDv3KLxbORTEPHti+ftrsCTUBx626UPeRQ9qhPzDH9kVbPDbodi5az5GqXeLTU0DsHjLSizvZ/nuHjb9h5Rbc6JFW/iI7ZCbcRomsY1yMvLUGWUoPIZ50Qehbz8UyxeVUSXe83cIfgHQ5+SphSoZADyNvcuTsVemtU8OYN6Ra+j0Ygclzdv91nJrTtxLnxMWhqMHsejwWVFQLsTeyGEYsOFe2uhfR+bRfODZLuiq3DmvRs8OxObVY+BX/OQG6Ray1u9CrtjXrw2ueAFACSaJ9Gt6toyaQm6e8A3ogpC4WUpTEBnIGBq+FrliPWXlDF37thV7HO9XB7DupCj+D+8LX01bDBsjzqUfbsG60t3BKEwfJyMh7Q56dC+jSVZRodIkp4XuUXWCc7p2clvokVvBmgNeA+bhPXEdaHJSnu/2Ib+CTZDMn5xCVlFJfx3GTw5imUPAoSzn/pGh1IiyPY/rQhfig9RVeHdLPJYvjUd0qRpZ7mjTRpxvPs9XzneKSx9h8djF2Gsb4PYQx7BIJwUF/1YnEFU/w0UGw4iIqObVqeCE8XN96TtjDRuVPJPb+An2pl1Hj8m2d3+ry3Xk5oiLudYbz9gVOFQyg9kKyJKFRHVSVTFeFDnZXkHwc2wO0CYI8+O6IG/PceUOqYeHO0wewVgySd5FtyxS4zw6Yti0MQi2qbKtP3IMercuCHyh9B3KUszXoX9/K8b1G4uJu/6NTuNEwWTFQKd3l51ROs6TNS08ArCk3JoWJc0+gp9XJ9m6fhbrxk7Gog8fxbBESyGwYtzhOzwE3ldEQcihTwPThzuxTqnh4Alvt6Pid25Frpp4Klxzwq0DRi0dCp/8tegTNBYzP5BBuw7oUFYVec8gvBY7wlLrpOgyDsydYunw9eUpmLZZ7azTWrvotqzxI91C9s5dyDR3RPTqNXg/VRTGJgTAW33UY8VrTtxDnxNq0C9fnAv8RAFcI2vdnAOaN2lsmV8JBSkJePvzRugxOADVHZso7Q4Kdi3GvA/c0WPaUPiWW4NBJQNyKcvwqhKQG4r1K8pKv+7wCo3Gay80UmpmzJt7Cs3HLcLmyd0qHhSVtS9WHYShVTAmqJ3pal4aivFP3RJpROxPx5Pa9QwsEt+DoAmI7lFGjbArhcrjbmWHpArTZRTYd+tj8duXEOJRKL5/V4UDDdrnR2C9bCJVeBATX12GdJfNsa4jff9poFU3+KnHhj5rH9Lzr1UgiKs299K4l15W6XC1JTrJ6486yZa3b0doi04hXa1Vkb9f9ofkCZ1dAmwsTpPdML6nTZUromr2w7//DbRrWebTMNr0mYX3asPjyImI6KFWd4IThcewaOoCDBi6GOvevwCD8ToMX2Vg2RKRgfbohkEvlZTU8/P0SkeG5ounsWy9wyM374P+yEFkyXbispCwQRZsRGZzeLD9kx7kYxqVF20xaKS805iMGZvzYZQTb19GTko6csqqHV9BHi/HYMu4DnYZY/Ml2QmiKBQuOA1dtw5oLqZ1mjQZw4rSMW1GOgpqaZsO04eW6um60L7wK6OAZjZeQM6xdCyTT2HpFYVx8RkwvzACq9+TNRO8KxB4kc0OTmPd1Cj0mXEMN347FKs3jin15ANbBSmLlSY4ncaFlK5u//dkDBiwDHtNXTB710KM6uC6ec4N/VmcSNmFeRPFb5h7E4PGtIV+/XxLcxBJ1uZYcBa+Ij15icKlX+xsjNd+gvSzT2K2LKwfsqmNkPKuKLw7PHrWhrZDMBZs34wPtlg6H/XoFYzAckrfXkFBSq0T/U6Rps91wYr3d+D9pACYdi3DtPdEYjWdxnFZ/f15a/X3pgiOW4nVM4Ph91RTm+r3HTE7dR7Gd/wl2g+MxuZdizA7yBOPPh+BzeIzSz0S9154NFMDCR3g21EGs8R4C/HbMzKQa9tBrnxk6Pl85Kr9OtizFPKnrb8AD1mYrkhQrCqZL+PA7MkYueEH+M1ZjNkyiFAecU4p+GQf5r0ahYnr89AiXAbkKtaEyfjJKeQWdcMopYZFOwyaF+2880xbxTWC2mJU3EB0KD7ReGJQ3AT4aU5h3lSHwEHTTvDrHoSYSaLwrU4qRf29F89dUNZn5qux2OGsuZGbN15bMRQdxDExcUAs3j6UjwLHx3Y6oWkXhCUboxHsdhbLRov3nS2n2c+5o9gnvrvDwJ7FtZA8PDyB86dw4iv5OFqVWaQjo824whN+PdpCHGCY9/5lmGxnyuWvXEC+03QnPBuMYWL7Z72TiE2bEzE39bqTc58nQmInYNBvK9AZDVGVKMQXn9+Cd/u2dvmK3PWxmLTzErTtWqK5Enh7cE85IiKi+uln/xXki7t3v1UmVIVqe074dT0OrN2FHR/rYZQZY7dG8OoYgFGxQ+Gn1s4vSEvErHdOwyAyjNqnRKa8dzMcXJ6PV7YvxKBWlnbBYetbYskHE+BreYvlGdrnh2JncXML9Zn97aarT42wPIc7v2M3tCg8jdxLIuOpbYseEyYg5uWS5hLmT7Zi6OxjQD9ReJhgyfIaP9yKucszkC8z105+r+WZ+xnwEwXJgleX4YQ6uSzy6R3FhTz5+MnZwIJd3jgQvgvGXhMwf1wXeDW0/F7IZTvKjPoypF8XBemUaPSoJfldGXA4vm2tKHhcVjqSfHdON/vmD7YuHsS40Wm4+pQPgnsGoUdQBxdt5W2Y9Vg3dgH2XhSFl1YdEDImAqNe8iw3g2U8mYixC04rTw/ZIvZ/SWHrMnaIQs+mi03hO2YyZg9wHhhR0tjRLlgy+ALWbchDQeEtaJq2hM9vu8CvZxf4PtUKOu0dZMXHYN6xO/CdOQ0+e97EgfbR2BJWiGmvyvRQEnwwfrgB0xbkwicuAa81PICRM87CN24+Xnu+jEKtDILt2YWEXWdhbD8Um1dXrCCr3zwF43Z54rWNMQhp4w79BjF+yF1s68sogCj4bRlR5h1+88WzOLDzPez44BKadx+KmAlB6CDTmjhm98avwrpPGiN4Tgxes257Je1WJHAoa1eIAnHx71ePzSKbZ97Lp5Ms2IXj5wrtCoryef0+YbMcHqN7B/rtCzBp8yW0D5+FpSMr2IliJX6v7bnFjtwvhw5g3WbZdMAbw1bEuA5smcX6zhDre9YduhcHYvrkoMr1eq/87jwl2DU7SJyr1O1oNl2HyfQD9NcfFenR5qRg0mPT7MXYIWuUiPQ2+0Unv08GDWTnqVpxTkkS5xTbzSsp33kZ49VzbolbyFk1G/MOFcKsbQm/sAjElHEMKcT2ytq8BesO5Svnczw7Au8lBrmu5SLXIWYBdnzVVAn+LOjueNITx97CkZh3sgsWHIouCQwUXcaJ+GQkWa8vCndoWwSJc6xjh8K3UPD+Aby9LwN5522CF+Ic7+HZGN6DHdOdDfm43qnJOCGuIx4vjMHyuIAK95VD1a/a8i+1WeExTAxNxzOJizBMHLOapl8jIUjNQzgJKit5pqJo5RGjZVLOAxcwyuZa5pwlv+Iq74N2Nud8IiJ6KDVo0LqOBSdqjOXieXHcylI9+N8341ns2KyH9/CB8K3sRysXfyiFN9/bd5TO3CzBlwvy9jnGr1abGxTdgv7cTXg9VX6h/EGSNSZejb8M/2nRGO8iWHDfCvXINbWCT7uK3vW5A8NXl9DEWdv8wgvQa9rCu5wgj2y7vinPC2G9G+Pcpcbwae8JDyed6ilV+9//CDe7B6DNpQu40aotdIXWYFU8QswZ2LR8Fw6cb4aQmTHF20k2TZk0+xjMvWZh/WRLPw/FTNZglCf8Rk4ov/DnqOg6stavwab389VHh8qCWVv49u2LUf06lnTe6YTpbDrW5TZC396/g7dn6XU1frgPe40+GPRyB3jIz7FJuyWBB3vWQKLjMvq0DThofA6jwjvec3MMszxe1M5GHxSlr4gZp6B9eSimj7HpDNWVojswmW06W62UW8g/tAVrd55FfqFtTQK5b5vBx7YQXZiBmaM3IMfsjWEJMRj1bDmBE1nAnigfO9uydOFDHCNZ+dfQomPHco+TypDBFLNb04pvAyVAsQr6V2ZjQR9n/e2IbXpdnCabPuBaM1Tr1cfghPlSBhYtvIzQ1UPRQTnX2tzgKA5O3EHWAhnUs4x1mrwSyx0DcMrNFsvjmZVzTIdgLJXNLss911m+69yYeJtHpdvLXTsFy84HYxmblRARPdQYnKiwagxOENm6fRm5n/wbHr/tCC9NIXLP3oTXs20tj8a1dfEUDlzyQbDyaFsH5juiIGf79BmiijGdv4CrLdpWrGaSDHqevwPv9lUUgSCqBeplzYlS7sBkvAU0dAgIyuZyt+8AmkZlBNyJiIjunQxO1N2ndRA9jBq2RKeXOsJLVofQeCrPiC8VmJDadEOIs8CEJDvqY2CC7oG2XQUDE5JbIwYmiB5K7tB6OKmppPQ70ZSBCSIiqjasOUFEREQk1Mf8i7xT9c35b7HnwFHkfv41zGbXHdASPaw0Gnd0evZJDA7piSfata7S8pHE461mVff+pfvDZh1EREREqvqYfzlfALz+5moWkohsyELsW29MRLsq7oWVx1vtUF37l+4PgxNEREREqvqYf1mSeBQ5f89DD/8uGDnkj/hFk8bqHKL658cbN7F5919wIvM0fH/rg5nRPdU5VYPHW82q7v1L94d9ThARERHVY7JqucSCEhGUY0AeC5L12KhKPN5qVnXvX7p/DE4QERER1VPW6uUsKBFZWI+F6mh6weOt5lXn/qX7x+AEEREREREREdUoBieIiIiIiOih8vrrr+P3v/+900HOo7qN+/fhxOAEEREREREVy3u7NwIWZ6tjVae6PteZyZMn4+TJk8jIyLAb5DQ5j+o27t+HE4MTREREREQ1yWxA5pqpGNE7AAEBAejZNwpJOSZ1pqowE4njROFezA/oOQRz9+TBdgnT56lYOKE3esr5PXpjxBupKDCrMwUlMCDn2Q0LUTpUkIfjR03w79bZMlpkRObKCPTuIZfviSFvpCDP5ovv9XNd/V6YC5C2uOR7e09YiLTztguUT6fTOS2kymlyXq0htm/e0RQsVPftwlPqdIUBKWNst6vtEIGUK+piDkz5KZgb1tOyXO8IJGYZ1TkqF2mpFBdpwOX8alBn9i9VCoMTREREREQ1pgApk0QBMUeH0euPIuPofszxFYXSWXORVqguUqTHxslzkYpQbD2agcNv+OCLdVGIP2EpAZpzEjB40naY/N/C/hMZOLo+FJpTiZiyLk+ZL90wiWVbhCPZ7k7zHHRV5xf7KhvZJn/4+2qUUf2mKMw9DIRuEL/t4Bz45CUh6q3jxYXZe/lc17/XjMzFI5DwqQ6R28T3HklG5C/PIGFSPLJvq4tUQFmF11rl+tc484+LeKRJE3WCLZ3Y7rbbVQyH4xCoBTz6T0ZoC3UxW6bjiJ+UhC985uDwiaPYOgRIfSMKG79S57tIS864SgOu5leXOrF/qVIYnCAiIiIiqjFeCH3nMA5viIF/Kw2g8YD/lAnwLzqDEznqHe/8dKRe0iF8aji8xCJav1hM8AMyD5+EXELjG4P9h/dg6WAfaN3EePtwxA7WwXj0OErCE4JWC1GuLZf+o+MwdPJF54ZyLA/pBw3QDY5FeDvxxU39ERvlD2Sl46TtzfhKfq7r33sGmRliy/xpNHrJbdLQC71G9YOXKHhn/UNZoELatGmDqKgodQzKazmtVvHoivDpMYjp76NOKF/eplU4rumHN6OcL2/MSEdmkT8mTPEX21YDrzCx71oYkPpXNSW4SEuluUoDFUwj1aBO7F+qFAYniIiIiIhqkkYU7kW5rlhDLeToDdNPyqgh7wuY4AOfp5RRQQMfH28gNxdfW6fYfYAodDbRAqYbuKGMGVDwT/FHTHtEGS+LAWdOGdC5xwvwkKOXvsAXJli+S6V52gfeOIPcL+XYPX6uUP7vbQ5dK6DgS33J3ffbZpihg0dzdbyCbO+k1/m76oWpWLvfiM6jwuHjZplkPDIDPQN6YsYRSyTg63+cAdqLtKIElyRv+PxGbNp/fCH2QgXSUlEekgYGIGBgEvKKxLirNOAyjVSvh2r/EoMTRERERES1yld5yIMWz/hY2s4X/FMvCpze8FLGLHRt5FgBCi5Zxu2ZkZcn3tOpE55UpyjykjBc6RcgAL3HOenD4VImjp/zgZ+vGkIo0EMvipnetl/cykv5HQUXZVFXVdnPLcXx93ojNCoQHlkLMXxWCs4U6pGyYjt+6hmN0PbKAhXWvn17jB07Vhnk67pM/5e9yHMLxKBXSrbjT7ct4RwLNVj0Ky/Y9rrg9Stv4JxepJYKpCXzDbE3bLhKAxVNI9XkYdq/xOAEEREREVEtYkb2n1Nh0AbBr4M6qbIupSIlC/AJsNZU0CFoRDjCZ63B/qMZOLp/KYJuH0fCmIXItOnDwfhpJvTt/dHVU53gUhV9bqnfC2i9/dG5ldga/9iIqQMjkFQYiMnju7psPuKMvKNe9++q65F5VBT2ewSiq1prQtL1X4OjGUex1CZgcV8adkX0vgxk7Issrp1R2z0c+5ckBieIiIiIiGoJ06l4xB81ofP4cHS+l8JhUQFS4pKg9+iHCb1LCqwefqMxOsALGtnHg4cogE7pB21RJo6fst4nN+LjjDzounW2u+vuyn1/rrPfezsbCePmoiB4Kw4fPoqj22IQ6HYcc8ckVKpDTKtf//rXylCnXTmD7CtA59/Y1YUh4aHYv6RgcIKIiIiIqDa4mIIpbxyH0W8O4mwCC7bV8q0MF+WYF7xaWcYtTMh+awqSvtIhfEl0+Xe+f9lCCRYYCq9axm+fQU6uDoG/K+k7AF7e8IYeetsvvlSg/A6vNmWEMCryucWc/17zqXSkGf0R2t/SVkDTphfmrBXzjWlILw561DP/lM0ntPDyKq+GhE6kFfHnnwVK/xJWtk05Kp6WVK7SwL2kEaIyMDhBREREVE9pNO7K3x9v3FT+Ug0yZWPhZFmDoBeWvh5o13xB5/OMGM9DnvVxkGX0KVGwZwpmHDXBJ2opRhd3eCgUmWF2KNOb9XmiSFlSgDSfykSmtiu62r6v1TN4RvwQ5btU5i/l+zqj09Ni5F4/V1XW771qdNJXgUdzS9DDqAY9qon1WLAeG1Xpfo43SwBBhxYuWm88+ZvOwDmRVoprmOiR9w9A+5tnlO1X0bRUzFUacDW/lqnO/Uv3j8EJIiIionqq07OW4sjm3X9hgKImFR7H3OEzcByBWLo5Bl0dO1Z4Nhj9WhmwfcV2FJgBU1Y81mYB/n2D1D4aTMhLjsCIdXp4j0/GmoG2vROK4ummwegZNgMpuUals0PzxTQsfDtTFCzDEeorlzAjOysT2p6BsH9ApQ+C++tg2BOP7bKTy+uZiF8j3hcQgiDxxff+ueX/Xp34/M5umVj7VhoKZCHbbMSZTdtx3M0bgd2q7268PAbksSBZj42qdD/Hm7lIbmEv6FpYxq0M+yKUjkgj9lkCOh49QuAvt93KTJjEewp2in13RYd+weoecJWWZJOa/gEI6G9tQlN+GnA9v/ao7v1L9+9n/xXki7t3v1UmVIXMzHPqK5HQ/dlrKhEREdV+9TH/cr4AeP3N1TCb76hTiEjeVX/rjYloZx8zuW883mqH6tq/dH8aNGjNmhNERERE9dUT7VormXTf3/qwmjPVe/IYkMeCPCbksVHVeLzVrOrev3T/6m3NCRmZ+eb8t9hz4ChyP/+aEcw6Tp5sZPWswSE9lZNNVaZnqball+pe39qOxy89SPXt/FLV6tL5ijU/iYiIaobMD9Xb4ASrVT2cZCa4Oqpp1db0Ul3rW9vx+KWaUN/OL1WtLpyvGJwgIiKqGfU6OLEk8Shy/p6HHv5dMHLIH/GLJo3VOVQXWTu4OZF5WqmuNTO6pzqnatS29FLd61vb8filB6m+nV+qWl06XzE4QUREVDNkcKLe9jkhq85KLNg8HOQ+lPtSsu7bqlTb0kt1r29tx+OXHqT6dn6pavX9fEVEREQVU2+DE9bqsyzYPDys+7I6qkbXxvRSnetb2/H4pQetvp1fqlp9Pl8RERFRxfBpHURERHRPbt6s3HP6iYiIiMrC4AQRERFV2tWrV9G1a1flLxEREdH9YnCCiIiIKm3w4MH44osvlL9ERERE96tOBicOffETfpdoRKeEqxUa5LLyPffHiOxtCUhYlga9OuX+GJD6+hAMGZyEM+oUovt3BybjdZjM6qgNs+k6jKb62t77Po7fS6lYuDgF2ZecbNQymC9mI+XgGZjUcaKHzfDhw3H8+HHltfwrx+/NdehPnoa+UB0lIiKieqtOBifeOnETt8zKE1ArRC4r33N/fkJBZhrSDueiqiqwmq8aYLhyFRUv8hC5kofEAVFI/EQdtZH7ThQGrDqrjtU393786v+6F8ePpiDHqFGnOGE2wfBVNlI3zUVU357oOXwGklbOxZRteTy+6aETGxuL7du3q2MWclxOr7zz2LsgEXu/UkeJiIio3qqTwYnKBCas7uU9RDXDDNMVPdLWTMWQngEICIhAyiV1VrUpxN6xw9C9u+th5K7L6nvqgdvZSNlvAPwmYPSzgPHzMzCo0QbDnigMGTkCQ/r2REDP3hgybgYSt2UiT+uP6JVbcfjoYSQP90E5IQ2iB6jqzivx8fH473//W2qQ0yumEAdmTEHYUDmsRZaYciI+Sh2fgnWp6RhX6twTix3nLe8mIiKih9ND3eeEj66R+qomGKHPyERmmUM29EqdbwNync4vGVjdtX6Rhd7egyOQsK+kIHxPLtln8GceE9M+SLTP7F+0LGrlNSYeH3ywo4xhOnqoy9UHpvN6ZO/biOMmb4yOCIS2MA0LJ4uC3bRUcdRKZhjOF8DjlTlYun439h+OQ6Cc7BOIfp28oGVUolZ6/fXX8fvf/97pIOc9rKrsvFIlPBGyNAajnvfBwHnv4n15fjk0GT08PPHKzHiMf14u0xKjtljOPevDPYFWXeDbRnkzERERPaR+9l95u0O4e/dbZUJVyMw8p74C/P3bq6+qjuxHwhUZmFg9oB1eP1SATwosLb9zY5orf6WQ4SuVv4d2LFf+SsavMvGFpdThxFVkrkvE8Ss+CJ0fCh91ailaL3R9zgsaZGNhwAxYWuTen8DFGZjTTR2hcvUZNk35e2DbFOVvVXGWXqrNbROMt2Xp4QxW9V+ITHgjcmcyQltZZtsqXt8lT2Fc+C6H/hRk5j4ew3AKe/NbIjioLbS4jtz3PoKpezD8RH6/hKw5MQVHAuKxeWhLdZqjs1jUfRnOjSlvmQej2o9fszh+e4vjV+wGXVgydkd4IXtxf8w4oUPkNsu+MOyJwJB1epvjUz3mey5FxqyuysdR7WMwGNCqVSvlTr+tn/3sZ7h06RJ0Op06pbQ6fX6pxHmluthvvzs4MXckEjxm4f3JHYDPt6JP9AWMSpmHEHO6OJ9lwE+evzxPY16fRJgmrcTyPnYnrWpR3fkXIiIicq5Bg9YPZ3DCGphYlWHAwc+N6lTXwYnsxQGYcVQduVftI7F7Qyjss7dGpE7qj8TPdQjfsBujy9oktzMxt/dckWkMxNKjc9DVTZ1OFfZQBCeKWQNcFQhOWNf3q30IizyIDnE7MPtFOeE60qdGYRlGYGdCEHRut5CzJAYzP/bBgl0T4KdV3iVYghPrSg7dMsnaFbUxOFHlx+/FNMyYnIBsz0hsHX8FU6akovn4rUge7KUsWjo4kYfE3lFI7cbgRG03depUrFxpSUNWU6ZMwYoVK9Qx5x6O84vr80p1cdx+hkPLMCuvG5bP7IYb7y3ALH0w1s/sAq2s9aUGJ4LPLsCAbW2xfNcIdHoAtZEYnCAiIqoZMjhR55t1BD3VVH1lUVZgoiK6zspARoaT4chSBBYX4iSZqXOynBxKBSYkD/T6k7/4a0DqX8p+NofxaAoyiwBt72AGJuieGM5+pjQ5yMk6q3TEWJCSgGWft8X4yTIwIZdoBN/Y2Rjf6hTmzT4GxyOkLjfrqPLjt00vLF0VCe9zSRgxJRXGpyIxx+9qOc2sPNCihfhTVON15smFyZMnq69KOJtG1eTjtUrTsrBVZ1FwbC0GiNcj1+phOJaIPvL15guW5W7nY8c2PbxefumBBCaIiIioZtXp4MTzXlos6t2mOEBxP4GJ8uh3JOK43TMB9di+KbNSjwnU+IWgnyggmQ4fcPgsVVEetm/NEy+8ET6os2UaUaVcwJHDlky9SWT4572zFrM2mNHhqR+waXm6pZ+EorNY9PJs5DwbBO/zx5BegZoSdd19Hb9teiHcT5SK3DojZrYX9k6aiog5KSgoUuc7U2BQ+6Sg2qpNmzaIiopSx6C8ltPoAXlhgpPgZ8mweWRby3INO2BUXF9oUhKxiU/zICIieujV6eCE7Eti4nvnlQDFqK6/rJbABC6mIH6PKGq0D0SgUsPTH4E9tTCdWIVVpyoRnhCFm/DxnUXhMBNrN8kghD3DvlVIFT/bo//kB1rNlh4iZ0/iwPVGkJUEfLt3RN77dzBq1yKsnhyA5p8fw8F8wPzhSZwoagvf/iOw/lA8hj3stZbv8/gt2DMFczO0CHwzDr1aPINho/yh+SoJC+UTPFTHZ8knH8hhCJJksOdcEoYo45YhQn4/1Tq2NSVYa6L20nYYiPljGmPHgn0OfeoQERHRw6bON+uQAYplH1zGay/pcOzLa1UbmCgqQMqiJOiLdAiPCYe3MlGDwNcmw9/NiOPLViG7EvEJj1ciEd4KMO5/A4mfqxOlSymYmyyyXW7+mDCqzK76iMpxHenbjqFJnyD4ijFtwEDMnvQSfD3cRcE8BK8F3cTe5YlYtOE0PPoMRIhsfuBEwYZYm6d5OA7LcEJdrk64n+M3J0EJLIxYJ4tDYtlZvS2PC12WqTSX0W/diMwbypLwGRyHuPlyiEag3K4tAhGtjFuGyG4lfd1Q7dG+fXuMHTtWGeRresCUph0j0Ud9fKgc+rwszjMLT6sLlNC90AVeVz5DbrU/UpmIiIhq0kPxKNG9uVex4m+XsfhYVeZcTMh+awqSvgK8xy/F6KdsGrxqAxE7PxBa43HMmOaiirctN2+MnhsOnewgc95CS8FIFqDiZAEK8J8V69A2nqiC8tOw6fMOGNhbrQ4NT/i+3BFapZ8Jd/hOikCPwtPIut4N0SM7iCK6cw/Po0Tv8/j9zSCsmL8UyXv2Y//+NQhvJ6bJzjJlvxQr+0F7+wxyci2RDd1v/OEfIIde6KpEQHR4Rhm3DJ3bsLF8bSVrTLDWRE3qgpjtK7Fzl2WY/ZI62YH5SiGuivOYhocSERHRQ+2hCE5I2z4ps5e6e2BCXvIUzDhqhEfPpVip9s5vS+s3GXN6egBfJWHKrLSKByieGo2l40UJRikYbUSKWoCS3xPbg5EJukcdemFJQgSCW7irE2zdQUFaOrJui5emszhw7LJy9//hVQXHb0MvdPbrDJ0oDWk9PNQgjxmmi2eQerETko/sR4y/4/Eqlm0o/lwxiIIU1QW//vWvlYEqJzY2FvLRq46DnF6l8vchrPswvDz7EzTvE4xAccgSERHRw6tOBicaaX6mvqq4ir/HhDNvRyFqpx54KhIrX++qtOEvTYuur2/AnAAPGHMSEDF5I/Iq2MTDa/BKLFUKRtuRJApQ5X8PUUU0hXdHz9I1Iq7rsXf2ZIzccBPBi9Zg55yOKFgfi6Ez0pF/XV3GRt1v1lGFx++lFET1740Zh61NxTQwHE9A4srtyCwjFur1K1l1ogAFVyzjRA+j+Ph4hIeHq2MWclxOr5xTSLBp1rHopDrZqsNA7JS1to69i82Tu6hBQiIiInpY1cngxOs9GlcqQCGXle9x6XoeNk7qj6n7C6B5NhJLx+tQkJWJzAw5ZEOvFF4MyFXGxZD1BTSvxCJaFHDMn29H1PAZSPm8AhGK6wXIM9gsd/sKbEeJqoIxbTFe7rcYB916YXnKIrz2fFPouk/Ari1j0OnSPkwcsAB7L95Rl7ao0806qvj4Nev1KIAWXl4lt2u9/zgIPtDjwF+dd83X3FM+iNSAK1VZkYuoFtq2bRsCAwOV1/KvHK8UTTPoWgRhttqkQw4L+nhC19QdcHOHR4tmDEYQERHVMz/7ryBf3L37rTKhKmRmljyf0N+/dnY0FjJ8pfL30I7lyl8UpmFqWALOmEUBrf9SrInqii/eCsCMo5bZZZLt0Df0gnHPQryxLhtGeKDfyj2IdvpQdjMMGUmYsTgVBeJ7PHpEIhQpSDphFJkxD3SNeBNzBvowQ3Yf+gybpvw9sG2K8reqlEovD0Q2FgbMwHF4I3JnstOnuJRe3zswGW8BDZtCqxGvRVlbKzP7pcjl7kDj0ajM/idqswdx/Oa93RtR+ztjzpFIXJ00BEmQywbhzJT+SPh3OOL+mI256/QIXJyBOd3Uz/tqI4aM2w5t1G4kD9QhO3khTCFzEOipzqc67eE4v7g+r1TU1atXlY5jMzIy0Ly5645fq2v7VaW6kH8hIiJ6GDVo0Prh6XPivnn2Qtxb0Yh+5zC2vtZVCRB0nZWhZLosw25EKvmUQCwtniaGDaHQQQufwUuxZ2ccImetdBKYMMOQsxFzw3pjyPxUFMAL/d7cj/1vhCL0jT3YOqWrKBIZkb0uCr0HT0VSRgHMFe3Dgh4utwtwxnpnPyMXlodQmqDPsU47gwLZd0SZ3KH1aGrp+8BNvHYamJDkcnUzMOFUlR+/emTLR4128kVnuS2LeeCFgeJ7pgeLo9ie+boB+mtmsYR49z/y5FGPgpzjWJicbVmAqKbc93nFORmQyM7OrlBggoiIiMgVBidsaDv1Q79n773nB00rf4T2LCmymAv1SNs0FxG9e2LI69uReUUD775x2H14K6L9rFXFNfDqu1R5IkCknw6awjNImT8CPV8ZgqnLUpD5lQGme8g0Uh1lzEbS/LmYqwwpyFMmGnD8beu0JGRX4dNyHyZVevxeKUBBkQb+fYOUYIMtj2790OtXj+DqVUsTkMy3hqB3zwD07DsEEa+fwSOdxG/ISkHKeT305wHvX5XukJPogarG80rjxhVoMklERERUAQxOVJeiAqTOiUDCtkzo4Y3A8Uux9fBhJE/xh87Z7eqmPgh9czcO709GzMDO0ImM45nDSZg7cyO+YC2K+qNVKJJt7+yXGu6vGjZVUItAxO07irgAZwerEWlz+mPqPgPgpoXWQ4eug6OxYvNhHD2RjBXTw+HtpsfGMXNxvEjMe072Q0FUg3heISIiojqg3gYnNBpLdfcfb9xU/laEprkOuhbNK1YV3s0LoQvXYOn6/Th6OBlzBneFl131cOc0Ht7oFbUCu48exeHNK7B0+WR05WM8KsS6L637tirdS3qpbtW5vrVdtR+/dpqj6/g4xI3vKl5JHugVswbJe2Qw4jD2i+N0zqh+6NxOC43sL0YUBNdsi0P4K70QOmspRrPZ+kOhvp1fqlp9Pl8RERFRxdTb4ESnZ59U/m7e/ZcKZgh16PfWbuzeE4nO6hSXPH3Q9SmPe2zXr4G2XWd0FQUeck3uQ7kvJeu+rUqVTy/Vq7rXt7Z7IMdvMQ28nvOH/3Nexceypo0PvFtoyzy2ZROR0dNjEGnTzIvqrvp2fqlq9f18RURERBVTb5/Wcb4AeP3N1TCb7R+lSHWbvCv31hsT0a6Ky4S1Nb1U1/rWdjx+qSbUt/NLVasL5ys+rYOIiKhmyKd1uM0X5Mh///ujMrEqFBSU9Kzl5eXYnVzt0NyjNX77m6dx7ccbKLx6DUVFd9U5VBfJTO9zHX+NKeOG4Il2ras0PUu1Lb1U9/rWdjx+6UGqb+eXqlaXzld1If9CRET0MPrZz35Rf2tOEBEREdmqj/kXg7m1+oqIqH7Raaqu/Ev3T9ac4NM6iIiIiIiIiKhGMThBRERERERERDWKwQkiIiIiIiIiqlEMThARERER1Vc/ZONA4nac/UEdr0Z3fjTB/rlEZtwymdXXRFTfMThBRERERLXCtaNzMX/RcVxSx+kBuF2A00eO44JJHa8upuNYM6Q3Yjbr1QnApZQIRAyYi4zq/m4iqhP4tA4iIiIiob4+rePO5UzsXb0RGZ8V4FaRBo2e7oeouEh0/IW6kHDryxS8G78Rpy+bAa03gqa+hVe7qY9bNRtweksC9h09g0uikOn+Cx8ExbyFsC5ay3zkYcuAKBxzLID2WIqdMV3VEaFIj30RETj6v0uxNror3NXJ5fohDYuHJIhvsNd2zG4sGqBTx4DC9yIweUNJodiptqMRvy4crdRRFBmhzziGowe349TXJnSbn4Eom59r53IKZkck4ULbSKxaEwpPdTKQjTUvz8ApdaxMjt9ty9X2dZgPrRd8eo7GhNH+aOYmxrMXImx+Jho93hyNi26g8PvmGDi2KzIOZipvhzLNJD5Xh2YN5QQv9IpfiqDHxcsKbN9rpxKRsCJVCW64t+yMXpFxGFi870vok/pj/uFnELE7DgHWtHU7G8mjZuCT/41D4gx/NFInEz0IfFpH7cKndRARERHVZ/9KwfyIufjs8dFYnJqBLbvnoON3KUhYlIZr6iLyjve705Kg//UcJKcdRfxA4FhcFPZ9LWcWIH36EKw6rcPAt49i56H9iOpiQPr8ucj4Xnm3cAM3RcHVMzQZO9/PKBlsAxNCYWo8DlwGbh2ZgVdfDkBYmcMIHPiX+qbbJtwUf7rMEN9t89m2gYkSgZicZvP9NkNMD3URWz9+jbwvLkKjbaJOKIsRGYlJuFCkjjrRauRWp98rB6ffXczV9jXjQupcrMn0QPBKMT/tMOYPbI7z++di/k7bYIw/xm7ajVXx4WgrR7tEYtVWMS4HZZoXQpar41vVwITkYvveOZ2A2XEn4Tl2N7aItDE/+CekvTEcWxyiGXK5VQeN8ImMLAlMSA27Iiw6EJqMuYg/bFQnElF9xeAEERERUX31P6GYn3IYi6L94akB3B8Vhdhx/sBnJ4r7ILiWlY7TRf4Im+iPRm4atAqNRcjjBhw9IUugXghedhjJa2LQpaX4AI0HukycgC5FZ3DqtH1hs3GT0nfTi/0rBas269FWFOK3FBeCl6KbmFW6YL8VIf9jeZuV+8/Fd1e1R7siJDoGEX181AnO3cpYheTPvNH2CXVClXK1fTVoO2ANkjfNQcD/iPluWniHRqNXW6Aw5wwKLR9y38ravmdPpOHaE6EI66mDu0gbbQe8iTAfI45tswluiX276E0x3i0Gk18pHTRq1HUOJvf1gH71cKw55Vi9hojqEwYniIiIiOoxd63WrgmFpSB6A7duW8YvfHEGeMIH3kqVf8kb3s+IQvkXX1gKvxotGtmWXRtaPu/mzZ8s45cLcFn8adz4Ecu4gzsXUjA/KgnXAuIwe4BXxZpzWF3U4wK0aOyqcoPiOFb1clYTIwAJJ9RFKsuUic2rM9Gs72SEKFUSqoGr7eumgbvt/KKruCZrVTzeHM0sUxwU4MC0IZg8Qh1it4tt6DDtjVTLvi13+xpQKGuwtPWyacbigY6/8wY+yxXvk/s2FQmxSdC3Dcf8yb3QSDYzccJ77AZE+WlwKo4BCqL6jMEJIiIiIip24f/yAO0z8G4pxwy4LEuZdgVQoFU7UQD9Ru+848qv86AXBVrvX9vfJf9643BLMKBXb8xOSMMl9SEN7h7P4HfD4zC/ayYi7IIHlr4aLm0eYTNNDOO3O3yvCR/N62mZ12cIFm/Lxi2nTSwq2azDJTPOblyFU+69EPGqT+WCKvejjO0r3flej2NLF+LYbW+EjQy0+U2ZeHeUNRBh24RDDDsOK9tgy1QfFH7ngzDZ/OPNfjb7u6zt2xzNZPOP76+W1JIQGmubi/8LcLmgAMeSkpDXMhBdrm/H/EE2+9Bx6NUfaxCKCD/g8ley7xPLZxFR/cLgBBERERFZ3M5GWpoBjQL84K1OqhxRYD+YikJtELo8rU56PAghQ8MRtXK/KAQfxZo3gnAnIwGxCZmWx0rKDh4H+MNTKUl7YWCyNWhQRrMO244jn+mHV4dGY3KyKGCnHcWisV64tGsGZtn1t6DSNqnaDhfzkpB8xIxukyLRsbhWiXOlAiw2Q+VqbTjZvgrZ8WYAXh0WgS2fNkfw/LcQbNf0xaHPiYoqd/tq0KFLZ+CzjdiZZRT70oxr2YmYn5htea+7F4LfOooty+dg8lbr/tuNMNn8JSDOZp9apnk+/gwCZu/HopE+ZdawIKKHG4MTRERERCSYcHZ1PE7d7oywwaLQeQ9uZccj+YQJPqPD4WMtYLp5oMvw0egi+0QQBdpmXaMx4hUtkHUcp9WmI/dM64Og4f3g86j4bNnnQe9YhPgAhScylWYFVtcKDcBjHpanV1QF+WSR5am41m0yRnYrpy8N1b13iGnP6fZVdEWU+Kwt7+3GotFeODX//2/vT+Cjqg9///9dMKPgUDTcCAElUIm0RFtAMUhNzJftr0DZLpssKrKDCMgiCGWTrSwCKpsguAAKeCEgoJfFfwgWCVRCpUlLgw2hhoC5DESHRAeDv3POnMBkgwDBScLr+Xgc5pzPOTOZOWcS5vOez9JRY94rbHaSFG0bZ3ff8F1eM2fvsFtYLLEDhquc37uemqpXOgbr8JyOeu7Jlhq9VurcJ9LYU0kVCwpsshL076+lWnV8oy+PPNnGO+NKY5IAuCUQTgAAAECpH43QnN0uNRo9VVH/yy5UsKqbX7UfT8k1uGJqslHxvT8099SX1sCHu4wK+wQNf8qeZrQQ91QzuySk6Zw96GbxCVRQNePmtPHY3gKDS6nmPJfH39aYPK0Wrq/1guHgOmtmEe2bpn6+j/H1Eg1/sp+2m/uKWxHOb4AzWLXaGPs7BCt17fvaV2D4E6LWM9/V+L7N1eiZWZe7d7xkhgp2C4tBhc2Zmvf8OhXWf5GWb/EGLctfH6agDOO94QxRjbutA3L7+34dNN5T9R707ZKSZlwfexXALY1wAgAA4BaXuX+aZqxI0l1PzVL/qNzfYNd6sKFR6U5Q0qWKbpKS/iFVfPDBy+MSuPdr0ZglOn53a41+qXnu7hNZHm/3jUs8On7UqMCWD1H1qtLhOXZIMHmXsS9FG/rlhAaFjDlhLva4ExeMx87NeG7/NG58g5Osf+iw8XxD+3+Qr9VCznLNY040nlDwY9w/SAs+Xa5W1ngdxeiazq8UYLWqSNO576xNwy69ZbaOsMacMDl0Z0Ca9s0ZYgVShSnS+fWVnaSDewvrFuRSzCbjGldvLnPMzLyqV88/hgaAWwvhBAAAwC3sXMxEjTaDgWazNGdY43zjMtwV1V6NysdqzZuxysz2KHXdbEWfDlbLlvYUm/9vlxb0M4OE5hq9dLTq58o2krShX0sNn7xOCWeNiq55/x3T9M5eKahTV9U3KtH1R+eu5F9eCptK1FjMcSe+M35upzYaYzyvVDM48biUsMp4bielRp1bXwpOzu1ep4NqqD/+sZRWfq90fj2H9I5xfscv3Kbj5vk1x334+9ta/lGa9If2amIOWGlprv6XBr/0TsVqTuH5Sm+zS8ZsxVwKMXwU5fyaU8Cag5ua+7NSFDPrZeO9UXC3oNSPXtbyvweqSf+uquXbJcWezcWcihTAre1XPxvMlYsXv7EKikNs7DF7TYqMrGOvAQAAlFy34ueXtK8+1pDh63LNtnBJs1laM9rbvD/zX+v01rz3dfC/bskZqhYv/UXPNTG7FiRozdNDtL3A7hlGZfrTCar/XYJ2Llus6LgEnTNniXSGqFG3MerfKewqA1SagzyOVUrvdzW7a4hdltuFk7Fa/+bbivlHijKNunnAr8MUNfxV+7kZjMrz+IFLdL7DIs3pW/iMGmbrjTlf99Fsn8E2rbICunvU6vuBpnfKH3RYxx8fpAWLuvrMdOF9DWYLkCuqlftnX3b18xuW5xzIGajQqOEa0j9SQWZ93+PWufPSnb922i0qfGSl6Pj/C1YtczyQ/dPUY7I0fNsENbKPu9r5NfevmT1bMf9y64Icqvjb1uo/YZgaXeoWZMh2K2nNy5q+NsEKmiYb1zLXdbB+bop6rLwJLU6AKwh2FF/9FzeuXLl7CScAAABMt2Q44bnXXiuJrh5OXJlLO1/uqHeyjIr/XKPin+eL+YQ322jGVjMt8bqr3WtaMKhhMU8JevXXkPDW01p+vIvGz/CdvvMX9PeF6vfyJmUaqxUbj9aMP7dWUN4Q43r9v22aM3CODt/RWD1Gj1GLPwR6z+/JTZoxbr2+NVbPn02TfjdIk2d0VY3i+rlAERBOlCyEEwAAADbCiZLGpeN7/6Fz9zVU/VrXOZODx63MbGfBM0dYLQrMpgaS447Ago/BDbvgNlvbOIs59AFuHOFEyWKGE4w5AQAAgBIoULUiIq8/mDA5CgkmTMa+u+4OtBaCiZsngGACQBHdsi0nzGTm6+Rv9GH0DsUf+bc8nrzjHKM0cTgC1OChB9StfUvdX/veYn0/m8z3S0lW3K+3pCvp1wNl263296W4leS/V7T8BADAP27plhNmMPHyq28q7ssEgokywLyG5rU0r6l5bQEAAAAApcct23Ji5sIdVmW2WWQj9X76T/p1pTvtPSiNvvv+vFZ98LF2xx5U+MNhGjespb2neNByomSh5QT8iZYTN4aWEwAAIK9buuWE2ZXDRDBRNpjX0LyWppxrCwAAAAAoHW7ZcCKnKwfBRNmRcy3ppgMAAAAApQuzdQAAAAAAAL8inAAAAAAAAH5FOAEAAAAAAPyqVIYTKSdc2vpJov5P9N+LtJjHmve5MS7tf2+O5szdpiS7pMhSN2najHXan+qxC67Oc2K/1m0+JLe9DQAAAABAWVUqw4kjCaf0eJNwde7YukiLeax5nxvzo1Jit2nb1nidsUuKKun/rteuHesU53LYJQXwuJV2dL82rZyoIe1aquUzY7Vk/kSNeC9BRY80AAAAAAAofX71s8FcKc55x2/2POFmawgzdLgWGzZu0/9u/wd7S2r/zHzrdsvqedatV5rW9X1aSy4//WvWfEaMJjSxN0xZ+zWt81jtajBBW19tLs+RQ/qxbkMFO4yf9uEQvfR/3ZIrTWkZPhFEjeYaNqqXWoSFyHmFPAP5te050rqNfm+EdVtczHl3S7Li/P0tDUr69UDZVty/b7fa+7kk/7262Z9fAABAwczPQ4QTucIJj1L+tl8pBfalOKPYpQu161SYuk7uqjC7NK/gsEiFBnnX3clJ+sfe2Rq7Uurz3nL1qrBNL3Wbo0P1humDNzpIH/bT00uTFNZtqnr9T6geqJGkxW0malfLWYp5pbH3QXBNCCduDYQT8CfCiRtDOAEAAPIyPw8xIGYuDoU80lgNf/+gHsy3PKDgCuYxVRRa4P4H1TD8cjAhz34tGNBPY1cmKbjHGPWq6dH+5Ut0SKEaNLaDgu3DTMG/j1TjusEKpJkEAAAAAOAWRDiRzyEt6NhRHfMtQ/R+srk/VtMK3N9RIzanWY9gcTTWhBWj1ThQSvvbIaXEL9HsHW6F9pugrjXsY/KppEpOexUAAAAAgFsE4UQ+jTUhJkYx+ZYPNMhq4dlcswrcH6Pl3XzbQxhqttasBYMUemyJnh2xSa66gzQh4oyS0u39+QSqWjXjJpshMAEAAAAAtw7CiZutZmv1inBI5Rtq9PgQrR/6kvpNWKeUbHt/QVLS5NMGAwAAAACAMo0BMX0GxNw/I0pjd9gb181sWTFBOcNZpnzYT88uPaPmM97ThEektB2z9ezcWIUM+UBTsydaA2JeTejAD/K3ykCBGBDz1sCAmPAnBsS8MQyICQAA8jI/DxFO+IQTrqOx+kcBTRY8GbF6f/4upZgb5Y2lcqQGvdg816CWlwXrwahQBcbNUdTL2+yyAjiba1C7FC1Z452to+tvzUJ7RhA117CBkapiHWgc+pvGaliTwTKLgnDi1kA4AX8inLgxhBMAACAv8/MQ3Tp8BNaNVGSU79JYoYrX+4t2KcURoq7zt3pbMLiS5L7X57iIhnJ89bZm/58kVWkQqkDzwX7fRa9NnqXlH27Uxo2L1Ku2UVZnkD4wx6eY30HOrEOKi/fOWWrO1uF9rNZqHGqV6MFLzyGSYAIAAAAAUKYRThTCcyJWC3u30dOTNymldi8t2vCuBjVwKvR/zBYTadq0fr+sYSszEvT28I4auzFFjntCFJwz20aFEDWMaKhgh0POwEA5zRYXxj3cJw5p04kGWv7JRo2OzDs1h3GsOV3pqTSd8RYAAAAAAFDmlcpw4vbbA+Q6m2FvXZ15rHmfq8r2KCVunab1bqmWz0zUpmTvrBmh/9NKYZWtValOLw2Kktw7FmrhyoV6tvMQvX80WB1e3aiNf26uQCuEsKWu05CObTR2q8sucCht1xwtnP++YguZsSPkN2bTiRSlnPJuAwAAAABQ1pXKcOKhsGr6fF+cNY5EURbzWPM+V+TerzndWurZl5doV3qIOry8XFtfbW7v9OVQZL9BCi2fpm3vbZJaTtUHW9/VsAirM0cunqQkpcipkJDL+0L/1EVhSlL0/y14IMwqQeZIFmk6Veh0owAAAAAAlC2lMpwIqRmoNk/Vswa4LMpiHmve54qcjTVo9izNWrZRO7Yu17CnQu2uGAWo0VUT+lmDQyglKU2eQo5LSjhk/NtQYb5jagU9oVYNpLTdsSoonnDcG6JgufWPf3lH5ty/fJp2EVQAAAAAAMowxpzw4azdWI3rBqrA4SezPXInH9KuD5do4uCntb7GXzSrTaB0dIme7b1Q+/P1MknS/n1uqUG4GprjSFwSqMc6D9OwUa0UYpfk8GSkKemcxxpQM+mrBHmUppS4XZq2fL/3AAAAAAAAyiDCicKYYYTbO+ZE0up+atmspdr0fknTVm5TSsUw1bzLqcaj3tNrnUPkOLFJYzt21NgPD8nlvYt0KkUp2Q5Ftmvhnb3DR2CTDmr9m9t15ox3to7YvzytNi2j1LLd0+r38iHd3sAp7V2ndclJSkqWQn+TN8YAAAAAAKDsIJzIy2OOPdHGG0bMiJXKOxVYs6E6DJyq5R9u1Y4dW/Xu3Anq+pDZvsKphkPe1cY3BqlxoEv7l76kjk89qyVHPFK15pq6YYemRhXUDsOlbRM66qUNadbjOwOD1bjbML22ynj83cv12qheCi2fpLf7TtSubGPfI+Y4FAAAAAAAlE2/+tlgrly8+I1VUBxiY4/Za1JkpO+ACyVHl75vyuO5oNVLpurXle60S00exb4+VnH3tFKz8MZ6sKZTjsLGnsjFo7S4TYpODlWvbg2Ve5JQj1L+tl8pClHjR0KsbiOeEwlKcYQopJrx+N6DcvGkxur9D+Lk+X0XDWpJy4mi+O778+o5aKIcjgCtX/GCXVo8ypW7114rmYrz97c0KOnXA2Vbcf++3Wrv55L896o0fH4BAKAsMj8P3bLhxMyFOxT3ZYKaRTZS76f/lCegQGljBhOrPvhYu2MPKvzhMI0b1tLeUzwIJ0oWwgn4E+HEjSGcAAAAed3S4URyivTyq97WEyg7zFYTf/nzC6pdzI1NCCdKFsIJ+BPhxI0hnAAAAHmZn4du2TEn7q99r1WJNb9lNyu0KN3Ma2heS/OamtcWAAAAAFB63LItJwAAAHzx+QUAAP+4pVtOAAAAAACAkoFwAgAAAAAA+BXhBAAAAAAA8CvCCQAAAAAA4FeEEwAAAAAAwK8IJwAAAAAAgF8RTgAAAAAAAL8inAAAAAAAAH5FOAEAAAAAAPyKcAIAAAAAAPgV4QQAAAAAAPArwgkAAAAAAOBXhBMAAAAAAMCvCCcAAAAAAIBfEU4AAAAAAAC/IpwAAADADcpQ3Lrt2n0s0942pB/X3j2JSsmyt5GLJyND7oLOTVamXBkX7I3CXJDbZdzfY2/eMuzXXVLfU9nm88uUJ9vevgEpO9dq7rztinfbBcAtgHACAAAAN+ZItOYs26kkT4BdYDi2XZOmvKO96fZ2PumKHjtC47bkHHBBSevmauTa4/a24cgG9X5hxRUeo3ilrZugJzss1Pab/vOM1z56iIZuOmlvX5a2ZYY6vbRdKfZ2wRK0sNMQLTxgbxqPt75/TzVtmncZo9Un7EPyOrVT47pP0cojVwtCrswMWVzJidq7c7uWTpyiHn3e1d4Me2dReTKVcuy4ds8boel7fAKufLyvu6DzdlMc26f1Ow8qqajvB+Ocjuw0WetT7e0v16pH9xEFL4sT7YMKcGK7Zszerl0712rkS5uVUgxhB1AaEE4AAADc0jKMivIYvX74cqXQ9elcPWlUbjstTrJLJPfhd9V79E657O3LMrR9lVFev5Xa1fUJJ4rA40rXKXdO5ThAoXWDlLTiXa0/ZW5naveGzTpT7Q9qEGgdYDEDBLPiPemzPJXY1O0aYJRP/8Levk4e952qEmRv5MjKvEorhQvaPaW/cX4Wa+m6fYpPvoZv962Q4HKldeia40bldJtG+pT1eONwnmMXa6+xuXv2EGv/uC3e2nBI39n67LPV3uX97gq1Si/zXDrXhmNJijt1Qc7AAKM8Qy5XhlIOH1T8ibxhxWFNvxR2GEufDdq9abHGTVuhufNWaOV772honwVaHS+FNmunydM7K9xp37UAnoyTij9ipxfZF+Q6eliJR/+q119Yq+/D6ituxTYl2ZVx77U2XuuVKudfLC40hElZO8bYt1C7r7OlRdrh7Vo6c7Pirzcc8JxT2qlQDXx/vtasvby8+FC60lzn7YPyyDio6S+t1Zmmw7T27cGKcG3Q0CkxchFQ4BZAOAEAAHBLq6z204crcNloTf/cW+E/k5Yqsy7uSj9n3bq/WKEBqypq9KQW8skJLO7P12jp4SB16Rul4PJ24TXztqLoMfuwKlU7520F0GK4lhwLUqXEtRrQa4Rev9RKwGvv4g1KLOYK24lvjksP1cldqfck6vVe/dV22j4V3sI+QOE9BqtdPYfS9m7QpEFD1La18RqeNCrNR+1DLjGb/p+T23juKavG6IXP62umT8X1jR61pJqtNc+nbM3Q+t67VmthH2tUWo3NZmMWWftntq3h3X9Fxjl+qfflkGHiPqPsuJb26qm2vSZr6AuT9cqKfUo4VXDLhWZTV2vNAOO5yaE6TVuoQWCI2g3vq4EdQ+XUXYro1krNHr2gzS/N0epEO+DwJCl63grNnTZDvbsb56RFTz3ZYYzGzYuRFXuVP67Vo+dqbEwN9XzyuDak/UHzhjZSsHXnG+co7zD+DZCzgnf7Wp1N+1aqUEuOUwcVvWqxRq66QmuHQu3THN+gyVim77F35XUiRuP6LNTeGt01b2QjBdZooilLBqtB4gp1esF4v9PFA2Xcr342mCsXL35jFRSH2Nhj9poUGVnHXitZypW7V18nf6MPo3co/si/5fHcWJM2+JfDEaAGDz2gbu1b6v7a9xbr+9lkvl9KsuJ+vSVdSb8eKNtutb8vxa0k/70qDZ9fbqrsk9o+foH2RgzXzNZBRgX6ghyVK8pzYIUGfBikGXPaKcSs6/lyH9T07gu1221UonYaFWbfcML8Rnv8cT3/zmz1rGmXWcwuCCO09PLpNlRXs7b3KPGAtwXAj+50udxGpbLaXapklTTSqLXd1cBYM79N77H5vILT06Wu07Smr1lhNpgtJ3qtVc3pqzX+MW/RVXkyjZ+T8xnwvHZNG6OldiMFk7NuK02Z011hRxar0/gENV+4SC8+ZO/MkXVS8cbzdtZrpFCfFhdma4QzqWd1e51aCvQ9L9nGOWuxXHHOTFWpHaoz6XcpvMZxJdpdAazXnlVRgUF36nZvkcKHz9eLj9obFrM1w1xpqvFaHze3vef0k6jZWvVEgkaO3q5T2ef1veOPGr/k2fwtGdJ36oWu76rKpFWa8sTVWrtc/lnPpxrnfkcjrXorRKufnCvPOOP+dXca5z1GEeZ1TjWvebpeXDdJ7a1zkaiVo2PkeaS+GtQ+p+gpa5X0+Ci9M66+cp5S3MyeGvdFC83b9Kwa5Am3rGu9rLrPe8v7XI71NV5n9+rWMYW/zy7ff+ZngxVul12Z9/F321sWR0UF16ilevVCFdampdrXrWzv8FXAe7p2Z63qm6re45Xvd8N6zdnD9NmERnbJBaV9ulxD5+2TnuirN8ZEKdj3d82dpJXjZ2h1YpDaTx2vgY9VVt5fRaC0Mz8P3bLhRHKK9PKrbxJKlDFmSPGXP7+g2iF2QTEhnChZCCfgT4QTN4ZwooTLztDuaZO1KWy03uxUXe7PF2vAhlqa8VorheSpOMpzUquHjdFKq2VAEz3f96RWrvAZL6IQ5jfwVoXaFaORnVbI1duoaPayK5o2q1JpVoLfbqe8/6XnVDh79krS6rVBGrX2FbUyK8IFhRNGpW797OVa/cVJq6WCs2Yj9RzTT13qVfTuNyu2Ew8aFb0LlwYxbGbf32M8v+ldV+hU3/la1lXeymeFZ/XRwjytR45uUI9BOxW+8K38wUVBTmxW7z7Gz6x5XJ5m0/T8f2ZoYeLlICJ/MGOqoc6vjVLIxhGa/mm63OWDVMVsDZB9XmkuKTColrGdaDyeT6X9CpJWjNCAT+vrzXXPql7e62pwH0vSmRqhCrFaHBQQThjX5ZRZwc7oqy1DMzXSDidC1xhlWYO1ZWqTS+GDV4a2vzREc91GhX2JcU19fqbZ9aL3ipOKKCAoKZZwYvMftGxt53xdXK7KCpEW6sQA8/rn7edTCOs9aAc15nMxx5yYd9C7L6/HnrVaxHhSD2rpxMWKPlFR9eo4dMK4npUKuCbSnar38F2K//SwXGaLilnGOalm7wLKgFs6nJi5cIfivkxQs8hG6v30n/TrSnfae1Aafff9ea364GPtjj2o8IfDNG5YS3tP8SCcKFkIJ+BPhBM3hnCiJDIqjmOHa+6XFdXltUUa+FCm4uaN1/uuGjqf/YgmT49SSOJaa5BG98N9tXZWlFU5T/vIqPitCNDAHndp6aqAa2g54eX5bKGenGZW3Grp+elPKOGN7coZNqCgCnrNbq9oZtugy9+Gb2uiXV3nKu7RYVo7oZGcecOJ7CS93nWKomVU5N7qpwjnOW2fOVlz90jtC2oBceRdtR12TsO2DVMzq1Jufxtee5Q+G2dUIvcYz3fKv/Pf13qdJzVw7TR1KUJl0XrdHwaomfbpmNnSoQhhgi/zW/dJjlH6dGR9o65uPOfRxnPe1F1nXjKeq1HBDQ70/UwboAZDJ2vUY3YYYzqxWQOe26AkR0U5lSl3dkWFtB6sN4aH6fsDO7Vy2QbtTpYiJizSlKbm/QoOJ4Kt6xegme/X0kqzQv5mZyUNW65K0xdp1KO5QwbvuTuunkvm6/m6dqHNez2PSzXaadk7nRXq8x66tO+qqhceTuxuojVvtbr2riLW++Gvam6HTvELemvkljxfaj70rNYsbHH5sfOGE0WRfVzRy5IU0i1KDQKLMGZLRpKi95xX89b15SwwxABKJ/Pz0C075oTZlcNEMFE2mNfQvJamnGsLAACK4qxOpRqVruwMpbnMyldFhTUJ1Vnj/9M7GzxgfcttDlxpDsjnSU3XGe+dFGxUaJe9/Yq61Lm2QTC9MrR9s/cbZWfgWa1clamBS0Zr1PTpPuMutNcb5vgK70/W+DGvaErbPN9eV6ivYcMbyf3ZO1p5xC7z4fp0g6JdFdV+wmBFmJU+R5BaTRii9s4MRa+KyTewZ1LcYbnr/0ENChmfwPF4C+99Nx60xuHIkXbCnDmiuoIrn1TcuhUa2ae/NZioNa5D2zEaufig0nzu4AkKVc/OjXK1CIlfnHtMgtzLWsXbx5nCI5oYlf2/K1EXtHfrTunJJxSR00zBk6m0et2941S83Vl1Tp2To4JPMOE+rOkvmcGE8RxmzdFH21Zry6w/yrNlrjo92Vs9Ju6U5/FhWrVtlR1MFM7xaGfNW9JZYTmvzVFLrfo+p3YP530/GNfaOGd6ort65gkmLqkWpOBTmzV3Xe5ZOIK7Trs8wKe1jFIzozzXwJ/WUnAYcPbbb+21a2e9H8rXV3g973ZY30X6dKfvz1ylLVOjCgk97DFU7HE2mj7ZP881tRdzoNPytdR+sDmGRxF/jyqHqn1bggmUTbdsOJHTnYNgouzIuZZ01QEA4FrU0vNvv6WPNnmb1VuDX35YSzM2LVCv/yywBsl0PDFMn25apC1GhfdS8/gK1RVa43qCCcPRHdqQHKp6taUq7Trr+crndeLLaE3qM+PyrAsnDivuVKbiFryiF6ZtUFwB01M6m3bXwDoZin5ju9LsshxJ/zIHL6yvBr6tHMrXUwNz7IYjx7wDMubITtQnW9LVoFkDny4b53TqlFERDrnHu2nc96nhz2re0Pq5+vtbg2g6E7Sww2StTAtRzwkLtMWuwH76ZmcFH1ioHsMuPz/nQ630fItauR7Dk5F+OVTwXYaGKu2Ud/BMkxViLE5SsPOveqlpb03/MkiVvjRnUdluvZ6Qh0Ll/Oygd3aLw4e116hcN7Ar1+aYIutHz9XujFoa+NYkPV+/snTqoFYujrGeW50e07Rl23xN6V3f7s5RmFStNgcsNYOXQSPUts9a42ef1Mr+IzRu2WINMCvjvjNsuOK194gUEZH7vOWwAoTKLfTigFpKWjFdrx/O+Rxnttjoqd5rrzZtqD2NqtUKJ7fv3VealvRKjmvvnnTp8UaXxsFwOCvKkSsQCJCzciHv/+w7FdZ3slbNaq1gVVQz4z2R79pa19ce6NSUZ9aWgpfcQRVQ1jBbBwAAwK3OUVGBZkXrxHaNXSy9ON0cY6KiwscMV+ia0Zr+RaYclSvLWSyj8GVo+7LNUtsWamxW9so/oJ5zuiui6XMa3+KsVr530J4VI8mo8A7XuJ33aOCcfoooaBxCBanL0BYKPLZWS3fkmZrRt3nDVXg+36lodz01e8znh2Sl64zxRAIrX/4iK9SapcK3QpquFLM3kKO2ei5ZpGXDjf21jUqsd6ccNRtpVN8m0tF92mtNj3oFny/PXxmdnbvC3WBwTsV2sDVbR8RIe3tOK29oFN5C7Wvs07pNJ7V3xz7psfpqkPNkygcpPKqR2k99RV1qSu4vFqt7r8WKf6iRzPwiuE6tK34bv3tiT7uLRQ31fMunBYE1ZanZrcKn7DOfLj7HjhkV6loKq1tQRT5d/ziSKdWprvBOr2jVkskaWP86A6/rckGegqYZPXZQu1ON8xvlDVRcBzZr7oJ9SvHuLZzHeDwzqOnTX0OnzNHQl9YqxXmn4qb197ae6GrcNu2tttZtf73uM/iqNa3qqQA9NSvnGude5ra7M1dQlcOTxZdyKDsIJwAAAGAFEy+MP65eS/oq3GlOd5lpVLSqq8ucftKCGVqf06LhRmV/q2Op9dS5Te7WA2Z3kvCho/Vi+Z1aGeeRnJXlNCpe4SOHq0vtK1RYH+qsYU0rau9nuaf6DP29WeU+rHjfLh/ZiYo3pyTNNV3oca1eYXY7aKHmviNdHksyKtVBCqtTYCpiC1KXhW/po3eGqX0hzzHpX0lS+eoKudqYio/3y18pHZMzm4PNHGDRCi4Wa6+xuXv2EO/24pxabi31HBqlU4vHaNIe47l1a+QzMGWAQroO04vm+BPpMZo0cZ+qDJiuVcObFGk8BnMgUyt4KGCQ0ivKNlMiz6UBR3NJPajdx6SIR8KMjYoKqRtUYOuKmyVl3RQ92WuF4vIEFPFbdyqtfCM1t8fOSNq7QdsTzxX+3DxJWj16hJ7sEy3P4+2sQKpKeqo8TUcZ743uCndUtlpPzOh4j/V+XTartXEO71Jg3nl5r5Hrs4Xq3na45tpTAAOlHeEEAADArc4ci2D0PkVOH2xNO5m0aozadupvDVjpcdbX+LfaKWnKYsX51v6vV/lQDXx7uFpV86nMZ2cqcd1C9eg0Qavd9RVhjkca1FJTx9VX3MzJev3AlSpfFRUxoLsanErP1bUj8MnOah+YqegF7yrOHEvDk6G9sxcp2l1Z7Xt7B/U0uT/brNWpQeppVOR14rhSzKlFjeezd/Nf5TZee4OrjY1qtjpx5gkmzLEfjh7UyvFDNGCtR+EjOyv8Cq0SLEVoOaGHc7p+eFtONBuzyLs9+HL3AEe9PyjM7JZRoZbCahYcmLgO7FN8dhM939UcjLO2ukwapi6Fvk7v/g6FjRdxNXXrqYFOau8X6XaBzexmMm2tkgJbqOvjBT/PG1XJWVEy3hen8gUjF5SyZa5GLjuuwIcf8Z6vHFkHFb0tU87WLRRhlwcGBknJ+7T7qBnY2bIy5bICPIPjHoVGtdMb697Smqmd1aprD01euEDLnpGW9l+sE93Ga3T9w1q54qzx3muh4FOpSlENhdzgbBuBTzynQY9L2yd6WzcBpV2pDCdSTri09ZNE/Z/ovxdpMY8171O2eJSwdZ1ij7ou/5H0kbR1jubMfV/7y9rLBgAAxSxD0VM2K3TONKu5v6lKcA3rW+LAoLu83xZXbqTxk2rp/bHbC2/abs5UkDMQpLmM32cUntTK53zKmo6xxpSw+u9772XwKH7xaL2w8YLazVqktdNbqUEV7947mw7TqsF3afvY/uq94niBn3ksQVEamHe6x/KhevGdSRpYM0HTu/ZW0yeHaM7RBzTwzTmXZ9vwJGr1e4etsSu6mJXvE7s0tJNxbIv+mnTgHnUxKpo5Yw5cUXaiXm/r8zqNnzVgygYlBLbWzPcXaOaTRZiKsigtJ67mzGG9/sJC7a0ZpfZ1DmtS94Xabg52mkdg4F3Gvwna/ulJebIrK/SJRgo1nqLHnSHXqeOKO+o7wId3f70ivIQCBf5RXVpXVtKKyRq36rBSXBlKObxTr/cfr6XHamngawVPZ5ojZcUYn/fPXO3OVzbCeBzvsXnVi/qjAt07NX38dsWfMl6b66Tid27X9D7G+2lBgip1ekXvjKufa9rTlE0btDc7SO3b5AzWIYX2GK1RTQMUPdpnsNPW/fXcoGjjLJoqK7x1lHEO7ZClfGUFe/6qSc/NVVKLVzSvk4z7LlZC0356vn6AkhKSpNq1VLMo760rMX5OswnjNepRafd4AgqUfqVyKlEzbHi8SbgC775SM7vLXGcz9Pm+OLV56vIfmfbPzLdut6yeZ90WWZZbrizzv8YfdSYpSWfuaajGtXPP5PyLSN+kIZ0XKuGhYdr4Rofc820b9s+I0tgdoRq0Zrm61rALbwFte460bqPfG2HdFhemEi1ZmEoU/sRUojeGqUTLoGMxmrv5gtoNb5FrGsir807V+Yk5nWanu+RWRTnLH9b0J40KaHaAgtsO07Lh3oqjJ/W4Upy1FFq0j36lgM9r717dmh50XPYwfTbBDiPMbhfDNutY1jmdCWqvN5a0y3NuL0/vOf5xc9v7eKtdleWo014zJxnXwpGh3TNf0ZLyz+mdMY3yjCeRqcQt72jxmsNKTPet0Hqnbw2zp229InMa05d2Wl1pnDVbacpb3S+Pb5GX2TLmo+Was+agUsw7OCoq5KEoPT+8syIKHVQ1UUu7L1dSZ6Ny3+FKz8WcGWOGNtR4NvcAkzbX52s1fUWM4k94X6ejcnWFPR6lLt1aKLyQn+3JMI6t7BugXYcT+xSdGqZWjwVo78QhmpPRWW90S9fkBQf0vStTNQdM15udfKaRtafCTQsKUqUCfo+80+s2yT9lr8lshfLCdCV0nqEpTcvMLwluMebnoVIZTpitITp3bG1vFc2Gjdv0v9v/wd4qWjixf65Rwd9qbxSmfEMN+/A1XfFvZgE8GS6l/ecfSrGCaadCfv+Agis784wCXLik5U+r35o0RU7eoalRKdo2N1qJ90SozzONraCCcIJwoiwjnIA/EU7cGMIJALccT6Y3fLtS2pF1UvEHvlXgw/UVUsD3np4TiYpLDlDY46EKLGJ9AShNzM9DjDlxBQ9E9FHrNq3VdeAETZ081VpeW7VR774S6W2pUD5EHWZMLXowke1WwuZp6tcmSi3bddSzIyZq4mRzeUnPdmyjli3bqN/82FxzYRcofZuWfJgm1RmkQVHmX7kzit+6TdtiU/Sj94gCedzuwptDAgAAACh+jqsEE6YK1dXgiYKDCZOjZj1FPEEwgbKNcOIKAsN7afSo0RrUrbkioyKt5YFv3taIv8TKFdhYw1Ys1zBz1KiiSN+lad3aaMj8XUqr0UGjl32g1zp7x0ZuOOIDbV01S4OaVVHK5ol6us0QrUsuLEbwaP/yJTqU7VSHIV2LMLqyR66jsVo341m1adNGLefut8sBAAAAACgZCCeugWv3RD3z521yBbbW1FWz1KF2EXuinVinft2maZcrRK1f3aity4apdd1guV3eMaWDqwXLWbuxur7yrjbO76CQ7AQt6TtW2/IMamw5skSzd5id9RorvIG3qHBJert3S3UcMFFLYuzxq2k6AQAAAAAoYQgnisSthOX91PHVWLkf6qVFq0YrsqhjzWQn6e1xS5SUHajmry7S6IicoSuTlGQN79tQ9S5PtC1ng2GaP6Khcb9DmrMoNneW4N6vaZM2qdAJOLLdSolbp2kD2mjsDm+Ro3ZzDfrLu9rxyVRFeosAAAAAAChRCCeuJtulXa8+oyFrkhQYNUEfLuijsGuYnMO1dYHeT5WCe/xFE5r43NH1byWcMm6rhemBPFNtBD7VUx3MQ2OitTMnichO0bqRY7WrgGTC40qzRkpW8vsa+/IS7UoNVog1CGaoek2coK7hIUUeaBMAAAAAgF8a4URhPG65kmM1p3dHTdvtkqNupJ5wxuvt+XM0cfDTerqbd+nYJkpRUfbSd53szhO2NO382Gwe0Vg9n/ZpHmH6V7wOmbe/D1OePdYMIOFR5sohxXsnT1bKhxO15KgU2HKQutoDiJ+Je1sv9Wiplh0XyhpJwhmpYcs2asfW5RoUZh0CAAAAAECJRziRi1u7Xm2jlmbQ0LKNOvaeqG0nvHs8yYe085Nt2rZ1m2JPOBX6SKTaPz9Iw0d5Z/GwloGNVcV7uFdWghLMWckaROixPK0tEv7mHZgyMryhdZtXyL3eyCIl1Rt3hHQbo14RgzT/ZXumEEOVe401x4PqOqKrrCyiWpga1w288pzMRRwmAwAAAACAXwrhRC5OhTR4Qi2eGaapk2dp+YcbtXHrDsXExOjdfiHyZDsU9swibd28XFNHDVLXlt4ZPC4tj4Tkrvu7znhbUgRVuRQoWLIPaZc1qGVDhTcoYlpQPkx9Xu2qEN/uGTU66LVVr2lQuwZXn7XjVIpSjJvQe0O82wAAAKWVJ1MuV6afx/m+ILcrQ+4sexMFSz+uvXsSlXLN5ylDSXsOKv7EBXv7RhjXKiNTie9PUe8VSXYZgJKGcCKP0DajNfr5DoqMaqzQaoEKNCclPrJQIxYlqEqPRVr0fJicRR2/Iee4LHfu/zzjtmuTmU00aKbH8ow34eVRQoL3D2dIzatPFlokLpd3XArGngAAADdR2roJatp0sfZm2wU3w5fvqFOndxRn/Iz4xSPUo/vlZemWnRrns92j+1rF23czeU4kau+B43Lf8PNL0MJOQzR000l7+xfiSdfeVSu08osMu6AoLshzXSFKhuK27dTeL09efxB0bLsmTXlHewuahe6KkrV+ykK9/vk13DF1uwa0HaJJ2/Kcm/S/alKn8dpfu4kC1y3WyqN2+S3FDntSiyPsAW6OUhlO3H57gFxni/4H2TzWvM/12v+xOUNGpPr0zDc6xJVVe1APmt054hP0j0v/AaZp3cpdxq1TzTu3yN2iIkf6Tm3fZ65EqvFVpwu9Ms/fFqqN2U1l8DqllQ9RZINiCjsAAAC+XOsTAniXoWuOGzsOak6v3OU9us9QdKr3biaPO6NYWj94MtKVVq+71qx9Re2c6TrjzpTrVKgGvj9fa4aGKu3UuVxBRPyGGZq04KDxucgu8GTKne9JmN+0+1TiTuUNPMxlsfYau1I+nJ6n3FhG78w1DlnczJ5q2rQIS5/NVkvXK3LcJZ2I0erFO1SkNgBfLDYeu7fmHLa3r0my9i54V5Nivr25PYOt55j3fMzVbmNXyooxBewbo9V21+t8jPdVpaA80+oFRWlg1wCt3ij1ee1ZRQRdpYKebbaKOan4nds1d/QYjfzoFw6giiBlrXleFivO3r6qU3/V3CkLFe0TzHjcBZyHrIJ+H4Bfxq9+NpgrFy9+YxUUh9hYc6AFr8hIe/TGYpRywqUjCaf0449FS/7MYOKhsGoKqXk5Cmj/zHzrdsvqedZt4dK0ru/TWnKsuabunqDIa2x5cGh+G7202a3Qge9qebcQ4z+wfnp2qfFfSd1B+mBZ1wK6Y7gV+2o3TdztlrPlLG18pXGe/wwuP59ZMRPU2Crbr2lRY7WrjvGYK7yPuX9GlMbuCNWgZRMUmpZiPKpTIY88qBCzJUgZ1rbnSOs2+r0R1m1xKVfuXnutZCrO39/SoKRfD5Rtxf37dqu9n0vy36ub/fmlbEpX9NgZ2uBTUfzRnS6XW3IGBamSz+emmt1e0cy2QfaWt8I+7osWenPLs6pnl12WqfgVC/T60fqaPKtV7m6tJrMyO16asnOwHLONx9lTUcGBAfo+PUPhvTvrxIpopVW7S5Wyzikto5F1XIT1GOlaP2iEltYYps8mNLIeyvtY1rdCudXprjVvtbpC19nDmm5UoI/1na1V3avbZcXPk5Ehd/mKCnT6fNF2YIWeHHtA4X2fU9i5g4rdeVgXeszWsk6Xz6/F7P6yZ7k6zUzV8+/MVs+adnlRuWI0stMK/dh9lHqFGJX1vSdVbXBfta9m78/DuqY77Y0iaDZ1tcY/bqz4XM+I8plKOXpOwXWqX5ptzp18XN/XqKVg82Osdezxgl+PcV6ajv1Woz56Ra0ufezP1N4pwzXpyKOa+X5fhVewi21J70/Q5E/O21se6z1khlmOykGq81CYHgyrpwb1w9SgbuUSNXSb2UKpx7LqmvnZYIXbZVdknZt/+5w343ehv/G7cPnP3iXNphvX5TF7A/iFmJ+HSmU4URyKHk7kVPSdav7qh5oQcQ3ziJpS16nfM0uUZPyRc1Z2yp1h/G9dPlSDVi1X17x/UD0p2vTnEVoY55ICm2vWexPUON+PK1o44XG75PY4rJ95aRrRU5s0cZFL7V/so4Z5/u8qKwgnbg2EE/AnwokbQzhR9uVUmi4HAgWzKrLJVwgAjryrTsN2KmTkIs1rbX8Tbjbb77U2f4uBpmbYUMuqbCVFmeFEqnqaP/+Ab6XXPDBJr7edovhuBQQKZkXe/CbZDAIq529xm7ZlrkZ96NP0Q+d15lSmPA4zGLnTLvOKGDlfAx+2N26IGf6M19IDeVqYGM/RaVTi3eVrKaJ1E0U+Uk/16tVQcE6A4Ru4mK/b+Bxab+givfZosvEZabNW70kyPicGKPjxZzVjUlSu8Md7/czWL5eZQVPNumZF/Q96qm0jheSp4Oewrmm2T/Bjsp5LpkZtGaVWlz7XeoMd5YQTx2I0d/MFtRv+R11YNUMvrJOef2uSetY2Xo/npKKnTNfrB+5Wz9de0fMVDhjHpivimc4KDzJbOFw+N99/tki9FyfaWwZnLXWZ+ooG1jmsSR0W61jXaVrTt5a905ZlXPcs8wvPADkDK8phv8dqFrWCnrpTI19YK+fQtzSl6fW01M5Uyp4YJQS2UKuHcu5vdsMJkKOQ82y61nDCtW2GOs27q8DfSysAMwMZZ2WV8e8xUYKZn4cYc6IIGvccpNDybu368zMasmibkk655fFpHnhFNbpq/huDFFnDYQUTjhqRGrZikTeY8HiMMpfSju7XpkUv6ek2z3qDiZodNGtVQcFE0TmcgQoM9AkmTCnHFLv3fUV/RVstAABwgwrs6pDTrWOf5hSwr8fY3N0druihzhpkVFzjP/TpvlCjlZZ9tlqr+prBQhOjorVaM1sYq58vNx5/hja7K8qVlCoFJWmp2a1k9kHrbpdkmd0+pDo1C2jp4KhofHaqXGAwYQpuO0pr1s73WYxKnlEe8szkPOW+wYRZCc/bJeFqi2+XhSC1n/WWPjVe82e+y8639NGkJnJmnVdIs1Zq9mity8GE6eHn9NGWVdaxVmW8WpQis5are5/liv9NZ72zZbW2TG2k7z9foQ1f2vexBRsV+Jyfk3Oex6+brzen9tXAroUHE4VJSTbeD84gBV/pfnWiNGpofSXNHO0NJpZMUpfyB7V03grN3XROzacv0JqR1bX9pf7qseFOPT/cDCbMOyZoadfheu65IerUaYg3mGgxyvv8P12kUfWPa/3iGKU5m6hn1yCjQr9Zu61B2HxUsK+7GUzYRdekRqjCKlxQfELuQMcMPdKOHtT6LYfzjW/iSdyskX0Wars1nIZx341rNXfVX2XUAryyDmp6654asK74upOcSTN+WO0aqpknmDA5Kpuvn2AC/kfLiSK0nDC5E9dp2qQl2p9vTJ5QDfpwuboW0rztirITtLDzEG3K+UvkDFWHIWPUp2XoFQbdLKjlhPE4bYzHUWvN2jhajQv8w+LR/rkdNXZrJfVa9oH61LWLyxhaTtwaaDkBf6LlxI2h5QRyxM3rqXGfRmnmzr6Ff/Nrfet+WO1fe0sv1rfLlGFUUodo7uEgdXlzvhpsNh7nlFH5rOkwKnffKn5bkpyP/1GhlY06efa3Wvmpz7fF9rfiobNWa9Sj3kcrCnPQzbmf2xuXFN5ywnTF1hM5387ntBy4Lse1stcEra4zTJ9OalRIxTpTuyf213TzudeM0pQ5fRWR03r2qi0E7POsvvrotSgFntqpF3q9q8RcFe0AtZ+zSi/arzN/y4kMRQ8botePVFTEmDma8mTOWBB5Wk54Dmtup7naXqGJRr3WT60qJ2j6c3O121ldIakn5eg0SfMGhMqRvFOTRr+ruPrGazZ+Ru7XbJyP7hOU0nfVpRYMuVoXGBX+SW0X6lj3aVrT22w9UXi3hsKEDpivZV3zNz9OXDZEL+wJ0/Pt7lLK3w4r/uhJucyWD2YLCDXS+E3D1Mz3S0f7uZzq6308z2cL9eS0c3px3SS1Nx/+8Ltq+9Jf1Xyh8b5/yHuXvC61cDHOUYMnW6hnmyg1qFl4yw3r2pzorjVLrtRVCfAfWk5cA2e9rpq1YYe2frhcs14ZpK5tWqu1tbRXw+sJJkzm9KDzZmnq5Nf07uYditm6XMOeulIwUZgwNX8qUHJv09iWUYoyB8DMt7TU2K1uqW57tSqjwQQAAPCDQlpQ5F5yz5hhqnmvUUHMvkprzkebqFn5TO3a69ORwxWv3dbgjkblcprxuGZlOaiRnh/ZV6NGtlI9BSmir7neVz0j7jIPvMyVrjTVUs0a9nYRNRicu2XEsuH15UjPVEjrJgr1XFCD4b77WqnH9Nn5ggl38mHFHc3I3T3DcsHYl6i45Ex7u6hqqWffRtKetVpdSAXb/dlybzBRp7NWveUTTJisc2FU/gs7F1kJijPOc2h4mHcA96AozdrkbY1xadm2SM8XUnm2HInWajOYaB2mhNmjNXJLIS0BHPU1cOE0rXl/sFo5D2tuHzOYaKGZC2frjYXtpI+mqPtL25VWwyhb+5a2jCwgjDl6ULtP1VN4/UIq6BUaqVVTo1K/aY/3PWO8T7q85fNacpYl7YzKe5B6Lsm/zzeY8Hy5Vr27D1HbFj31wroM4/dgnz5JuEuNOw/WG++v0qdvd5Y5gX/EuH65gwmT/VyStsZYrYIcjzVShOOcTtnTpsbH/FVu5x8VkX8wljxC1b5HLbk/fVcjn+utJ3vN0NJPj8uV702WoTPmF6w1qxNMoES7ZcMJh8P7h+u773MGwCkKh5zVQtW4ZVcNGjVao62ltfFn4fo5azdWZFRDhVQuajuq2xUSaYYiDVTFLjGFDdmoHZvf1WuTp2pqIcusZcYxiwsahLNsyLmWOdcWAAD8ArIvyHUqQE/Nyl2Bz1nmtrsz34wZpipBZkXvnM5castu1JeTT3qnPs9RvrYaGJVf9+HES7NYuD43KpfWFzn1FVFnu9Z/Zq6f1Or+/TVgyh6dcJ7T3lULNaDtGK1ONvf5cJ/3Pv7RfdqeXLSB1X15Ug9r5XijQjr2sOpMmK83RvbQUw9d0K4dB+VRphJXTVGnsdHaeyQ1Txfg41o/ca7GrUkoIJwI0ImtizTuheXam7fLgenUTs2d+K52+74Ws9VD097qtDjB2EjX6g/Nn5+HcczImXa3ltohCsnzUdOTblwT1VBw/oYAFs+Bg9prVNLDH7YPKB8gp2/XEVOFioV3BXAf1vQpO+Wq31kDhw/TO1PrK2XB5EIDCmftWrr9wLvq3XWh9td+VsuWPKvwyuYXhJ21bO1ghaeuVe9OM7Q68UKBYzHEf7JTafWbqPHl8e919ttvpTq1lDPMW3jHZ9VzZAuF2dsFcR1LUprxuqsVcl5yOOpGGa9rtJZ9tEqfbfN28XGGNfJ2sSmfoDkvrdWZpqM0umlF7x3yCG/Tzvj8n6FTp4yNCk005VOzpY1xftNjtHpbpoI7PKEGV/3C0rg+XQdr2ZZV2vL2MLWvlq7o2RPUqe0Mu8tIDo/c1nvrnOJ25u9mApQUt2w40eChB6zbVR98fI0Bhb8FqvEzBYcijsohahgVqchClsZ1A3OPQVGGmNfQvJamnGsLAAB+KSe1elhBLSZyxqDIz1HD/BY3UfGXpjZM166Z5rSNvrWqygqtZ9QSk1Nl1uGUfVzRG5LU7Amz20BFNR8wTc9fQ/cML49iN7+jNbvNwS0Pa26Lnhq38wqtFrIvKOXAdk0f1F9PPrdYu4+ZoUaoIh8PksN4fu37tpDzs+Xq3nWIXvq8lsa/s0Az29bK9ZnL/dlmrU4NUpdujVTQkGL1+vZTqwoHNX1BASGDUVne/vk5ybelrjn2xs63tHbJHK16bZRWDc/TkiD7pNWqJKl2EzWrbZflkXbKeP3OuwoZC+KC4mIOGj+niSKsHk7HtX3eCq3+smitOzypMZputn4oH6Upk1oYlXXjRz0+WPMG3KP4BZM13Xw9PtzHYvS6cX47TdypFOMEeJK3a3Ifn/fRsA1K9BgVd3eiVo4eoie7ztXKL9Ivn6usg4o2KvQR7f7oM03/BaWlG8/XWVG32yWq20LPP3F5FpD8MhS7I1F6qFGukKNAzuoKN4MIc4ySCmEKry8lxSXI5TmulcOM1x7UXfPG1C/welse6qxVb/ZVRK4W2Jnau2yt4itH6cVueQbuvKIAOWs30sA58/Xppkl6sXcrNS4oXDm1R+/P3KM448SlfTRBTbtuKNp0tMAv5JYdcyI5RXr51Tfl8Vx7ao6Sy2w18Zc/v2B+QVCsGHOiZGHMCfgTY07cGMacKIOssQtiFFHIVJWFz97hnTkj+mF7zAR7do6wSas05YnL39CnbVmhlVlNNKhTPTkPLFbbxUF6Y0C6Bkz0mUo0u7OePxGtvdWMGuLhw1J98zZVEUYFb+UKn9k6jJ/R1vgZbqvZ/nw9X9l47t2vPjND4ooZ2lSplXq2DpNj25Q8rydTcTNHa9zntTXqnVFqlbdSaLYgeG6uNU7C2gl2OFHAmBPuzxaq7bTj1jgaA32a8xd+/gpzQYnLxuiFj+7UwLcHS9PGaGntUfps3KVBOyx5Z0txnUiXs6YZuBjSd+qFru/qbC97fIZTRTtP1mO6mqhZ8j7F131WMye0UGiu8MN7rpY6wnTntn0Ktl+/+RqHfvWEZjZL0oBpvrOrXHbpPGzrLC1brvjw4XrxMW+rBGvfmlDN2/SsT2sD7/trV4tJ2jK0aO2cU4zH6b3sWzWbvsh4nXlaiVyF9/kFafy2YVZXJLeu0KqkQBeUsnaKeq84a/z8OcbPL7jFRY6c81G02TpyxmkxVh8frE+nNlG8OebL0atNlwv8cm7pMSfur32vVYkNf9j4T4ZuAKWeeQ3Na2leU/PaAgCAX9JJrR/t8023z1JYywmz9UHnHkbFd887mrRqgyaZXQBqtFPPx3N/Lgtu21fju9ZToFHpdDzaQ29Maq3QfJX06uq5ZLqapR9UkvuCkg4HqOf7s9Uzb6uBwCBvRcxZX43NMbgqB6ma8VjxO2KUkmXu8PK4M5R29LCS7EYc9fq+YjyH+grx6dbgcacr6cBOrZw4R9G/7aeBNc2xEmZovW93EbMFw+i52q0mGj204FYTOZxPtFL7wHSt/3BfrtYTwY83Mc7UPi2cZjxHc6rTS8xpNI3ncORkntYWAarXpIkiBgxWlysMkGilEKeOKzHZbBUxRp2m7Ls0k0rS1u1KNK9PG/vb+5zzFHNQrkvnyfz5GXL7nDdL5UYa/f5bWjs1bzBhqqjwcYu0amSTXBVic4aQj6YXdHwBHEGKGP7KpWBC7n1auuK48T55Qg3cJ5VkDlJqFu/ZqV3uimoeUZRgIlOJ6+Zq5LLjCmwxWMOuMZgwBdf/g/GaDmq/GQA4rjGYMKdLHT/cCiYiJsy4ajBx7Sqrih2aNQg36j7GbaDxu6DkffrksM84KNnmNT2p+C/zvqeAX8ZNbzkRFUUTewAAUPLFxPzbXqPlxDW57pYThuwM7Z49WXN2pssTVF+j5oxSqwIeIx9rFg+flhOpTdTMfVhpT7VWlWV/VfDgMMWtSFJ424pa/5HPbB32LBG7m16eUcKduF1z5m1T/Amjon2pL36AnNXuUivfGTeyMpR05IA+WbVB0UczpfIVFVK/viIimijisTCFVj6n7cZrmftZhgIfa6fRA9or3BwDYNoGeXoPVpfaPhXeAlpOmNI2LdTctCYaP6CRFcbkcCfHaPXi7dp+5KTcPrVGZ1CQKtVupbmzWhTy7bc9I0UBLSd0YrtGvrBW8W7jtdaL0uhx3RVRw3iOHnMay4Xa/XjuWUDcBzZo0rKdSkj2Vv4tRiU8fPB0zWzrrfnmn62jMHlm68jhc10LbTmRa98FxS8br3HbamnKOnNGjn2a9Nxi79gdxvUJ7TBc8wbXu2IoZD5G0vtTNHRVqur0ekWzeode5fjCXHtLDWWdVNyWaC1dtU8pClXP10br+XpFCyaureVEzvEePZ/ze2r87u19Y4GW7jmutAyf0MtZWcH12l/hPQXcHGbLCcIJAAAAA+HEdSownDArjVM0d895/eg+J0+dznpjTiuF5A0nrlfecMLTXcu6/VEhdc9q17yDqvJMZ9XcM0G9V6RKNdvrjSXt7NYWGYp7f4P2BjbXqNbX0qffcGSDei87qfCIRgp/tL7CalYscOwCc/yE1cv2ydHbrGjm/gY+acUIDVhrN8coX0sD356mLkUJY67bBaV8eVgnjJ8VXt/uslEUnky5syvKWZSWDD6uFk64tkxRpwX2KAcFvX7ruh60gqFKdlGOH93pcrmbFBhcFAdPljnQ5rW3mPC1d1pPTTrQQm9ueVZXnWjD4E7coJFj98n5ZHeN6ttIwdfQ2iJty1yN+rC6Rq3trgZ22RUZ78u5mzMU0budwq82ngbgB4QTAAAANsKJUsSoPLvc5pe8Fa0WDWZFOtAcmLCks563+S11gPXcy9pA5WZ3mCtei0uvX3I4K+fv+uBzXfOdmyxjX1Yh+0oK4zl6HGXvugK/hFt6zAkAAACUUkYFMDDQWwk0K7mlIpgwWc/beL72cy9rrnotLr3+AoIJk891zafCFfaVFMZzJJgArh/hBAAAAAAA8CvCCQAAAAAA4FeEEwAAAAAAwK8IJwAAAAAAgF8RTgAAAAAAAL8inAAAAAAAAH5FOAEAAIDrk5UpT7a9bso4ru3r9inN3vS6oMRt27X3WKa9DQBAfoQTAAAAuHaeRL3+XH89+cIGJbrtsvInFbdisaZvybALDEejNX3eNsWm29vFzXMhd0ByzRK1tPsIjdtyPU/wguLmjVCPsTvzBDIAgGtFOAEAAIBr56inF9+epJ7arBcGvat4M6BwNtHAvrWUuGyD4qzAIF3rF2zWjy2e07BHK5oFBbig3VP6q/foxVq6bp/ikzPkzrJ3XUXczJ5q+uRyxZe3C4oi+4LcLt+f4dGZU+lymdv2vrSjSUop0nMIMO6erjTXBXsbAHC9fvWzwVy5ePEbq6A4xMYes9ekqKgH7DUAAICSKybm3/aaFBlZx17DVWWf1O73/q2a3e7S7j7vam/WOaVlBSg48E5r949uo+Kvygp2OoxjXtHMtkFWuS/3scPatfdviv8yQfHH0uX2GIWO6np+4Wz1rOs9Ji+PO0N75w3R9BOdtertdgqxy6/q1E6Ne2m7Elz2z/FVvqICg+7U7aqhzq+NUvtqdrl9nxPmuvn6Mq4eRjSbvlrjH7M3AABXVK7cvYQTAAAAJsKJ4mW2ahh37CrBQdZJxR9IlbNeI4X6ZBZm8HAm9axur1NLgXlaRViPu9PeMPdlh+rFda8oPHmnVr4Xrb2JmfI4ghQxdLSmtK7uPe6KDmt607k6MWC+lnXNH5xYrOf5rZx1a6uKwywIkLNyRTmMn289n+TuWvNWKwVbBxuyza4mAXJYxwIArsYMJ+jWAQAAAP848VfNnbJcn5yyt20OZ2UF180fTJgaDF2kLZ+u1mefzdfA2lLwk43kXjBcveclKrTvHG357C1Nefy89i7Yrjj7Prl4MuUyu3XkbTVhsrt1uJITFX/Cp3VEhepq8ER9hVarrMBAc/EGE4UqTzABANeKcAIAAAD+4UpXmu5RtUIaLBTEDC6cZsXfnaSEZCnt07XaHfic1q4dpS71K8uhiqoTeo+UXVD6YDgSraGDRqvtkz3VtKm5zNVuozhp2Qg1bdFf3V+YrKHjlyv66BVmF0k/qNcH9bfuf6kVBwDghtCtAwAAwEC3jmv05Vr1mHfQHoOhkQYOzdTmDan2To++T8+QO1tyBgWp0qVWBvX14vvPKtzeTls3QT2WVdeUbe3l2LJd63ccUEJypnFvg7O6GjzZWaP6NlJwvlYImdo9sb+mfy6F9p6tN3pVl+8hiW/01wuHWxdxLIp0re8/QrubXaFbRy7HtbLXBEXXHaa14+rrxIoxeuGjWpqyZZgiKtiHAACuCd06AAAAcH0e7q41a+drzZhG1mZw21HebXN5+zk1sEqlKu1GXy5fezmYMJ345rjkTNDCDpO1Mi1EPScs0JbPzC4bq/Xpm50VfGChegzbnm+azrSPZljBhKlmndzBhDn7R1p6plQj6PIYEMUpNVFxqVJ4s0Zylg9Qvd+HStkHFXfE3g8AuC6EEwAAAChGmYpb8I72Vm6iUUMbKWXFYq22prnIK10pZmNbR231XLJIy4a3UIPaFS8FDY6ajTSqbxPp6D7t9R2T4sR2TV52XKFNmxTSKiJdaaneFhv5GlzYXJ+v1cg+/fWk1a1jhJYazyPpk83afjTD22rjSqrVUphTio85KHe28VpjEuwdAIAbcdO7dZTUZpFms5Gvk7/Rh9E7FH/k3/J4mJ+6NHM4AtTgoQfUrX1L3V/73mJ9P5vM90tJVtyvt6Qr6dcDZdut9veluJXkv1el4fNLifTFYjUdL03ZOVgR2enaPnuy5n5+jwYueUVdal9Q3MzRGvfZ3eo5Z7R6WmNC+DAHp/QEKNAZYBfklrRihAasC9XMTwd7W1x4krS0zxStd3bXqnHSjOfWqma+KTvzzL6RnaGUUxUVUsP+Gcc2qEf/zXL2naY3utYyns9Jre4/RivNACXbzEpaaPysZxVxhR4e7sTtmjNzg/amGp8fzeeVXU+jPnpFrQK9+wEA1+aW7tZhBhMvv/qm4r5MIJgoA8xraF5L85qa1xYAAPwSLijl2Enj9rhS9mzXC21HaGVWa81bawYTZhhQUeHj5ujNvkHaPXaI2o6Okcu6n81RMX8w4clU2tGDWjl+iAas9Sh8ZOfLXUEcoYp8opEGjmulEJ/uIXndbuxLS0pSytEYze0zRJP3pNt7jPIv/640NdHz3Wt5Z9wwZ9Ywb5sO05aF7VQndacmdZ+glYmFD4jprNdKU95fpc/e6a5QYzuwdSs1J5gAgBtyy7acmLlwh1WZbRbZSL2f/pN+XelOew9Ko+++P69VH3ys3bEHFf5wmMYNa2nvKR60nChZaDkBf6LlxI2h5UQZ4k7S+pkLtPTAnWr2hEO793gU3qmVerVroJqB9owavjLSleJ2KLha5dzTcGYn6vUOMxTttrcVIGe1IIU+HKUu3VooPKfFQ16p2zWgV0EtJ6SUj2Zo6LJEuctXVL0n+2n8YJ9BNQ+/q7YvHVCDMZM1/skgKXmzhvbfIHf3aVrTu5bxPA9qep+FSnzS2O5rbBck66TiPlyrOWsPy1Wnu1a9eeWwBABwZebnoVs2nOjS903r2/bVS6YSTJQRZkDRc9BEq4vH+hUv2KXFg3CiZCGcgD8RTtwYwoky5Mi76jQlXT1nDVP7OgFyH9mppe/t1P6jJ+W6FDTkUb6JpmwbrIjCBoO4FlknFX8gVapTXw0KCzAKlKnELe9o8aqDSswwW88GKPjxzho/ppXqOb1HyPiM6MlpUZGX+7Dm9pmr7RlBiug9WKM7hcpJMAEAN+SWDifaPzPfut2yep51i7Khbc+R1m30eyOs2+JCOFGyEE7AnwgnbgzhRFlyQW635CxkvIgy7UrhBQDgmpmfh5itAwAAANch4NYMJkwOggkAKG6EEwAAAAAAwK8IJwAAAAAAgF+VynAi5YRLWz9J1P+J/nuRFvNY8z5li0cJW9cp9qjLWMsvaesczZn7vvaXtZcNAAAAAChzSmU4cSThlB5vEq7OHVsXaTGPNe9TLLLccrlcxpKmpLhY7U8ubDjqmyx9mxbPXaKJb+5RQc/gzFfbtG1rrFKy7AIAAAAAAEqoUhlO/PjjBQXeXdneujrzWPM+12r/3ChFReVZnmqjjh07GsvT6vfyRI3tO1Gb0u07XANPhksp8bGKjTGXQ0pxueXJtncWQVL0eiUYt5H/u7UClaRtc+doznv7RUMJAAAAAEBpw5gTV/BARB+1btNaXQdO0NTJU63ltVUb9e4rkQo0Dygfog4zpqpDkHX41WW7lbB5mvq1iVLLdh317IiJmjjZXF7Ssx3bqGXLNuo3P1ZpBfXT8JW+TUs+TJPqDNKgKHOi8DOK37pN22JT9KP3iAJ53O4Cu4AAAAAAAOBPhBNXEBjeS6NHjdagbs0VGRVpLQ9887ZG/CVWrsDGGrZiuYaFO+2jryJ9l6Z1a6Mh83cprUYHjV72gV7rHGztajjiA21dNUuDmlVRyuaJerrNEK1LLixG8Gj/8iU6lO1UhyFd5X2EK/HIdTRW62Y8qzZt2qjl3P12OQAAAAAAJQPhxDVw7Z6oZ/68Ta7A1pq6apY61DZbLRTBiXXq122adrlC1PrVjdq6bJha1w2W25Vm7Q6uFixn7cbq+sq72ji/g0KyE7Sk71htK6i7yJElmr3DHGWiscIbeIsKl6S3e7dUxwETtSTG+7NoOgEAAAAAKGkIJ4rErYTl/dTx1Vi5H+qlRatGK7KoQ15kJ+ntcUuUlB2o5q8u0ugIq0OIIUlJ5qARaqh6oVaBxdlgmOaPaGjc75DmLIrNnSW492vapE2FjyuR7VZK3DpNG9BGY3d4ixy1m2vQX97Vjk+mKtJbBAAAAABAiUI4cTXZLu169RkNWZOkwKgJ+nBBH4UVsSeHybV1gd5PlYJ7/EUTmvjc0fVvWROIVAvTAzl5hS3wqZ7qYB4aE62dOUlEdorWjRyrXQUkEx5XmnfGjuT3NfblJdqVGqyQGmZBqHpNnKCu4SFylDe3AQAAAAAoeQgnCuNxy5Ucqzm9O2rabpccdSP1hDNeb8+fo4mDn9bT3bxLxzY+M3n0XSe784QtTTs/NptHNFbPp32aR5j+Fa9D5u3vw5Rnj1S+ocKjzJVDirdaV0gpH07UkqNSYMtB6lrHW3Ym7m291KOlWnZcKGskCWekhi3bqB1bl2tQmHUIAAAAAAAlHuFELm7terWNWppBQ8s26th7orad8O7xJB/Szk+2advWbYo94VToI5Fq//wgDR/lncXDWgY2VhXv4V5ZCUo4Ztw2iNBjeVpbJPzNOzBlZHhD6zavkHu9kUVKqjfuCOk2Rr0iBmn+y/ZMIYYq9xprjgfVdURXWVlEtTA1rhuoK46EUcRhMgAAAAAA+KUQTuTiVEiDJ9TimWGaOnmWln+4URu37lBMTIze7RciT7ZDYc8s0tbNyzV11CB1bemdwePS8khI7rq/64y3JUVQlUuBgiX7kHZZg1o2VHiDIqYF5cPU59WuCvHtnlGjg15b9ZoGtWtw9Vk7TqUoxbgJvTfEuw0AAAAAQAlBOJFHaJvRGv18B0VGNVZotUAFOh3SkYUasShBVXos0qLnw+Qs6vgNOcdluXMPbBm3XZvMbKJBMz2WZ7wJL48SEpKstZCaV58stEhcLu+4FIw9AQAAAAAoYUplOHH77QFync2wt67OPNa8z/Xa/7E5Q0ak+vTMNzrElVV7UA+a3TniE/SPbG+ROQ7FupW7jFunmndukbtFRY70ndq+z1yJVOOrThd6ZZ6/LVQbs5vK4HVKKx+iyAbFFHYAAAAAAFBMSmU48VBYNX2+L04bNm4r0mIea97n+qQp5T/mrUOOax6vIUwRzZySe5OWbDA7VdgDW5rjUNTtpT5NCnpAt2KXLtGhbMnZspUiK9jF18nx2/b2mBiv6d3Ny9XLHkwTAAAAAICSolSGEyE1A9XmqXr63+3/UKTFPNa8z/UJVshvzNv9it1ndYy4Jg279FJoeSlp6bNq066Nnl2aJJUP1aDxXfOPE+FJ0aaXn9HE3cbPCWyuCS82vu7xKxu+uFEbN85XhzohamiNidFQIe5tmvjnt3Uo3T4IAAAAAIASgDEniqBxz0EKLe/Wrj8/oyGLtinplFueS900rqJGV81/Y5AiazjkznDLUSNSw1YsUteaxj6PxyhzKe3ofm1a9JKebvOsFsa5pJodNGvVBDXOM8PHtXA4AxUY6JTDd4yJlGOK3fu+or/KNQIGAAAAAAB+RThRFDW9AUPjIJcSNsxRv25t1LJZlKLMsRyi+mndKfu4QjjrddXUNd5ZP3asmaoOte32EOWT9Hbvjnp6wFgt3HBIaY5QdXh5ubauGqbGlb2HFE0lVTKDjFMnlFJo7uDR/r17jNtghdx7ve0xAAAAAAAofr/62WCuXLz4jVVQHGJjzUEVvCIjS+YgB+2fmW/dblk9z7otGo/cp1L0j68OKf6rE97ZL1RP7Ue11jUOlXmJO3m/DqU4FNLgQYVULkpokKZ1fZ/WkmPNNStmghrbpQmLOmrIBpe9dQV1B+mDZQV0KSkj2vYcad1GvzfCui0u5crda6+VTMX5+1salPTrgbKtuH/fbrX3c0n+e1UaPr8AAFAWmZ+HbtlwokvfN+XxXNDqJVP160p32qWlgUv733tbe7/NH4p4MlL0j/gUOzTJzxH8oBrWCczd1aMM+e778+o5aKIcjgCtX/GCXVo8CCdKFsIJ+BPhxI0hnAAAAHnd0uHEzIU7FPdlgppFNlLvp/9UygIK5GUGE6s++Fi7Yw8q/OEwjRvW0t5TPAgnShbCCfgT4cSNIZwAAAB53dLhRHKK9PKr3tYTKDvMVhN/+fMLqh1iFxQTwomShXAC/kQ4cWMIJwAAQF7m56FbdkDM+2vfa1VizW/ZzQotSjfzGprX0rym5rUFAAAAAJQet2zLCQAAAF98fgEAwD9u6ZYTAAAAAACgZCCcAAAAAAAAfkU4AQAAAAAA/IpwAgAAAAAA+BXhBAAAAAAA8CvCCQAAAAAA4FeEEwAAAAAAwK8IJwAAAAAAgF8RTgAAAAAAAL8inAAAAAAAAH5FOAEAAAAAAPyKcAIAAAAAAPgV4QQAAAAAAPArwgkAAAAAAOBXhBMAAAAAAMCvCCcAAAAAAIBfEU4AAAAAAAC/+tXPBnPl4sVvrILiEBt7zF4DAAAofSIj69hrAADgZitX7l5aTgAAAAAAAP8inAAAAAAAAH51U7p1AAAAAAAAFAXdOgAAAAAAgN8RTgAAAAAAAL8inAAAAAAAAH5FOAEAAAAAAPyKcAIAAAAAAPgV4QQAAAAAAPArwgkAAAAAAOBXhBMAAAAAAMCvCCcAAAAAAIBfEU4AAAAAAAC/IpwAAAAAAAB+RTgBAAAAAAD8inACAAAAAAD4FeEEAAAAAADwK8IJAAAAAADgV4QTAAAAAADArwgnAAAAAACAXxFOAAAAAAAAvyKcAAAAAAAAfkU4AQAAAAAA/IpwAgAAAAAA+FXpCSeOxWjuvM2Kc9nbAAAAAACgTPgFwokMbX+pp5pOOyiPtX1Y05v21PTPrQ3pi8Vq2nSx9mbb24VJT9T2bX9VktvetqV8NEMvzD6oNHsbAAAAAACULr/62WCuXLz4jVVQ7NJ36oWuG1Srwx8V/8Vho+C8zpzKlMdZWcFOh5R1TmkZF+QMClKl8lLEyPka+LB5x0Qt7b5ce81Vk32co3KQqlTwFjmM27QTHjWfNEejHq/oLQQAAAAAAKVGuXL33vxwIvGNIXrhSEutWtJOIeXNErPlxFxp6mqNf9zYNFtOjJem7BysCGt/Iazjjuv5d2arZ00pZd0E9V52Vs2mzjEeh2ACAAAAAIDSyAwnbm63jvQYvb0lQ6pZ3Q4mTGEa9tEiDbNaRxgefk4fffScwu3NonB/sVgjlx1XaN/xGk0wAQAAAABAqXYTW05kavfE/t6xJZoO02e90zWg11ql2d03ChM+fL5erLlT417arhN2meVSt47Kcrgz5M7Wpa4glsf7ac3gevYGAAAAAAAoDW5qt460TVPU441vFRiYIVf9nHAiRhF2t4xr5T6yXdOnrVW8s5WmzOms8MAAew8AAAAAACitbu6YE8e2a/qX9RX5nzGalO0TTvStpZUrDspZ7S5VslpDyGe9Ub6xJzyph7V0ylxFJ1dUvbbPaXBURZ05dVIJcYcV92WSUmp21po5rRTssO8AAAAAAABKjZs75kSdVhrftboKzgwaafT787VmTKM865d5ThzU0peG6MlecxV9zCioEKCzh2O0acfflOC6S2FtntO8txfp04UEEwAAAAAAlGY3fbaOuJk9Ne5Sy4mDemp4kF5fcOWWE2HbZqjTG8cV2rSzBrY8p9dH71SD197Si/XtBwUAAAAAAGXCLzKV6KVwotlB75ShU6VJE+2pQw/4TCPqu17+gtxuyekMkMsMKhYcV2DQnbrdfswcP7rT5XI3ydcVBAAAAAAAlA6/aDixKnSzeu9uojW9j6vH+KKPOeE6elAJGTXU4NHqctplORLf6K8XjrTXmrdaKdguAwAAAAAApcfNHXMil5Pau/u4gh+tZ4cIVx9zIkdg3UaKKCCYUHaSYr/I9HlMAAAAAABQGv0y4cSJJCVk1FPnNrXsAl8XFL9sgnrMPihHnRqqZpcWLEPbJ45Qj+7G0mmG1mdHaWDngh4TAAAAAACUFje9WwcAAAAAAEBhfsFuHQAAAAAAAAW7aS0nzOTj6+Rv9GH0DsUf+bc8ngv2HgAAAADFzeEIUIOHHlC39i11f+17aRkNoNS4qbN1JKdIL7/6JqEEAAAA8AsyQ4q//PkF1Q6xCwCghLup4cTMhTsU92WCmkU2Uu+n/6RfV7rT3gMAAACguH33/Xmt+uBj7Y49qPCHwzRuWEt7DwCUbDd1zAmzK4eJYAIAAAC4+czP3OZnb1POZ3EAKC1uWjiR052DYAIAAAD4ZeR89qZrNYDShtk6AAAAAACAXxFOAAAAAAAAvyKcAAAAAAAAfkU4AQAAAAAA/IpwAgAAAAAA+BXhBAAAAAAA8CvCCQAAAAAA4FeEEwAAAAAAwK8IJwAAAAAAgF8RTgAAAAAAAL8inAAAAAAAAH5FOAEAAAAAAPyKcAIAAAAAAPgV4QQAAAAAAPArwgkAAAAAAOBXhBMAAAAAAMCvCCcAAAAAAIBfEU4AAAAAAAC/IpwAAAAAAAB+RTgBAAAAAAD8inACAAAAAAD4FeEEAAAAAADwK8IJAAAAAADgV4QTAAAAAADArwgnAAAAAACAXxFOAAAAAAAAvyKcAAAAAAAAfkU4AQAAAAAA/IpwAgAAAAAA+BXhBAAAAAAA8CvCCQAAAAAA4FeEEwAAAAAAwK8IJwAAAAAAgF8RTgAAAAAAAL8inAAAAAAAAH71q58N5srFi99YBcWl/TPzrdstq+dZtwAAAABuvrY9R1q30e+NsG5RNn377W36+uuvdeHCBbsEyC8gIED333+/7rnnJ7ukZCpX7l5aTgAAAABAaUMwgaIw3yPme6U0IJwAAAAAgFKGYAJFVVreK4QTAAAAAIBbV6Uqqlo1SHdXsLfhF4w5AQAAAJQhjDlxa4iNPWav4UYF/76J6t7tUeqBvykpyy60hT4cqeCK9oYpM01fe6ro/rscdkEeF87q6/1HlGpvlhSRkXXstZLJHHOCcAIAAAAoQwgnbg2lIZy4r/7jRiXeo7SYAzpqlzlDwlTv3iqqGGA34v/JI/eZFP3rn6lye0ukSjX0uwdCVMXp0G2/MrZ/vqifss4q7XiSvv72B+8xhrqPRim44kV9l3JAh5Ivl+u3jyqqmkNnj32uv39zn/7w+P26+zZ7n4+L2Re9K+XKqZzxcy5tmzLTFPtlkr1RiAq/U+PwIP303wP629c/eF+v83t9/fnf9V/7kJKiNIQTdOsAAAAAANx81R7S72sHqaIylfaff+qfSSk6ff6iKla9X78N/bX3mAq11fAPoapaqZw8Z1OV/M8kpXzr1sU7qui+39bX76p5D7usnH4dHKpgeyu//+rvn8coJuU7XdRPOnvMWI+JUVqmcU9PuhLOeFTuVx6d/XeSTn+fofRvjur0j+VU7rbbdMcDjygyIjLP0lh/+P2jRmW/iR4NqyyHPDrvE5jogkfp9iquDeEEAAAAAOCmq1HVrMz/pLMn/qajJ07rdGqy/hm/X4cOH9E/kr6zjgn57X369W0X5U49rANfJSnltBlQHNKhY2fkKXeHqob8TndbR9qyL+qio4pCwqrYBQWr6rxD5X7+QZlnvNs/ZGYqM+s21a5yhy660/X1xUBVuauy7ix33rsv8wfp339T7N7YPMt+/f2rAzr073RdvMN4TOMV3X3//apaQaroKKB5BoqMcAIAAAAAcNNl/vST8e9tqlC5qu7wFlnc587K2/agtqo4jSqq56xSky518rD8cDJJ6WZRhcqq7ptO/OyWO0u6o0pt3V/ogJZ36K4KDuNxs+Syx5RI+UeiTpevLGd5o1JcMVgNH6gih1E9dtZoqJC779DFH5ON51RDDzXO03Li4VDr8e68+25VvO0nnU1N0/k7gnVfzftkZhMXf/J4fwCuGeEEAAAAAOCmO/ufVJ29YFTt/9fv9GiTRxT2m2A57X2Wqk7dUd6o4P/gVppddNkP+n9ZZoRxhyrkaiSRrfTUs/qpnFPBde/LFXpcUuE+VTKDC0cVhUVEKioqSo8/Xl+1K98mZZ3W/thYnTYf2l43W0j87d/mHVN1ZH+elhNJHoU9+oh+d89tcqcm62S6x6hVl1PFe2qriuOiMr87bQctuFaEEwAAAACAmy/rv/r7oX/qv65MXQxwKqhmXT3yxON69Hc1vKFCQDmrgnrxotnCIr+z9oCV5fL2nvjmqFK/u6jb7rpPofnGpJDuCLlbzl9JP2UkK3bvaWUaZbfdVpQuGAW0nAh16NTpVH3990NKC7hPv6sfojszU5WwN1YxMbH6W54WHyg6wgkAAAAAwC8j67S+/uqAPt9jjjuRrszs21SxaqgaPhQsXbgoM34oly998Lq7vLf6mj+7+EHJyaeV+bNDVWrWzT0mhYIVGug7F6jXD6f3W4Ni6o4gPRoRaY0ZkbMeGfGI6lpdRApoOfFlks6kJOu/535QWuJ+HUo+K/36Pj3UqK7sIT1xnQgnAAAAAAC/MLfS/pOgA1+myv2z5Kj0v1T1tFs/ZBuV1DucBcy+cYf+VwWzfcUPyrIHtczl7FH91+WRKlZVbd+xJ+6+S3c6jFvjZxToh3Qd2Bur0+ZYFPZ67N6/6ag1NoU5DWmUop6wW008Yaw//gfdF/I7/SGsoRobZb+9/YgO/StFKad/UNXf3a8ahY57gashnAAAAAAA3LA77qmt2tUvj/rgMLtO/GxO4Ol1R/X7db/PfkvWT7ro7a1hSNYZt7HhuFv3/Tb37Bt33FfXHJLCOD5DJ896y/JKO/Zfnf2pnH7tvMNqgWE5+0/940iKvsu2t/OqUPVyywl73Ww5YQ57mcPbHSRWyRneV+K8u4ruvruibitfzlju0A/fJis5/TZVDrpP99e7v+BxL3BVhBMAAAAAgBsUoroPhCikTn099JsaqhHaUMFmmHA+Q6nW/mCF1rpP9z3wqJo8HKbaNaqqao3aCmtUQ78uf1GZrpM6bRyV8q9knb1QThWrhanxH0IVUrWGav/uETX8zd267WKm0o79U4VkE9aYFkdPuXWxvHfsihzuMz/JzCZuq1xbkRFVlauTR9bpyy0n7HWz5USSd28BblelirfpYmbmpdDFFBxcTmfPelSuUpDuz92vBEVEOAEAAAAAuEEpOvrvVH13wRz3IVShNX6tcj+c1X+Tk+zZK9J0JN4cDPMHlbszSCGhv9PvQkMUdPtFuU9/ra/+ZffVMAfN/CpJp7//SbfdZQYToQq5p6LKZZ3Rf//1lY4W1KXDxw/HknWmkOkyclpAxMTEaP8/iz6nhjfUiPTO7nFbRVUM8OjsqazLrTN0h+4KqqH77vAo8+c7VPm+/J1ScHW/+tlgrly8+I1VUFzaPzPfut2yep51CwAAAODma9tzpHUb/d4I6xZlU2zsMXsNV2fOunG/KmUma99X/7XLpLqPRim4wkWfbiU+zFYUfzunkAYhujPrvzr0r7yTm96nP/zxft19m/f+5cpJmaePKvXHirp4Nk1p50rWhKKRkXXstZKpXLl7CScAAACAsoRw4tZAOHHjgn/zO931q++U/HWq3bqj7CoN4QTdOgAAAACglAkICLDXcL3S/vNP/fMWCCZKy3uFcAIAAAAASpn777+fgAJXZb5HzPdKaUC3DgAAAKAMoVsHgNKGbh0AAAAAAMDvCCcAAAAAAIBfEU4AAAAAAAC/IpwAAAAAAAB+RTgBAAAAAAD8inACAAAAAAD4FeEEAAAAAADwK8IJAAAAAADgV4QTAAAAAADArwgnAAAAAACAXxFOAAAAAAAAvyKcAAAAAAAAfkU4AQAAAAAA/IpwAgAAAAAA+BXhBAAAAAAA8CvCCQAAAAAA4FeEEwAAAAAAwK8IJwAAAAAAgF8RTgAAAAAAAL/61c8Gc+XixW+sguLS/pn51u2W1fOsWwAAAAA3X9ueI2wM2U4AAAnwSURBVK3b6PdGWLclVbly9+rr5G/04aYdiv/Hv+XxXLD3ALhRDkeAGjz0gLq1b6n7a99b7PX94mb+PaDlBAAAAIBfnBlMvPzqm4o7lEAwARQz83cq7ssE63fM/F0rDQgnAAAAAPzizBYThBLAzWX+jn0YvcPeKtkIJwAAAAD84syuHABuvvgjpeN3jXACAAAAwC+OVhPAL6O0/K4RTgAAAAAAAL8inAAAAAAAAH5FOAEAAAAAAPyKcAIAAAAAAPgV4QQAAAAAAPArwgkAAAAAAOBXhBMAAAAAAMCvCCcAAAAAAIBfEU4AAAAAAAC/IpwAAAAAAAB+RTgBAAAAAAD8inACAAAAAAD4FeEEAAAAAADwK8IJAAAAAADgV4QTAAAAAFAGVK0aaK/l95vaNew1oGT61c8Gc+XixW+sguLS/pn51u2W1fOsWwAAAAA3X9ueI63b6PdGWLclVU59AUVT9bGOGhD+nVYv2KX/2GVeNdS6T1u1eqSO7rvjtHa+MVtvHLJ35aj6lGZPb67fls/S6f8c155dK7T6C3ufP0T21bt9QuVwfaOv/vpXrfzokO5s2FD3VbT3X1GW/vv5P/OcA1xNSf97UK7cvbScAAAAAICS7Dft+2p2/z/qkUee0ux5z6l1VXuHJUsBVWvovkrGakBVPdGli37v3XHJI10a6rd3GCsBFVS1eoDc/gwmFKjn/3+hurv8bbozqJZ+/8Cvddoobd2th0YOLMryJ7X2PhDKGMIJAAAAACixAvW7+6rqzgDvlqPqQxoweZC61PZuSy5Fv/1X/esH75bj3t+ry1PedUvVP6lnw5zuHln6assSRdtbftGwrR4Luc27nn1a+7bEeNdxy6NbBwAAAFCG0K2jbPpN+0Ga3qmO7rS39f0xrZy8RNFmswPDI0PHa2J4oFHhz9J/Yjdq+Nvevh0thk/W0EfMZhXS2UPr9exrcda6fwTq+ekvq70dTpz/x8d6ehbhxC+hNHTrIJwAAAAAyhDCibKrautBWvC0N6A4n/JXLX19o+7uM03P16vgPaDITmtnz9l6w976pVTtNFSL2teSw9z44bjWb/pJre3Xc+2y9NWaCZrwib2JK2LMCQAAAABAsTi9bYnmxabqv3//ROPHb9Qeu9VEqVD1KY180g4mDOf/c0SrL9obgIGWEwAAAEAZQsuJW8sTfYaqS2julhOOylVV1duTQx7XaZ3O9K5f9q32jH1H6+2tm6+Ohs7qpxb32mNNGM4nfqyn3/5Gj4X++lJgcW0u6GzSEX1VmgIaP6Jbh4FwAgAAAPjlEE6g/SuXu3r8N3akhrxlrfrNI/3HaGxk1VwhhBVOzLDHm6ha55pCCo/ruL5IdNlbKAq6dQAAAAAAblnmOBkj8wQT+TRsoRcLnDa04OXF9nknS0VZQMsJAAAAoAyh5URZE6Vpb/1Jv69ob+Y4Gae2x2ppi1Hxvy6Zx7Sy/82fVrSgVhOmXC0nnhqkD3oUfWDMXPdFkdByAgAAAABwy/rbWx/ry3Rj5cJp7dx2TOe9xbl9skRP9xxpBWtFWQgmyiZaTgAAAABliFl5M9FyoqxoqKF/bq7fms0KAn6t+6rag1+aLSf2VdSixvd4ty8JUGBwoO4sb28azp8+LdcFeyPH+eNa/+p67bE3b6aqrf+k1q6/auVdXS+1kLiRlhMlYRyN0oaWEwAAAACAG3BIb7w6W0PGGsuu1NwtD6Lf8Zb7Lntckk8wYQr4/oim5j3uFwomTKe3fayVXzCAJa6McAIAAAAAyoKqUZrW1qcFQrb3xlEnShP7/867URId2qnXl67RvCIuq3ba90OZQjgBAAAAAKVd7eaaOP4p/b6Svf39Ma38MGeMh9t0X+RzWj78j/qNtV2ytO/znMYVMCtHYcvEcYPU3r4vyg7CCQAAAAAotWqodZ+henfiU3ok8DZvkTn45PIliv5kndYlZnnLdJuqPtJRC5aM0bgu4SUypMCtjXACAAAAAEqj/+mh5ate0oD/qaW7A+yyzFRte2uF3jhkbrgUPWOJVid+b+2yVKqqx9p20ezpHfVbu6jkyNK/thXclWPe0iM6bR+FsolwAgAAAABKuKqPddSCDj7jSVT/vaZVjtGyL07LYxX8pNOJMZr359eMMt/BJ1O1fsbrmvfJMZ3OmbHj+2Na/fpG/cveLEk85w5pz+cFLZn260RZRTgBAAAAACVWoFoPHKMFA/+o31S0iywV9PtOL2pA1eP64osjWr/oL+o342PtKbB5gUt71ixRv7FLtPL//0/t3LJE0SW0GYLjroZ64vGClopy2MegbPrVzwZz5eLFb6yC4pIzb/GW1fOsWwAAAAA3X9ueI63b6PdGWLclVU59AVf22+fGaFrzqpcr5tnf679p0n335ox8acv+SZ6clhFFEZClr96erKmx9vYv4alB+qCHt/XH+cSP9fSMGKu4/SvT9Hy9CtZ6kWQe08r+SxRtb+LqSvrfg3Ll7qXlBAAAAACUVP9655D+84O9ccGlL95/XUPGvq5lca7c3RzK3ybHHdewuL/Rnl8ymACugnACAAAAAEqsXVod75Iyjiv6jemaucscT8Klbcb6kBkfa2fiaZ3N/EmebO/RRXU+9Zj22Ou/mOwLcv9gPFdjcf9QUDOPLH21ZqTV+if/8lf9x76v5/wFXUsjEZQOdOsAAAAAyhCzImeiW0cZUrWGfqNU/ecaxon4TcOGus8eo8LjOq4vEn0HycSthm4dAAAAAIAbc/raggnTfw5dnumCYAKlAeEEAAAAAADwK8IJAAAAAADgV4QTAAAAAADArwgnAAAAAACAXxFOAAAAAAAAvyKcAAAAAAAAfkU4AQAAAAAA/IpwAgAAAAAA+BXhBAAAAAAA8CvCCQAAAAAA4FeEEwAAAAAAwK8IJwAAAAAAgF/dtHDC4Qiwbr/7/rx1CwAAAODmyvnsnfNZvCQrDc8RKAtKy+/aTQsnGjz0gHW76oOPCSgAAACAm8z8zG1+9jblfBYvyUrDcwTKgtLyu/arnw3mysWL31gFxSU5RXr51Tfl8VywSwAAAADcbOa3pH/58wuqHWIXlFDUF4Cbr7T8PShX7t6bF06YD/518jf6MHqH4o/8mz86AAAAwE1kVkLMb0i7tW+p+2vfW+yf74sb9QXg5imNfw9uWjgBAAAAAABwNWY4wWwdAAAAAADArwgnAAAAAACAXxFOAAAAAAAAvyKcAAAAAAAAfkU4AQAAAAAA/IpwAgAAAAAA+BXhBAAAAAAA8CvCCQAAAAAA4FeEEwAAAAAAwK8IJwAAAAAAgF8RTgAAAAAAAL8inAAAAAAAAH5FOAEAAAAAAPyKcAIAAAAAAPgV4QQAAAAAAPArwgkAAAAAAOBXhBMAAAAAAMCvCCcAAAAAAIAfSf8fR3iJqEYIoIIAAAAASUVORK5CYII=;" vertex="1" parent="1">
          <mxGeometry x="200" y="90" width="586.61" height="330" as="geometry" />
        </mxCell>
        <mxCell id="l4Yf9cB-Qhk6rSBHNSld-20" value="" style="shape=flexArrow;endArrow=classic;html=1;rounded=0;fontSize=12;startSize=8;endSize=8;curved=1;exitX=0.997;exitY=0.233;exitDx=0;exitDy=0;exitPerimeter=0;fillColor=#60a917;strokeColor=#2D7600;" edge="1" parent="1">
          <mxGeometry width="50" height="50" relative="1" as="geometry">
            <mxPoint x="169.99999999999997" y="145.24" as="sourcePoint" />
            <mxPoint x="220.4200000000001" y="144.9989545475636" as="targetPoint" />
          </mxGeometry>
        </mxCell>
        <mxCell id="l4Yf9cB-Qhk6rSBHNSld-23" value="入力" style="text;html=1;align=center;verticalAlign=middle;whiteSpace=wrap;rounded=0;" vertex="1" parent="1">
          <mxGeometry x="175" y="170" width="20" height="30" as="geometry" />
        </mxCell>
        <mxCell id="l4Yf9cB-Qhk6rSBHNSld-25" value="" style="shape=cylinder3;whiteSpace=wrap;html=1;boundedLbl=1;backgroundOutline=1;size=15;fillColor=#dae8fc;strokeColor=#6c8ebf;" vertex="1" parent="1">
          <mxGeometry x="430" y="30" width="130" height="55" as="geometry" />
        </mxCell>
        <mxCell id="l4Yf9cB-Qhk6rSBHNSld-27" value="" style="endArrow=classic;html=1;rounded=0;fontSize=12;startSize=8;endSize=8;curved=1;entryX=0;entryY=0.5;entryDx=0;entryDy=0;entryPerimeter=0;" edge="1" parent="1" target="l4Yf9cB-Qhk6rSBHNSld-25">
          <mxGeometry width="50" height="50" relative="1" as="geometry">
            <mxPoint x="310.00333333333333" y="145" as="sourcePoint" />
            <mxPoint x="312.96000000000004" y="175" as="targetPoint" />
          </mxGeometry>
        </mxCell>
        <mxCell id="l4Yf9cB-Qhk6rSBHNSld-28" value="" style="endArrow=classic;html=1;rounded=0;fontSize=12;startSize=8;endSize=8;curved=1;exitX=0.5;exitY=1;exitDx=0;exitDy=0;exitPerimeter=0;" edge="1" parent="1" source="l4Yf9cB-Qhk6rSBHNSld-25">
          <mxGeometry width="50" height="50" relative="1" as="geometry">
            <mxPoint x="389" y="180" as="sourcePoint" />
            <mxPoint x="439" y="130" as="targetPoint" />
          </mxGeometry>
        </mxCell>
        <mxCell id="l4Yf9cB-Qhk6rSBHNSld-29" value="発注履歴" style="text;html=1;align=center;verticalAlign=middle;whiteSpace=wrap;rounded=0;" vertex="1" parent="1">
          <mxGeometry x="463.31" y="30" width="60" height="30" as="geometry" />
        </mxCell>
        <mxCell id="l4Yf9cB-Qhk6rSBHNSld-30" value="" style="endArrow=classic;html=1;rounded=0;fontSize=12;startSize=8;endSize=8;curved=1;exitX=0.5;exitY=1;exitDx=0;exitDy=0;exitPerimeter=0;" edge="1" parent="1" source="l4Yf9cB-Qhk6rSBHNSld-25">
          <mxGeometry width="50" height="50" relative="1" as="geometry">
            <mxPoint x="500" y="90" as="sourcePoint" />
            <mxPoint x="585" y="215" as="targetPoint" />
          </mxGeometry>
        </mxCell>
        <mxCell id="l4Yf9cB-Qhk6rSBHNSld-31" value="&lt;div style=&quot;line-height: 80%;&quot;&gt;&lt;font style=&quot;font-size: 8px; line-height: 80%;&quot;&gt;DBより&lt;/font&gt;&lt;div&gt;&lt;font style=&quot;font-size: 8px; line-height: 80%;&quot;&gt;取得&lt;/font&gt;&lt;/div&gt;&lt;/div&gt;" style="text;html=1;align=center;verticalAlign=middle;whiteSpace=wrap;rounded=0;" vertex="1" parent="1">
          <mxGeometry x="523.31" y="210" width="30" height="20" as="geometry" />
        </mxCell>
        <mxCell id="l4Yf9cB-Qhk6rSBHNSld-32" value="&lt;div style=&quot;line-height: 80%;&quot;&gt;&lt;font style=&quot;font-size: 8px; line-height: 80%;&quot;&gt;DBより&lt;/font&gt;&lt;div&gt;&lt;font style=&quot;font-size: 8px; line-height: 80%;&quot;&gt;取得&lt;/font&gt;&lt;/div&gt;&lt;/div&gt;" style="text;html=1;align=center;verticalAlign=middle;whiteSpace=wrap;rounded=0;" vertex="1" parent="1">
          <mxGeometry x="399" y="115" width="30" height="20" as="geometry" />
        </mxCell>
        <mxCell id="l4Yf9cB-Qhk6rSBHNSld-33" value="" style="rounded=0;whiteSpace=wrap;html=1;fillColor=none;" vertex="1" parent="1">
          <mxGeometry x="640" y="370" width="130" height="50" as="geometry" />
        </mxCell>
        <mxCell id="l4Yf9cB-Qhk6rSBHNSld-34" value="入力内容をJSONにまとめ、&lt;div&gt;URLパラメータにして&lt;/div&gt;&lt;div&gt;PowerAppsへ送信&lt;/div&gt;" style="text;html=1;align=center;verticalAlign=middle;whiteSpace=wrap;rounded=0;" vertex="1" parent="1">
          <mxGeometry x="490" y="430" width="160" height="30" as="geometry" />
        </mxCell>
        <mxCell id="l4Yf9cB-Qhk6rSBHNSld-35" value="&lt;h1 style=&quot;margin-top: 0px;&quot;&gt;&lt;font style=&quot;color: rgb(0, 153, 153);&quot;&gt;Forguncy&amp;nbsp;&amp;nbsp;&lt;font style=&quot;font-weight: normal; font-size: 14px;&quot;&gt;Sample_Order&lt;/font&gt;&lt;/font&gt;&lt;/h1&gt;" style="text;html=1;whiteSpace=wrap;overflow=hidden;rounded=0;" vertex="1" parent="1">
          <mxGeometry x="10" width="330" height="40" as="geometry" />
        </mxCell>
        <mxCell id="l4Yf9cB-Qhk6rSBHNSld-36" value="&lt;h1 style=&quot;margin-top: 0px;&quot;&gt;PowerApps&lt;/h1&gt;" style="text;html=1;whiteSpace=wrap;overflow=hidden;rounded=0;" vertex="1" parent="1">
          <mxGeometry x="10" y="480" width="180" height="40" as="geometry" />
        </mxCell>
      </root>
    </mxGraphModel>
  </diagram>
</mxfile>
